<?xml version="1.0" encoding="utf-8" standalone="no"?>
<!DOCTYPE svg PUBLIC "-//W3C//DTD SVG 1.1//EN"
  "http://www.w3.org/Graphics/SVG/1.1/DTD/svg11.dtd">
<svg xmlns:xlink="http://www.w3.org/1999/xlink" width="576pt" height="360pt" viewBox="0 0 576 360" xmlns="http://www.w3.org/2000/svg" version="1.1">
 <metadata>
  <rdf:RDF xmlns:dc="http://purl.org/dc/elements/1.1/" xmlns:cc="http://creativecommons.org/ns#" xmlns:rdf="http://www.w3.org/1999/02/22-rdf-syntax-ns#">
   <cc:Work>
    <dc:type rdf:resource="http://purl.org/dc/dcmitype/StillImage"/>
    <dc:date>2025-05-30T13:17:11.031296</dc:date>
    <dc:format>image/svg+xml</dc:format>
    <dc:creator>
     <cc:Agent>
      <dc:title>Matplotlib v3.10.3, https://matplotlib.org/</dc:title>
     </cc:Agent>
    </dc:creator>
   </cc:Work>
  </rdf:RDF>
 </metadata>
 <defs>
  <style type="text/css">*{stroke-linejoin: round; stroke-linecap: butt}</style>
 </defs>
 <g id="figure_1">
  <g id="patch_1">
   <path d="M 0 360 
L 576 360 
L 576 0 
L 0 0 
z
" style="fill: #ffffff"/>
  </g>
  <g id="axes_1">
   <g id="patch_2">
    <path d="M 65.202685 299.528 
L 217.80179 299.528 
L 217.80179 81.76 
L 65.202685 81.76 
z
" style="fill: #ffffff"/>
   </g>
   <g id="matplotlib.axis_1">
    <g id="xtick_1">
     <g id="line2d_1">
      <defs>
       <path id="mbc5ac89f51" d="M 0 0 
L 0 3.5 
" style="stroke: #000000; stroke-width: 0.8"/>
      </defs>
      <g>
       <use xlink:href="#mbc5ac89f51" x="95.260084" y="299.528" style="stroke: #000000; stroke-width: 0.8"/>
      </g>
     </g>
     <g id="text_1">
      <!-- $\mathdefault{2^{9}}$ -->
      <g transform="translate(89.660084 314.126438) scale(0.1 -0.1)">
       <defs>
        <path id="DejaVuSans-32" d="M 1228 531 
L 3431 531 
L 3431 0 
L 469 0 
L 469 531 
Q 828 903 1448 1529 
Q 2069 2156 2228 2338 
Q 2531 2678 2651 2914 
Q 2772 3150 2772 3378 
Q 2772 3750 2511 3984 
Q 2250 4219 1831 4219 
Q 1534 4219 1204 4116 
Q 875 4013 500 3803 
L 500 4441 
Q 881 4594 1212 4672 
Q 1544 4750 1819 4750 
Q 2544 4750 2975 4387 
Q 3406 4025 3406 3419 
Q 3406 3131 3298 2873 
Q 3191 2616 2906 2266 
Q 2828 2175 2409 1742 
Q 1991 1309 1228 531 
z
" transform="scale(0.015625)"/>
        <path id="DejaVuSans-39" d="M 703 97 
L 703 672 
Q 941 559 1184 500 
Q 1428 441 1663 441 
Q 2288 441 2617 861 
Q 2947 1281 2994 2138 
Q 2813 1869 2534 1725 
Q 2256 1581 1919 1581 
Q 1219 1581 811 2004 
Q 403 2428 403 3163 
Q 403 3881 828 4315 
Q 1253 4750 1959 4750 
Q 2769 4750 3195 4129 
Q 3622 3509 3622 2328 
Q 3622 1225 3098 567 
Q 2575 -91 1691 -91 
Q 1453 -91 1209 -44 
Q 966 3 703 97 
z
M 1959 2075 
Q 2384 2075 2632 2365 
Q 2881 2656 2881 3163 
Q 2881 3666 2632 3958 
Q 2384 4250 1959 4250 
Q 1534 4250 1286 3958 
Q 1038 3666 1038 3163 
Q 1038 2656 1286 2365 
Q 1534 2075 1959 2075 
z
" transform="scale(0.015625)"/>
       </defs>
       <use xlink:href="#DejaVuSans-32" transform="translate(0 0.765625)"/>
       <use xlink:href="#DejaVuSans-39" transform="translate(64.580078 39.046875) scale(0.7)"/>
      </g>
     </g>
    </g>
    <g id="xtick_2">
     <g id="line2d_2">
      <g>
       <use xlink:href="#mbc5ac89f51" x="129.941699" y="299.528" style="stroke: #000000; stroke-width: 0.8"/>
      </g>
     </g>
     <g id="text_2">
      <!-- $\mathdefault{2^{15}}$ -->
      <g transform="translate(122.091699 314.126438) scale(0.1 -0.1)">
       <defs>
        <path id="DejaVuSans-31" d="M 794 531 
L 1825 531 
L 1825 4091 
L 703 3866 
L 703 4441 
L 1819 4666 
L 2450 4666 
L 2450 531 
L 3481 531 
L 3481 0 
L 794 0 
L 794 531 
z
" transform="scale(0.015625)"/>
        <path id="DejaVuSans-35" d="M 691 4666 
L 3169 4666 
L 3169 4134 
L 1269 4134 
L 1269 2991 
Q 1406 3038 1543 3061 
Q 1681 3084 1819 3084 
Q 2600 3084 3056 2656 
Q 3513 2228 3513 1497 
Q 3513 744 3044 326 
Q 2575 -91 1722 -91 
Q 1428 -91 1123 -41 
Q 819 9 494 109 
L 494 744 
Q 775 591 1075 516 
Q 1375 441 1709 441 
Q 2250 441 2565 725 
Q 2881 1009 2881 1497 
Q 2881 1984 2565 2268 
Q 2250 2553 1709 2553 
Q 1456 2553 1204 2497 
Q 953 2441 691 2322 
L 691 4666 
z
" transform="scale(0.015625)"/>
       </defs>
       <use xlink:href="#DejaVuSans-32" transform="translate(0 0.684375)"/>
       <use xlink:href="#DejaVuSans-31" transform="translate(64.580078 38.965625) scale(0.7)"/>
       <use xlink:href="#DejaVuSans-35" transform="translate(109.116211 38.965625) scale(0.7)"/>
      </g>
     </g>
    </g>
    <g id="xtick_3">
     <g id="line2d_3">
      <g>
       <use xlink:href="#mbc5ac89f51" x="164.623314" y="299.528" style="stroke: #000000; stroke-width: 0.8"/>
      </g>
     </g>
     <g id="text_3">
      <!-- $\mathdefault{2^{21}}$ -->
      <g transform="translate(156.773314 314.126438) scale(0.1 -0.1)">
       <use xlink:href="#DejaVuSans-32" transform="translate(0 0.765625)"/>
       <use xlink:href="#DejaVuSans-32" transform="translate(64.580078 39.046875) scale(0.7)"/>
       <use xlink:href="#DejaVuSans-31" transform="translate(109.116211 39.046875) scale(0.7)"/>
      </g>
     </g>
    </g>
    <g id="xtick_4">
     <g id="line2d_4">
      <g>
       <use xlink:href="#mbc5ac89f51" x="199.304929" y="299.528" style="stroke: #000000; stroke-width: 0.8"/>
      </g>
     </g>
     <g id="text_4">
      <!-- $\mathdefault{2^{27}}$ -->
      <g transform="translate(191.454929 314.126438) scale(0.1 -0.1)">
       <defs>
        <path id="DejaVuSans-37" d="M 525 4666 
L 3525 4666 
L 3525 4397 
L 1831 0 
L 1172 0 
L 2766 4134 
L 525 4134 
L 525 4666 
z
" transform="scale(0.015625)"/>
       </defs>
       <use xlink:href="#DejaVuSans-32" transform="translate(0 0.765625)"/>
       <use xlink:href="#DejaVuSans-32" transform="translate(64.580078 39.046875) scale(0.7)"/>
       <use xlink:href="#DejaVuSans-37" transform="translate(109.116211 39.046875) scale(0.7)"/>
      </g>
     </g>
    </g>
    <g id="text_5">
     <!-- N -->
     <g transform="translate(137.761612 327.804562) scale(0.1 -0.1)">
      <defs>
       <path id="DejaVuSans-4e" d="M 628 4666 
L 1478 4666 
L 3547 763 
L 3547 4666 
L 4159 4666 
L 4159 0 
L 3309 0 
L 1241 3903 
L 1241 0 
L 628 0 
L 628 4666 
z
" transform="scale(0.015625)"/>
      </defs>
      <use xlink:href="#DejaVuSans-4e"/>
     </g>
    </g>
   </g>
   <g id="matplotlib.axis_2">
    <g id="ytick_1">
     <g id="line2d_5">
      <path d="M 65.202685 257.272712 
L 217.80179 257.272712 
" clip-path="url(#p85843983bc)" style="fill: none; stroke: #b0b0b0; stroke-width: 0.8; stroke-linecap: square"/>
     </g>
     <g id="line2d_6">
      <defs>
       <path id="m2026b9c9eb" d="M 0 0 
L -3.5 0 
" style="stroke: #000000; stroke-width: 0.8"/>
      </defs>
      <g>
       <use xlink:href="#m2026b9c9eb" x="65.202685" y="257.272712" style="stroke: #000000; stroke-width: 0.8"/>
      </g>
     </g>
     <g id="text_6">
      <!-- $\mathdefault{10^{1}}$ -->
      <g transform="translate(40.602685 261.07193) scale(0.1 -0.1)">
       <defs>
        <path id="DejaVuSans-30" d="M 2034 4250 
Q 1547 4250 1301 3770 
Q 1056 3291 1056 2328 
Q 1056 1369 1301 889 
Q 1547 409 2034 409 
Q 2525 409 2770 889 
Q 3016 1369 3016 2328 
Q 3016 3291 2770 3770 
Q 2525 4250 2034 4250 
z
M 2034 4750 
Q 2819 4750 3233 4129 
Q 3647 3509 3647 2328 
Q 3647 1150 3233 529 
Q 2819 -91 2034 -91 
Q 1250 -91 836 529 
Q 422 1150 422 2328 
Q 422 3509 836 4129 
Q 1250 4750 2034 4750 
z
" transform="scale(0.015625)"/>
       </defs>
       <use xlink:href="#DejaVuSans-31" transform="translate(0 0.684375)"/>
       <use xlink:href="#DejaVuSans-30" transform="translate(63.623047 0.684375)"/>
       <use xlink:href="#DejaVuSans-31" transform="translate(128.203125 38.965625) scale(0.7)"/>
      </g>
     </g>
    </g>
    <g id="ytick_2">
     <g id="line2d_7">
      <path d="M 65.202685 195.384194 
L 217.80179 195.384194 
" clip-path="url(#p85843983bc)" style="fill: none; stroke: #b0b0b0; stroke-width: 0.8; stroke-linecap: square"/>
     </g>
     <g id="line2d_8">
      <g>
       <use xlink:href="#m2026b9c9eb" x="65.202685" y="195.384194" style="stroke: #000000; stroke-width: 0.8"/>
      </g>
     </g>
     <g id="text_7">
      <!-- $\mathdefault{10^{2}}$ -->
      <g transform="translate(40.602685 199.183413) scale(0.1 -0.1)">
       <use xlink:href="#DejaVuSans-31" transform="translate(0 0.765625)"/>
       <use xlink:href="#DejaVuSans-30" transform="translate(63.623047 0.765625)"/>
       <use xlink:href="#DejaVuSans-32" transform="translate(128.203125 39.046875) scale(0.7)"/>
      </g>
     </g>
    </g>
    <g id="ytick_3">
     <g id="line2d_9">
      <path d="M 65.202685 133.495676 
L 217.80179 133.495676 
" clip-path="url(#p85843983bc)" style="fill: none; stroke: #b0b0b0; stroke-width: 0.8; stroke-linecap: square"/>
     </g>
     <g id="line2d_10">
      <g>
       <use xlink:href="#m2026b9c9eb" x="65.202685" y="133.495676" style="stroke: #000000; stroke-width: 0.8"/>
      </g>
     </g>
     <g id="text_8">
      <!-- $\mathdefault{10^{3}}$ -->
      <g transform="translate(40.602685 137.294895) scale(0.1 -0.1)">
       <defs>
        <path id="DejaVuSans-33" d="M 2597 2516 
Q 3050 2419 3304 2112 
Q 3559 1806 3559 1356 
Q 3559 666 3084 287 
Q 2609 -91 1734 -91 
Q 1441 -91 1130 -33 
Q 819 25 488 141 
L 488 750 
Q 750 597 1062 519 
Q 1375 441 1716 441 
Q 2309 441 2620 675 
Q 2931 909 2931 1356 
Q 2931 1769 2642 2001 
Q 2353 2234 1838 2234 
L 1294 2234 
L 1294 2753 
L 1863 2753 
Q 2328 2753 2575 2939 
Q 2822 3125 2822 3475 
Q 2822 3834 2567 4026 
Q 2313 4219 1838 4219 
Q 1578 4219 1281 4162 
Q 984 4106 628 3988 
L 628 4550 
Q 988 4650 1302 4700 
Q 1616 4750 1894 4750 
Q 2613 4750 3031 4423 
Q 3450 4097 3450 3541 
Q 3450 3153 3228 2886 
Q 3006 2619 2597 2516 
z
" transform="scale(0.015625)"/>
       </defs>
       <use xlink:href="#DejaVuSans-31" transform="translate(0 0.765625)"/>
       <use xlink:href="#DejaVuSans-30" transform="translate(63.623047 0.765625)"/>
       <use xlink:href="#DejaVuSans-33" transform="translate(128.203125 39.046875) scale(0.7)"/>
      </g>
     </g>
    </g>
    <g id="ytick_4">
     <g id="line2d_11">
      <defs>
       <path id="m328f4c81dd" d="M 0 0 
L -2 0 
" style="stroke: #000000; stroke-width: 0.6"/>
      </defs>
      <g>
       <use xlink:href="#m328f4c81dd" x="65.202685" y="289.632902" style="stroke: #000000; stroke-width: 0.6"/>
      </g>
     </g>
    </g>
    <g id="ytick_5">
     <g id="line2d_12">
      <g>
       <use xlink:href="#m328f4c81dd" x="65.202685" y="281.900629" style="stroke: #000000; stroke-width: 0.6"/>
      </g>
     </g>
    </g>
    <g id="ytick_6">
     <g id="line2d_13">
      <g>
       <use xlink:href="#m328f4c81dd" x="65.202685" y="275.903012" style="stroke: #000000; stroke-width: 0.6"/>
      </g>
     </g>
    </g>
    <g id="ytick_7">
     <g id="line2d_14">
      <g>
       <use xlink:href="#m328f4c81dd" x="65.202685" y="271.002602" style="stroke: #000000; stroke-width: 0.6"/>
      </g>
     </g>
    </g>
    <g id="ytick_8">
     <g id="line2d_15">
      <g>
       <use xlink:href="#m328f4c81dd" x="65.202685" y="266.859364" style="stroke: #000000; stroke-width: 0.6"/>
      </g>
     </g>
    </g>
    <g id="ytick_9">
     <g id="line2d_16">
      <g>
       <use xlink:href="#m328f4c81dd" x="65.202685" y="263.270329" style="stroke: #000000; stroke-width: 0.6"/>
      </g>
     </g>
    </g>
    <g id="ytick_10">
     <g id="line2d_17">
      <g>
       <use xlink:href="#m328f4c81dd" x="65.202685" y="260.104575" style="stroke: #000000; stroke-width: 0.6"/>
      </g>
     </g>
    </g>
    <g id="ytick_11">
     <g id="line2d_18">
      <g>
       <use xlink:href="#m328f4c81dd" x="65.202685" y="238.642411" style="stroke: #000000; stroke-width: 0.6"/>
      </g>
     </g>
    </g>
    <g id="ytick_12">
     <g id="line2d_19">
      <g>
       <use xlink:href="#m328f4c81dd" x="65.202685" y="227.744384" style="stroke: #000000; stroke-width: 0.6"/>
      </g>
     </g>
    </g>
    <g id="ytick_13">
     <g id="line2d_20">
      <g>
       <use xlink:href="#m328f4c81dd" x="65.202685" y="220.012111" style="stroke: #000000; stroke-width: 0.6"/>
      </g>
     </g>
    </g>
    <g id="ytick_14">
     <g id="line2d_21">
      <g>
       <use xlink:href="#m328f4c81dd" x="65.202685" y="214.014494" style="stroke: #000000; stroke-width: 0.6"/>
      </g>
     </g>
    </g>
    <g id="ytick_15">
     <g id="line2d_22">
      <g>
       <use xlink:href="#m328f4c81dd" x="65.202685" y="209.114084" style="stroke: #000000; stroke-width: 0.6"/>
      </g>
     </g>
    </g>
    <g id="ytick_16">
     <g id="line2d_23">
      <g>
       <use xlink:href="#m328f4c81dd" x="65.202685" y="204.970847" style="stroke: #000000; stroke-width: 0.6"/>
      </g>
     </g>
    </g>
    <g id="ytick_17">
     <g id="line2d_24">
      <g>
       <use xlink:href="#m328f4c81dd" x="65.202685" y="201.381811" style="stroke: #000000; stroke-width: 0.6"/>
      </g>
     </g>
    </g>
    <g id="ytick_18">
     <g id="line2d_25">
      <g>
       <use xlink:href="#m328f4c81dd" x="65.202685" y="198.216057" style="stroke: #000000; stroke-width: 0.6"/>
      </g>
     </g>
    </g>
    <g id="ytick_19">
     <g id="line2d_26">
      <g>
       <use xlink:href="#m328f4c81dd" x="65.202685" y="176.753894" style="stroke: #000000; stroke-width: 0.6"/>
      </g>
     </g>
    </g>
    <g id="ytick_20">
     <g id="line2d_27">
      <g>
       <use xlink:href="#m328f4c81dd" x="65.202685" y="165.855867" style="stroke: #000000; stroke-width: 0.6"/>
      </g>
     </g>
    </g>
    <g id="ytick_21">
     <g id="line2d_28">
      <g>
       <use xlink:href="#m328f4c81dd" x="65.202685" y="158.123593" style="stroke: #000000; stroke-width: 0.6"/>
      </g>
     </g>
    </g>
    <g id="ytick_22">
     <g id="line2d_29">
      <g>
       <use xlink:href="#m328f4c81dd" x="65.202685" y="152.125976" style="stroke: #000000; stroke-width: 0.6"/>
      </g>
     </g>
    </g>
    <g id="ytick_23">
     <g id="line2d_30">
      <g>
       <use xlink:href="#m328f4c81dd" x="65.202685" y="147.225566" style="stroke: #000000; stroke-width: 0.6"/>
      </g>
     </g>
    </g>
    <g id="ytick_24">
     <g id="line2d_31">
      <g>
       <use xlink:href="#m328f4c81dd" x="65.202685" y="143.082329" style="stroke: #000000; stroke-width: 0.6"/>
      </g>
     </g>
    </g>
    <g id="ytick_25">
     <g id="line2d_32">
      <g>
       <use xlink:href="#m328f4c81dd" x="65.202685" y="139.493293" style="stroke: #000000; stroke-width: 0.6"/>
      </g>
     </g>
    </g>
    <g id="ytick_26">
     <g id="line2d_33">
      <g>
       <use xlink:href="#m328f4c81dd" x="65.202685" y="136.327539" style="stroke: #000000; stroke-width: 0.6"/>
      </g>
     </g>
    </g>
    <g id="ytick_27">
     <g id="line2d_34">
      <g>
       <use xlink:href="#m328f4c81dd" x="65.202685" y="114.865376" style="stroke: #000000; stroke-width: 0.6"/>
      </g>
     </g>
    </g>
    <g id="ytick_28">
     <g id="line2d_35">
      <g>
       <use xlink:href="#m328f4c81dd" x="65.202685" y="103.967349" style="stroke: #000000; stroke-width: 0.6"/>
      </g>
     </g>
    </g>
    <g id="ytick_29">
     <g id="line2d_36">
      <g>
       <use xlink:href="#m328f4c81dd" x="65.202685" y="96.235076" style="stroke: #000000; stroke-width: 0.6"/>
      </g>
     </g>
    </g>
    <g id="ytick_30">
     <g id="line2d_37">
      <g>
       <use xlink:href="#m328f4c81dd" x="65.202685" y="90.237459" style="stroke: #000000; stroke-width: 0.6"/>
      </g>
     </g>
    </g>
    <g id="ytick_31">
     <g id="line2d_38">
      <g>
       <use xlink:href="#m328f4c81dd" x="65.202685" y="85.337049" style="stroke: #000000; stroke-width: 0.6"/>
      </g>
     </g>
    </g>
    <g id="text_9">
     <!-- CPU Cycle -->
     <g transform="translate(34.522997 216.064312) rotate(-90) scale(0.1 -0.1)">
      <defs>
       <path id="DejaVuSans-43" d="M 4122 4306 
L 4122 3641 
Q 3803 3938 3442 4084 
Q 3081 4231 2675 4231 
Q 1875 4231 1450 3742 
Q 1025 3253 1025 2328 
Q 1025 1406 1450 917 
Q 1875 428 2675 428 
Q 3081 428 3442 575 
Q 3803 722 4122 1019 
L 4122 359 
Q 3791 134 3420 21 
Q 3050 -91 2638 -91 
Q 1578 -91 968 557 
Q 359 1206 359 2328 
Q 359 3453 968 4101 
Q 1578 4750 2638 4750 
Q 3056 4750 3426 4639 
Q 3797 4528 4122 4306 
z
" transform="scale(0.015625)"/>
       <path id="DejaVuSans-50" d="M 1259 4147 
L 1259 2394 
L 2053 2394 
Q 2494 2394 2734 2622 
Q 2975 2850 2975 3272 
Q 2975 3691 2734 3919 
Q 2494 4147 2053 4147 
L 1259 4147 
z
M 628 4666 
L 2053 4666 
Q 2838 4666 3239 4311 
Q 3641 3956 3641 3272 
Q 3641 2581 3239 2228 
Q 2838 1875 2053 1875 
L 1259 1875 
L 1259 0 
L 628 0 
L 628 4666 
z
" transform="scale(0.015625)"/>
       <path id="DejaVuSans-55" d="M 556 4666 
L 1191 4666 
L 1191 1831 
Q 1191 1081 1462 751 
Q 1734 422 2344 422 
Q 2950 422 3222 751 
Q 3494 1081 3494 1831 
L 3494 4666 
L 4128 4666 
L 4128 1753 
Q 4128 841 3676 375 
Q 3225 -91 2344 -91 
Q 1459 -91 1007 375 
Q 556 841 556 1753 
L 556 4666 
z
" transform="scale(0.015625)"/>
       <path id="DejaVuSans-20" transform="scale(0.015625)"/>
       <path id="DejaVuSans-79" d="M 2059 -325 
Q 1816 -950 1584 -1140 
Q 1353 -1331 966 -1331 
L 506 -1331 
L 506 -850 
L 844 -850 
Q 1081 -850 1212 -737 
Q 1344 -625 1503 -206 
L 1606 56 
L 191 3500 
L 800 3500 
L 1894 763 
L 2988 3500 
L 3597 3500 
L 2059 -325 
z
" transform="scale(0.015625)"/>
       <path id="DejaVuSans-63" d="M 3122 3366 
L 3122 2828 
Q 2878 2963 2633 3030 
Q 2388 3097 2138 3097 
Q 1578 3097 1268 2742 
Q 959 2388 959 1747 
Q 959 1106 1268 751 
Q 1578 397 2138 397 
Q 2388 397 2633 464 
Q 2878 531 3122 666 
L 3122 134 
Q 2881 22 2623 -34 
Q 2366 -91 2075 -91 
Q 1284 -91 818 406 
Q 353 903 353 1747 
Q 353 2603 823 3093 
Q 1294 3584 2113 3584 
Q 2378 3584 2631 3529 
Q 2884 3475 3122 3366 
z
" transform="scale(0.015625)"/>
       <path id="DejaVuSans-6c" d="M 603 4863 
L 1178 4863 
L 1178 0 
L 603 0 
L 603 4863 
z
" transform="scale(0.015625)"/>
       <path id="DejaVuSans-65" d="M 3597 1894 
L 3597 1613 
L 953 1613 
Q 991 1019 1311 708 
Q 1631 397 2203 397 
Q 2534 397 2845 478 
Q 3156 559 3463 722 
L 3463 178 
Q 3153 47 2828 -22 
Q 2503 -91 2169 -91 
Q 1331 -91 842 396 
Q 353 884 353 1716 
Q 353 2575 817 3079 
Q 1281 3584 2069 3584 
Q 2775 3584 3186 3129 
Q 3597 2675 3597 1894 
z
M 3022 2063 
Q 3016 2534 2758 2815 
Q 2500 3097 2075 3097 
Q 1594 3097 1305 2825 
Q 1016 2553 972 2059 
L 3022 2063 
z
" transform="scale(0.015625)"/>
      </defs>
      <use xlink:href="#DejaVuSans-43"/>
      <use xlink:href="#DejaVuSans-50" transform="translate(69.824219 0)"/>
      <use xlink:href="#DejaVuSans-55" transform="translate(130.126953 0)"/>
      <use xlink:href="#DejaVuSans-20" transform="translate(203.320312 0)"/>
      <use xlink:href="#DejaVuSans-43" transform="translate(235.107422 0)"/>
      <use xlink:href="#DejaVuSans-79" transform="translate(304.931641 0)"/>
      <use xlink:href="#DejaVuSans-63" transform="translate(364.111328 0)"/>
      <use xlink:href="#DejaVuSans-6c" transform="translate(419.091797 0)"/>
      <use xlink:href="#DejaVuSans-65" transform="translate(446.875 0)"/>
     </g>
    </g>
   </g>
   <g id="line2d_39">
    <path d="M 72.139008 287.667445 
L 77.919277 287.634635 
L 81.300518 287.604703 
L 83.699546 287.616962 
L 85.560377 287.614211 
L 87.080787 287.608078 
L 88.366275 287.621512 
L 89.479815 287.584144 
L 90.462027 287.593532 
L 91.340646 287.699756 
L 92.135454 287.703242 
L 92.861056 287.593556 
L 93.528545 287.588595 
L 94.146544 287.532167 
L 94.721887 287.496911 
L 95.260084 287.490385 
L 95.765643 287.492899 
L 96.242296 287.487029 
L 96.693172 287.484366 
L 97.120915 287.486761 
L 97.527785 287.489741 
L 97.915723 287.4886 
L 98.286413 287.487512 
L 98.641325 287.485878 
L 98.981746 287.490636 
L 99.308814 287.493836 
L 99.623537 287.554389 
L 99.926813 287.540755 
L 100.219445 287.491332 
L 100.502156 287.488836 
L 100.775596 287.489654 
L 101.040353 287.485564 
L 106.820623 287.590688 
L 112.600892 287.705083 
L 118.381161 287.632684 
L 124.16143 287.597183 
L 129.941699 287.623753 
L 135.721968 287.753008 
L 141.502237 287.750108 
L 147.282506 287.744355 
L 153.062776 287.744777 
L 158.843045 287.75187 
L 164.623314 287.755699 
L 170.403583 287.753532 
L 176.183852 287.758417 
L 181.964121 287.773532 
L 187.74439 287.694505 
L 193.524659 287.608832 
L 199.304929 287.729807 
L 205.085198 287.590774 
L 210.865467 287.58413 
" clip-path="url(#p85843983bc)" style="fill: none; stroke: #1f77b4; stroke-width: 1.5; stroke-linecap: square"/>
   </g>
   <g id="line2d_40">
    <path d="M 72.139008 247.473655 
L 77.919277 240.791773 
L 81.300518 234.754111 
L 83.699546 230.995525 
L 85.560377 230.268129 
L 87.080787 229.765306 
L 88.366275 229.00145 
L 89.479815 228.133802 
L 90.462027 227.747951 
L 91.340646 227.179711 
L 92.135454 226.882026 
L 92.861056 226.44341 
L 93.528545 226.143652 
L 94.146544 225.879704 
L 94.721887 225.744971 
L 95.260084 225.156785 
L 95.765643 224.46009 
L 96.242296 224.885908 
L 96.693172 223.420776 
L 97.120915 224.394762 
L 97.527785 224.358718 
L 97.915723 224.123006 
L 98.286413 224.040046 
L 98.641325 223.434849 
L 98.981746 223.068333 
L 99.308814 222.206816 
L 99.623537 221.920928 
L 99.926813 222.21314 
L 100.219445 223.185161 
L 100.502156 223.321271 
L 100.775596 223.200128 
L 101.040353 221.727438 
L 106.820623 216.487457 
L 112.600892 186.717343 
L 118.381161 184.52753 
L 124.16143 183.83619 
L 129.941699 182.175161 
L 135.721968 181.734154 
L 141.502237 179.835123 
L 147.282506 178.521981 
L 153.062776 175.87483 
L 158.843045 174.475215 
L 164.623314 167.575519 
L 170.403583 167.465134 
L 176.183852 164.382387 
L 181.964121 165.128055 
L 187.74439 160.830618 
L 193.524659 162.420652 
L 199.304929 159.364848 
L 205.085198 159.616229 
L 210.865467 155.08126 
" clip-path="url(#p85843983bc)" style="fill: none; stroke: #ff7f0e; stroke-width: 1.5; stroke-linecap: square"/>
   </g>
   <g id="line2d_41">
    <path d="M 72.139008 251.016601 
L 77.919277 246.477678 
L 81.300518 238.646501 
L 83.699546 233.667605 
L 85.560377 230.551924 
L 87.080787 230.356457 
L 88.366275 229.198843 
L 89.479815 228.228949 
L 90.462027 228.300708 
L 91.340646 227.789198 
L 92.135454 227.854658 
L 92.861056 227.097158 
L 93.528545 226.992433 
L 94.146544 227.20608 
L 94.721887 227.23255 
L 95.260084 227.562973 
L 95.765643 226.921409 
L 96.242296 227.107915 
L 96.693172 226.363798 
L 97.120915 226.382779 
L 97.527785 226.162103 
L 97.915723 226.145672 
L 98.286413 227.036097 
L 98.641325 226.252283 
L 98.981746 224.978823 
L 99.308814 224.470363 
L 99.623537 225.508208 
L 99.926813 225.605621 
L 100.219445 225.529684 
L 100.502156 225.52553 
L 100.775596 225.432275 
L 101.040353 225.159348 
L 106.820623 224.451397 
L 112.600892 192.010932 
L 118.381161 187.723105 
L 124.16143 186.664266 
L 129.941699 185.773742 
L 135.721968 184.443584 
L 141.502237 180.85422 
L 147.282506 174.116941 
L 153.062776 171.892783 
L 158.843045 168.695502 
L 164.623314 166.423204 
L 170.403583 164.774508 
L 176.183852 163.53126 
L 181.964121 162.763246 
L 187.74439 162.126297 
L 193.524659 162.072897 
L 199.304929 162.052324 
L 205.085198 162.232746 
L 210.865467 161.451574 
" clip-path="url(#p85843983bc)" style="fill: none; stroke: #2ca02c; stroke-width: 1.5; stroke-linecap: square"/>
   </g>
   <g id="line2d_42">
    <path d="M 72.139008 289.621699 
L 77.919277 289.621685 
L 81.300518 289.625196 
L 83.699546 289.625611 
L 85.560377 289.601927 
L 87.080787 289.609334 
L 88.366275 289.624711 
L 89.479815 289.32052 
L 90.462027 289.62162 
L 91.340646 289.622362 
L 92.135454 289.624657 
L 92.861056 289.61607 
L 93.528545 289.622571 
L 94.146544 289.626637 
L 94.721887 289.615702 
L 95.260084 289.625215 
L 95.765643 289.629129 
L 96.242296 289.627033 
L 96.693172 289.628284 
L 97.120915 289.629189 
L 97.527785 289.615368 
L 97.915723 289.616064 
L 98.286413 289.618585 
L 98.641325 289.609702 
L 98.981746 289.6183 
L 99.308814 289.608262 
L 99.623537 289.614276 
L 99.926813 289.618028 
L 100.219445 289.619888 
L 100.502156 289.607805 
L 100.775596 289.618169 
L 101.040353 289.597772 
L 106.820623 289.563107 
L 112.600892 289.561385 
L 118.381161 289.560809 
L 124.16143 289.559375 
L 129.941699 289.561728 
L 135.721968 289.557888 
L 141.502237 289.557045 
L 147.282506 289.560682 
L 153.062776 289.560282 
L 158.843045 289.559427 
L 164.623314 289.560453 
L 170.403583 289.559968 
L 176.183852 289.558915 
L 181.964121 289.557336 
L 187.74439 289.559173 
L 193.524659 289.558995 
L 199.304929 288.738018 
L 205.085198 289.612372 
L 210.865467 289.619521 
" clip-path="url(#p85843983bc)" style="fill: none; stroke: #d62728; stroke-width: 1.5; stroke-linecap: square"/>
   </g>
   <g id="patch_3">
    <path d="M 65.202685 299.528 
L 65.202685 81.76 
" style="fill: none; stroke: #000000; stroke-width: 0.8; stroke-linejoin: miter; stroke-linecap: square"/>
   </g>
   <g id="patch_4">
    <path d="M 217.80179 299.528 
L 217.80179 81.76 
" style="fill: none; stroke: #000000; stroke-width: 0.8; stroke-linejoin: miter; stroke-linecap: square"/>
   </g>
   <g id="patch_5">
    <path d="M 65.202685 299.528 
L 217.80179 299.528 
" style="fill: none; stroke: #000000; stroke-width: 0.8; stroke-linejoin: miter; stroke-linecap: square"/>
   </g>
   <g id="patch_6">
    <path d="M 65.202685 81.76 
L 217.80179 81.76 
" style="fill: none; stroke: #000000; stroke-width: 0.8; stroke-linejoin: miter; stroke-linecap: square"/>
   </g>
   <g id="text_10">
    <!-- ForwardAccess -->
    <g transform="translate(96.835987 75.76) scale(0.12 -0.12)">
     <defs>
      <path id="DejaVuSans-46" d="M 628 4666 
L 3309 4666 
L 3309 4134 
L 1259 4134 
L 1259 2759 
L 3109 2759 
L 3109 2228 
L 1259 2228 
L 1259 0 
L 628 0 
L 628 4666 
z
" transform="scale(0.015625)"/>
      <path id="DejaVuSans-6f" d="M 1959 3097 
Q 1497 3097 1228 2736 
Q 959 2375 959 1747 
Q 959 1119 1226 758 
Q 1494 397 1959 397 
Q 2419 397 2687 759 
Q 2956 1122 2956 1747 
Q 2956 2369 2687 2733 
Q 2419 3097 1959 3097 
z
M 1959 3584 
Q 2709 3584 3137 3096 
Q 3566 2609 3566 1747 
Q 3566 888 3137 398 
Q 2709 -91 1959 -91 
Q 1206 -91 779 398 
Q 353 888 353 1747 
Q 353 2609 779 3096 
Q 1206 3584 1959 3584 
z
" transform="scale(0.015625)"/>
      <path id="DejaVuSans-72" d="M 2631 2963 
Q 2534 3019 2420 3045 
Q 2306 3072 2169 3072 
Q 1681 3072 1420 2755 
Q 1159 2438 1159 1844 
L 1159 0 
L 581 0 
L 581 3500 
L 1159 3500 
L 1159 2956 
Q 1341 3275 1631 3429 
Q 1922 3584 2338 3584 
Q 2397 3584 2469 3576 
Q 2541 3569 2628 3553 
L 2631 2963 
z
" transform="scale(0.015625)"/>
      <path id="DejaVuSans-77" d="M 269 3500 
L 844 3500 
L 1563 769 
L 2278 3500 
L 2956 3500 
L 3675 769 
L 4391 3500 
L 4966 3500 
L 4050 0 
L 3372 0 
L 2619 2869 
L 1863 0 
L 1184 0 
L 269 3500 
z
" transform="scale(0.015625)"/>
      <path id="DejaVuSans-61" d="M 2194 1759 
Q 1497 1759 1228 1600 
Q 959 1441 959 1056 
Q 959 750 1161 570 
Q 1363 391 1709 391 
Q 2188 391 2477 730 
Q 2766 1069 2766 1631 
L 2766 1759 
L 2194 1759 
z
M 3341 1997 
L 3341 0 
L 2766 0 
L 2766 531 
Q 2569 213 2275 61 
Q 1981 -91 1556 -91 
Q 1019 -91 701 211 
Q 384 513 384 1019 
Q 384 1609 779 1909 
Q 1175 2209 1959 2209 
L 2766 2209 
L 2766 2266 
Q 2766 2663 2505 2880 
Q 2244 3097 1772 3097 
Q 1472 3097 1187 3025 
Q 903 2953 641 2809 
L 641 3341 
Q 956 3463 1253 3523 
Q 1550 3584 1831 3584 
Q 2591 3584 2966 3190 
Q 3341 2797 3341 1997 
z
" transform="scale(0.015625)"/>
      <path id="DejaVuSans-64" d="M 2906 2969 
L 2906 4863 
L 3481 4863 
L 3481 0 
L 2906 0 
L 2906 525 
Q 2725 213 2448 61 
Q 2172 -91 1784 -91 
Q 1150 -91 751 415 
Q 353 922 353 1747 
Q 353 2572 751 3078 
Q 1150 3584 1784 3584 
Q 2172 3584 2448 3432 
Q 2725 3281 2906 2969 
z
M 947 1747 
Q 947 1113 1208 752 
Q 1469 391 1925 391 
Q 2381 391 2643 752 
Q 2906 1113 2906 1747 
Q 2906 2381 2643 2742 
Q 2381 3103 1925 3103 
Q 1469 3103 1208 2742 
Q 947 2381 947 1747 
z
" transform="scale(0.015625)"/>
      <path id="DejaVuSans-41" d="M 2188 4044 
L 1331 1722 
L 3047 1722 
L 2188 4044 
z
M 1831 4666 
L 2547 4666 
L 4325 0 
L 3669 0 
L 3244 1197 
L 1141 1197 
L 716 0 
L 50 0 
L 1831 4666 
z
" transform="scale(0.015625)"/>
      <path id="DejaVuSans-73" d="M 2834 3397 
L 2834 2853 
Q 2591 2978 2328 3040 
Q 2066 3103 1784 3103 
Q 1356 3103 1142 2972 
Q 928 2841 928 2578 
Q 928 2378 1081 2264 
Q 1234 2150 1697 2047 
L 1894 2003 
Q 2506 1872 2764 1633 
Q 3022 1394 3022 966 
Q 3022 478 2636 193 
Q 2250 -91 1575 -91 
Q 1294 -91 989 -36 
Q 684 19 347 128 
L 347 722 
Q 666 556 975 473 
Q 1284 391 1588 391 
Q 1994 391 2212 530 
Q 2431 669 2431 922 
Q 2431 1156 2273 1281 
Q 2116 1406 1581 1522 
L 1381 1569 
Q 847 1681 609 1914 
Q 372 2147 372 2553 
Q 372 3047 722 3315 
Q 1072 3584 1716 3584 
Q 2034 3584 2315 3537 
Q 2597 3491 2834 3397 
z
" transform="scale(0.015625)"/>
     </defs>
     <use xlink:href="#DejaVuSans-46"/>
     <use xlink:href="#DejaVuSans-6f" transform="translate(53.894531 0)"/>
     <use xlink:href="#DejaVuSans-72" transform="translate(115.076172 0)"/>
     <use xlink:href="#DejaVuSans-77" transform="translate(156.189453 0)"/>
     <use xlink:href="#DejaVuSans-61" transform="translate(237.976562 0)"/>
     <use xlink:href="#DejaVuSans-72" transform="translate(299.255859 0)"/>
     <use xlink:href="#DejaVuSans-64" transform="translate(338.619141 0)"/>
     <use xlink:href="#DejaVuSans-41" transform="translate(402.095703 0)"/>
     <use xlink:href="#DejaVuSans-63" transform="translate(468.753906 0)"/>
     <use xlink:href="#DejaVuSans-63" transform="translate(523.734375 0)"/>
     <use xlink:href="#DejaVuSans-65" transform="translate(578.714844 0)"/>
     <use xlink:href="#DejaVuSans-73" transform="translate(640.238281 0)"/>
     <use xlink:href="#DejaVuSans-73" transform="translate(692.337891 0)"/>
    </g>
   </g>
   <g id="legend_1">
    <g id="patch_7">
     <path d="M 142.218977 148.4725 
L 210.80179 148.4725 
Q 212.80179 148.4725 212.80179 146.4725 
L 212.80179 88.76 
Q 212.80179 86.76 210.80179 86.76 
L 142.218977 86.76 
Q 140.218977 86.76 140.218977 88.76 
L 140.218977 146.4725 
Q 140.218977 148.4725 142.218977 148.4725 
z
" style="fill: #ffffff; opacity: 0.8; stroke: #cccccc; stroke-linejoin: miter"/>
    </g>
    <g id="line2d_43">
     <path d="M 144.218977 94.858437 
L 154.218977 94.858437 
L 164.218977 94.858437 
" style="fill: none; stroke: #1f77b4; stroke-width: 1.5; stroke-linecap: square"/>
    </g>
    <g id="text_11">
     <!-- array -->
     <g transform="translate(172.218977 98.358437) scale(0.1 -0.1)">
      <use xlink:href="#DejaVuSans-61"/>
      <use xlink:href="#DejaVuSans-72" transform="translate(61.279297 0)"/>
      <use xlink:href="#DejaVuSans-72" transform="translate(100.642578 0)"/>
      <use xlink:href="#DejaVuSans-61" transform="translate(141.755859 0)"/>
      <use xlink:href="#DejaVuSans-79" transform="translate(203.035156 0)"/>
     </g>
    </g>
    <g id="line2d_44">
     <path d="M 144.218977 109.536562 
L 154.218977 109.536562 
L 164.218977 109.536562 
" style="fill: none; stroke: #ff7f0e; stroke-width: 1.5; stroke-linecap: square"/>
    </g>
    <g id="text_12">
     <!-- rbMap -->
     <g transform="translate(172.218977 113.036562) scale(0.1 -0.1)">
      <defs>
       <path id="DejaVuSans-62" d="M 3116 1747 
Q 3116 2381 2855 2742 
Q 2594 3103 2138 3103 
Q 1681 3103 1420 2742 
Q 1159 2381 1159 1747 
Q 1159 1113 1420 752 
Q 1681 391 2138 391 
Q 2594 391 2855 752 
Q 3116 1113 3116 1747 
z
M 1159 2969 
Q 1341 3281 1617 3432 
Q 1894 3584 2278 3584 
Q 2916 3584 3314 3078 
Q 3713 2572 3713 1747 
Q 3713 922 3314 415 
Q 2916 -91 2278 -91 
Q 1894 -91 1617 61 
Q 1341 213 1159 525 
L 1159 0 
L 581 0 
L 581 4863 
L 1159 4863 
L 1159 2969 
z
" transform="scale(0.015625)"/>
       <path id="DejaVuSans-4d" d="M 628 4666 
L 1569 4666 
L 2759 1491 
L 3956 4666 
L 4897 4666 
L 4897 0 
L 4281 0 
L 4281 4097 
L 3078 897 
L 2444 897 
L 1241 4097 
L 1241 0 
L 628 0 
L 628 4666 
z
" transform="scale(0.015625)"/>
       <path id="DejaVuSans-70" d="M 1159 525 
L 1159 -1331 
L 581 -1331 
L 581 3500 
L 1159 3500 
L 1159 2969 
Q 1341 3281 1617 3432 
Q 1894 3584 2278 3584 
Q 2916 3584 3314 3078 
Q 3713 2572 3713 1747 
Q 3713 922 3314 415 
Q 2916 -91 2278 -91 
Q 1894 -91 1617 61 
Q 1341 213 1159 525 
z
M 3116 1747 
Q 3116 2381 2855 2742 
Q 2594 3103 2138 3103 
Q 1681 3103 1420 2742 
Q 1159 2381 1159 1747 
Q 1159 1113 1420 752 
Q 1681 391 2138 391 
Q 2594 391 2855 752 
Q 3116 1113 3116 1747 
z
" transform="scale(0.015625)"/>
      </defs>
      <use xlink:href="#DejaVuSans-72"/>
      <use xlink:href="#DejaVuSans-62" transform="translate(41.113281 0)"/>
      <use xlink:href="#DejaVuSans-4d" transform="translate(104.589844 0)"/>
      <use xlink:href="#DejaVuSans-61" transform="translate(190.869141 0)"/>
      <use xlink:href="#DejaVuSans-70" transform="translate(252.148438 0)"/>
     </g>
    </g>
    <g id="line2d_45">
     <path d="M 144.218977 124.214687 
L 154.218977 124.214687 
L 164.218977 124.214687 
" style="fill: none; stroke: #2ca02c; stroke-width: 1.5; stroke-linecap: square"/>
    </g>
    <g id="text_13">
     <!-- stdMap -->
     <g transform="translate(172.218977 127.714687) scale(0.1 -0.1)">
      <defs>
       <path id="DejaVuSans-74" d="M 1172 4494 
L 1172 3500 
L 2356 3500 
L 2356 3053 
L 1172 3053 
L 1172 1153 
Q 1172 725 1289 603 
Q 1406 481 1766 481 
L 2356 481 
L 2356 0 
L 1766 0 
Q 1100 0 847 248 
Q 594 497 594 1153 
L 594 3053 
L 172 3053 
L 172 3500 
L 594 3500 
L 594 4494 
L 1172 4494 
z
" transform="scale(0.015625)"/>
      </defs>
      <use xlink:href="#DejaVuSans-73"/>
      <use xlink:href="#DejaVuSans-74" transform="translate(52.099609 0)"/>
      <use xlink:href="#DejaVuSans-64" transform="translate(91.308594 0)"/>
      <use xlink:href="#DejaVuSans-4d" transform="translate(154.785156 0)"/>
      <use xlink:href="#DejaVuSans-61" transform="translate(241.064453 0)"/>
      <use xlink:href="#DejaVuSans-70" transform="translate(302.34375 0)"/>
     </g>
    </g>
    <g id="line2d_46">
     <path d="M 144.218977 138.892812 
L 154.218977 138.892812 
L 164.218977 138.892812 
" style="fill: none; stroke: #d62728; stroke-width: 1.5; stroke-linecap: square"/>
    </g>
    <g id="text_14">
     <!-- vector -->
     <g transform="translate(172.218977 142.392812) scale(0.1 -0.1)">
      <defs>
       <path id="DejaVuSans-76" d="M 191 3500 
L 800 3500 
L 1894 563 
L 2988 3500 
L 3597 3500 
L 2284 0 
L 1503 0 
L 191 3500 
z
" transform="scale(0.015625)"/>
      </defs>
      <use xlink:href="#DejaVuSans-76"/>
      <use xlink:href="#DejaVuSans-65" transform="translate(59.179688 0)"/>
      <use xlink:href="#DejaVuSans-63" transform="translate(120.703125 0)"/>
      <use xlink:href="#DejaVuSans-74" transform="translate(175.683594 0)"/>
      <use xlink:href="#DejaVuSans-6f" transform="translate(214.892578 0)"/>
      <use xlink:href="#DejaVuSans-72" transform="translate(276.074219 0)"/>
     </g>
    </g>
   </g>
  </g>
  <g id="axes_2">
   <g id="patch_8">
    <path d="M 231.30179 299.528 
L 383.900895 299.528 
L 383.900895 81.76 
L 231.30179 81.76 
z
" style="fill: #ffffff"/>
   </g>
   <g id="matplotlib.axis_3">
    <g id="xtick_5">
     <g id="line2d_47">
      <g>
       <use xlink:href="#mbc5ac89f51" x="261.359189" y="299.528" style="stroke: #000000; stroke-width: 0.8"/>
      </g>
     </g>
     <g id="text_15">
      <!-- $\mathdefault{2^{9}}$ -->
      <g transform="translate(255.759189 314.126438) scale(0.1 -0.1)">
       <use xlink:href="#DejaVuSans-32" transform="translate(0 0.765625)"/>
       <use xlink:href="#DejaVuSans-39" transform="translate(64.580078 39.046875) scale(0.7)"/>
      </g>
     </g>
    </g>
    <g id="xtick_6">
     <g id="line2d_48">
      <g>
       <use xlink:href="#mbc5ac89f51" x="296.040804" y="299.528" style="stroke: #000000; stroke-width: 0.8"/>
      </g>
     </g>
     <g id="text_16">
      <!-- $\mathdefault{2^{15}}$ -->
      <g transform="translate(288.190804 314.126438) scale(0.1 -0.1)">
       <use xlink:href="#DejaVuSans-32" transform="translate(0 0.684375)"/>
       <use xlink:href="#DejaVuSans-31" transform="translate(64.580078 38.965625) scale(0.7)"/>
       <use xlink:href="#DejaVuSans-35" transform="translate(109.116211 38.965625) scale(0.7)"/>
      </g>
     </g>
    </g>
    <g id="xtick_7">
     <g id="line2d_49">
      <g>
       <use xlink:href="#mbc5ac89f51" x="330.722419" y="299.528" style="stroke: #000000; stroke-width: 0.8"/>
      </g>
     </g>
     <g id="text_17">
      <!-- $\mathdefault{2^{21}}$ -->
      <g transform="translate(322.872419 314.126438) scale(0.1 -0.1)">
       <use xlink:href="#DejaVuSans-32" transform="translate(0 0.765625)"/>
       <use xlink:href="#DejaVuSans-32" transform="translate(64.580078 39.046875) scale(0.7)"/>
       <use xlink:href="#DejaVuSans-31" transform="translate(109.116211 39.046875) scale(0.7)"/>
      </g>
     </g>
    </g>
    <g id="xtick_8">
     <g id="line2d_50">
      <g>
       <use xlink:href="#mbc5ac89f51" x="365.404034" y="299.528" style="stroke: #000000; stroke-width: 0.8"/>
      </g>
     </g>
     <g id="text_18">
      <!-- $\mathdefault{2^{27}}$ -->
      <g transform="translate(357.554034 314.126438) scale(0.1 -0.1)">
       <use xlink:href="#DejaVuSans-32" transform="translate(0 0.765625)"/>
       <use xlink:href="#DejaVuSans-32" transform="translate(64.580078 39.046875) scale(0.7)"/>
       <use xlink:href="#DejaVuSans-37" transform="translate(109.116211 39.046875) scale(0.7)"/>
      </g>
     </g>
    </g>
    <g id="text_19">
     <!-- N -->
     <g transform="translate(303.860717 327.804562) scale(0.1 -0.1)">
      <use xlink:href="#DejaVuSans-4e"/>
     </g>
    </g>
   </g>
   <g id="matplotlib.axis_4">
    <g id="ytick_32">
     <g id="line2d_51">
      <path d="M 231.30179 257.272712 
L 383.900895 257.272712 
" clip-path="url(#p9f1f69a54d)" style="fill: none; stroke: #b0b0b0; stroke-width: 0.8; stroke-linecap: square"/>
     </g>
     <g id="line2d_52">
      <g>
       <use xlink:href="#m2026b9c9eb" x="231.30179" y="257.272712" style="stroke: #000000; stroke-width: 0.8"/>
      </g>
     </g>
    </g>
    <g id="ytick_33">
     <g id="line2d_53">
      <path d="M 231.30179 195.384194 
L 383.900895 195.384194 
" clip-path="url(#p9f1f69a54d)" style="fill: none; stroke: #b0b0b0; stroke-width: 0.8; stroke-linecap: square"/>
     </g>
     <g id="line2d_54">
      <g>
       <use xlink:href="#m2026b9c9eb" x="231.30179" y="195.384194" style="stroke: #000000; stroke-width: 0.8"/>
      </g>
     </g>
    </g>
    <g id="ytick_34">
     <g id="line2d_55">
      <path d="M 231.30179 133.495676 
L 383.900895 133.495676 
" clip-path="url(#p9f1f69a54d)" style="fill: none; stroke: #b0b0b0; stroke-width: 0.8; stroke-linecap: square"/>
     </g>
     <g id="line2d_56">
      <g>
       <use xlink:href="#m2026b9c9eb" x="231.30179" y="133.495676" style="stroke: #000000; stroke-width: 0.8"/>
      </g>
     </g>
    </g>
    <g id="ytick_35">
     <g id="line2d_57">
      <g>
       <use xlink:href="#m328f4c81dd" x="231.30179" y="289.632902" style="stroke: #000000; stroke-width: 0.6"/>
      </g>
     </g>
    </g>
    <g id="ytick_36">
     <g id="line2d_58">
      <g>
       <use xlink:href="#m328f4c81dd" x="231.30179" y="281.900629" style="stroke: #000000; stroke-width: 0.6"/>
      </g>
     </g>
    </g>
    <g id="ytick_37">
     <g id="line2d_59">
      <g>
       <use xlink:href="#m328f4c81dd" x="231.30179" y="275.903012" style="stroke: #000000; stroke-width: 0.6"/>
      </g>
     </g>
    </g>
    <g id="ytick_38">
     <g id="line2d_60">
      <g>
       <use xlink:href="#m328f4c81dd" x="231.30179" y="271.002602" style="stroke: #000000; stroke-width: 0.6"/>
      </g>
     </g>
    </g>
    <g id="ytick_39">
     <g id="line2d_61">
      <g>
       <use xlink:href="#m328f4c81dd" x="231.30179" y="266.859364" style="stroke: #000000; stroke-width: 0.6"/>
      </g>
     </g>
    </g>
    <g id="ytick_40">
     <g id="line2d_62">
      <g>
       <use xlink:href="#m328f4c81dd" x="231.30179" y="263.270329" style="stroke: #000000; stroke-width: 0.6"/>
      </g>
     </g>
    </g>
    <g id="ytick_41">
     <g id="line2d_63">
      <g>
       <use xlink:href="#m328f4c81dd" x="231.30179" y="260.104575" style="stroke: #000000; stroke-width: 0.6"/>
      </g>
     </g>
    </g>
    <g id="ytick_42">
     <g id="line2d_64">
      <g>
       <use xlink:href="#m328f4c81dd" x="231.30179" y="238.642411" style="stroke: #000000; stroke-width: 0.6"/>
      </g>
     </g>
    </g>
    <g id="ytick_43">
     <g id="line2d_65">
      <g>
       <use xlink:href="#m328f4c81dd" x="231.30179" y="227.744384" style="stroke: #000000; stroke-width: 0.6"/>
      </g>
     </g>
    </g>
    <g id="ytick_44">
     <g id="line2d_66">
      <g>
       <use xlink:href="#m328f4c81dd" x="231.30179" y="220.012111" style="stroke: #000000; stroke-width: 0.6"/>
      </g>
     </g>
    </g>
    <g id="ytick_45">
     <g id="line2d_67">
      <g>
       <use xlink:href="#m328f4c81dd" x="231.30179" y="214.014494" style="stroke: #000000; stroke-width: 0.6"/>
      </g>
     </g>
    </g>
    <g id="ytick_46">
     <g id="line2d_68">
      <g>
       <use xlink:href="#m328f4c81dd" x="231.30179" y="209.114084" style="stroke: #000000; stroke-width: 0.6"/>
      </g>
     </g>
    </g>
    <g id="ytick_47">
     <g id="line2d_69">
      <g>
       <use xlink:href="#m328f4c81dd" x="231.30179" y="204.970847" style="stroke: #000000; stroke-width: 0.6"/>
      </g>
     </g>
    </g>
    <g id="ytick_48">
     <g id="line2d_70">
      <g>
       <use xlink:href="#m328f4c81dd" x="231.30179" y="201.381811" style="stroke: #000000; stroke-width: 0.6"/>
      </g>
     </g>
    </g>
    <g id="ytick_49">
     <g id="line2d_71">
      <g>
       <use xlink:href="#m328f4c81dd" x="231.30179" y="198.216057" style="stroke: #000000; stroke-width: 0.6"/>
      </g>
     </g>
    </g>
    <g id="ytick_50">
     <g id="line2d_72">
      <g>
       <use xlink:href="#m328f4c81dd" x="231.30179" y="176.753894" style="stroke: #000000; stroke-width: 0.6"/>
      </g>
     </g>
    </g>
    <g id="ytick_51">
     <g id="line2d_73">
      <g>
       <use xlink:href="#m328f4c81dd" x="231.30179" y="165.855867" style="stroke: #000000; stroke-width: 0.6"/>
      </g>
     </g>
    </g>
    <g id="ytick_52">
     <g id="line2d_74">
      <g>
       <use xlink:href="#m328f4c81dd" x="231.30179" y="158.123593" style="stroke: #000000; stroke-width: 0.6"/>
      </g>
     </g>
    </g>
    <g id="ytick_53">
     <g id="line2d_75">
      <g>
       <use xlink:href="#m328f4c81dd" x="231.30179" y="152.125976" style="stroke: #000000; stroke-width: 0.6"/>
      </g>
     </g>
    </g>
    <g id="ytick_54">
     <g id="line2d_76">
      <g>
       <use xlink:href="#m328f4c81dd" x="231.30179" y="147.225566" style="stroke: #000000; stroke-width: 0.6"/>
      </g>
     </g>
    </g>
    <g id="ytick_55">
     <g id="line2d_77">
      <g>
       <use xlink:href="#m328f4c81dd" x="231.30179" y="143.082329" style="stroke: #000000; stroke-width: 0.6"/>
      </g>
     </g>
    </g>
    <g id="ytick_56">
     <g id="line2d_78">
      <g>
       <use xlink:href="#m328f4c81dd" x="231.30179" y="139.493293" style="stroke: #000000; stroke-width: 0.6"/>
      </g>
     </g>
    </g>
    <g id="ytick_57">
     <g id="line2d_79">
      <g>
       <use xlink:href="#m328f4c81dd" x="231.30179" y="136.327539" style="stroke: #000000; stroke-width: 0.6"/>
      </g>
     </g>
    </g>
    <g id="ytick_58">
     <g id="line2d_80">
      <g>
       <use xlink:href="#m328f4c81dd" x="231.30179" y="114.865376" style="stroke: #000000; stroke-width: 0.6"/>
      </g>
     </g>
    </g>
    <g id="ytick_59">
     <g id="line2d_81">
      <g>
       <use xlink:href="#m328f4c81dd" x="231.30179" y="103.967349" style="stroke: #000000; stroke-width: 0.6"/>
      </g>
     </g>
    </g>
    <g id="ytick_60">
     <g id="line2d_82">
      <g>
       <use xlink:href="#m328f4c81dd" x="231.30179" y="96.235076" style="stroke: #000000; stroke-width: 0.6"/>
      </g>
     </g>
    </g>
    <g id="ytick_61">
     <g id="line2d_83">
      <g>
       <use xlink:href="#m328f4c81dd" x="231.30179" y="90.237459" style="stroke: #000000; stroke-width: 0.6"/>
      </g>
     </g>
    </g>
    <g id="ytick_62">
     <g id="line2d_84">
      <g>
       <use xlink:href="#m328f4c81dd" x="231.30179" y="85.337049" style="stroke: #000000; stroke-width: 0.6"/>
      </g>
     </g>
    </g>
   </g>
   <g id="line2d_85">
    <path d="M 238.238113 289.60991 
L 244.018382 289.613537 
L 247.399623 289.623761 
L 249.798651 289.629455 
L 251.659482 289.628208 
L 253.179892 289.626716 
L 254.46538 289.61484 
L 255.57892 289.61116 
L 256.561132 289.611211 
L 257.439751 289.616656 
L 258.234559 289.628404 
L 258.960161 289.626136 
L 259.62765 289.622315 
L 260.245649 289.616477 
L 260.820992 289.616139 
L 261.359189 289.624696 
L 261.864748 289.628058 
L 262.341402 289.628555 
L 262.792277 289.623931 
L 263.22002 289.625013 
L 263.62689 289.625379 
L 264.014828 289.624612 
L 264.385518 289.623457 
L 264.74043 289.623184 
L 265.080851 289.620792 
L 265.407919 289.620557 
L 265.722642 289.623447 
L 266.025918 289.611995 
L 266.31855 289.61163 
L 266.601261 289.615995 
L 266.874701 289.62867 
L 267.139458 289.629446 
L 272.919728 289.561096 
L 278.699997 289.563345 
L 284.480266 289.563424 
L 290.260535 289.561516 
L 296.040804 289.562453 
L 301.821073 289.563164 
L 307.601342 289.562508 
L 313.381612 289.521815 
L 319.161881 289.555598 
L 324.94215 288.520669 
L 330.722419 289.560688 
L 336.502688 289.562582 
L 342.282957 289.56176 
L 348.063226 289.557895 
L 353.843495 289.563276 
L 359.623765 289.560351 
L 365.404034 289.551092 
L 371.184303 289.56104 
L 376.964572 289.55973 
" clip-path="url(#p9f1f69a54d)" style="fill: none; stroke: #1f77b4; stroke-width: 1.5; stroke-linecap: square"/>
   </g>
   <g id="line2d_86">
    <path d="M 238.238113 243.659757 
L 244.018382 236.183869 
L 247.399623 231.971335 
L 249.798651 226.973624 
L 251.659482 225.312623 
L 253.179892 224.952405 
L 254.46538 225.319903 
L 255.57892 224.745626 
L 256.561132 224.256185 
L 257.439751 222.586701 
L 258.234559 223.504417 
L 258.960161 223.313323 
L 259.62765 222.885616 
L 260.245649 222.874594 
L 260.820992 222.562881 
L 261.359189 222.004526 
L 261.864748 221.64916 
L 262.341402 221.678694 
L 262.792277 221.424114 
L 263.22002 221.581511 
L 263.62689 219.868763 
L 264.014828 221.379437 
L 264.385518 221.114129 
L 264.74043 220.669651 
L 265.080851 220.344217 
L 265.407919 220.263501 
L 265.722642 220.01864 
L 266.025918 220.477795 
L 266.31855 220.217006 
L 266.601261 220.17204 
L 266.874701 219.920775 
L 267.139458 219.552914 
L 272.919728 205.41331 
L 278.699997 184.979988 
L 284.480266 183.104322 
L 290.260535 182.245315 
L 296.040804 180.549276 
L 301.821073 180.089144 
L 307.601342 178.08438 
L 313.381612 176.812473 
L 319.161881 174.378245 
L 324.94215 172.950455 
L 330.722419 164.978525 
L 336.502688 163.213576 
L 342.282957 162.102271 
L 348.063226 159.871845 
L 353.843495 154.283351 
L 359.623765 152.626869 
L 365.404034 150.376414 
L 371.184303 147.905423 
L 376.964572 145.6696 
" clip-path="url(#p9f1f69a54d)" style="fill: none; stroke: #ff7f0e; stroke-width: 1.5; stroke-linecap: square"/>
   </g>
   <g id="line2d_87">
    <path d="M 238.238113 245.802818 
L 244.018382 239.252846 
L 247.399623 232.23891 
L 249.798651 227.943287 
L 251.659482 226.91657 
L 253.179892 225.61055 
L 254.46538 224.475122 
L 255.57892 224.379835 
L 256.561132 224.280887 
L 257.439751 223.920325 
L 258.234559 223.70402 
L 258.960161 223.617608 
L 259.62765 223.451081 
L 260.245649 223.512754 
L 260.820992 223.323502 
L 261.359189 223.260741 
L 261.864748 223.128356 
L 262.341402 222.975149 
L 262.792277 222.95601 
L 263.22002 222.706987 
L 263.62689 222.787083 
L 264.014828 222.669471 
L 264.385518 222.683302 
L 264.74043 222.665579 
L 265.080851 222.648285 
L 265.407919 222.51676 
L 265.722642 222.55201 
L 266.025918 222.605117 
L 266.31855 222.584731 
L 266.601261 222.459242 
L 266.874701 222.464086 
L 267.139458 222.343827 
L 272.919728 212.449303 
L 278.699997 188.653565 
L 284.480266 186.914769 
L 290.260535 186.084697 
L 296.040804 185.289938 
L 301.821073 183.784612 
L 307.601342 180.736239 
L 313.381612 174.019754 
L 319.161881 171.488148 
L 324.94215 168.76964 
L 330.722419 166.430498 
L 336.502688 164.422272 
L 342.282957 162.273345 
L 348.063226 156.237228 
L 353.843495 155.9421 
L 359.623765 151.626961 
L 365.404034 149.183404 
L 371.184303 146.538333 
L 376.964572 144.876143 
" clip-path="url(#p9f1f69a54d)" style="fill: none; stroke: #2ca02c; stroke-width: 1.5; stroke-linecap: square"/>
   </g>
   <g id="line2d_88">
    <path d="M 238.238113 289.628085 
L 244.018382 289.628604 
L 247.399623 289.62888 
L 249.798651 289.629068 
L 251.659482 289.628898 
L 253.179892 289.629171 
L 254.46538 289.629132 
L 255.57892 289.628644 
L 256.561132 289.628748 
L 257.439751 289.629088 
L 258.234559 289.62911 
L 258.960161 289.62892 
L 259.62765 289.629226 
L 260.245649 289.629074 
L 260.820992 289.628697 
L 261.359189 289.629193 
L 261.864748 289.629247 
L 262.341402 289.629293 
L 262.792277 289.6294 
L 263.22002 289.629177 
L 263.62689 289.628519 
L 264.014828 289.62936 
L 264.385518 289.629152 
L 264.74043 289.629242 
L 265.080851 289.629414 
L 265.407919 289.629261 
L 265.722642 289.629139 
L 266.025918 289.629352 
L 266.31855 289.629291 
L 266.601261 289.629296 
L 266.874701 289.629236 
L 267.139458 289.629228 
L 272.919728 289.62848 
L 278.699997 289.628724 
L 284.480266 289.629277 
L 290.260535 289.629397 
L 296.040804 289.629307 
L 301.821073 289.629213 
L 307.601342 289.629408 
L 313.381612 289.629275 
L 319.161881 289.629085 
L 324.94215 289.629376 
L 330.722419 289.629325 
L 336.502688 289.629213 
L 342.282957 289.629218 
L 348.063226 289.629151 
L 353.843495 289.628952 
L 359.623765 289.628862 
L 365.404034 289.628914 
L 371.184303 289.629047 
L 376.964572 289.629137 
" clip-path="url(#p9f1f69a54d)" style="fill: none; stroke: #d62728; stroke-width: 1.5; stroke-linecap: square"/>
   </g>
   <g id="patch_9">
    <path d="M 231.30179 299.528 
L 231.30179 81.76 
" style="fill: none; stroke: #000000; stroke-width: 0.8; stroke-linejoin: miter; stroke-linecap: square"/>
   </g>
   <g id="patch_10">
    <path d="M 383.900895 299.528 
L 383.900895 81.76 
" style="fill: none; stroke: #000000; stroke-width: 0.8; stroke-linejoin: miter; stroke-linecap: square"/>
   </g>
   <g id="patch_11">
    <path d="M 231.30179 299.528 
L 383.900895 299.528 
" style="fill: none; stroke: #000000; stroke-width: 0.8; stroke-linejoin: miter; stroke-linecap: square"/>
   </g>
   <g id="patch_12">
    <path d="M 231.30179 81.76 
L 383.900895 81.76 
" style="fill: none; stroke: #000000; stroke-width: 0.8; stroke-linejoin: miter; stroke-linecap: square"/>
   </g>
   <g id="text_20">
    <!-- BackwardAccess -->
    <g transform="translate(257.739467 75.76) scale(0.12 -0.12)">
     <defs>
      <path id="DejaVuSans-42" d="M 1259 2228 
L 1259 519 
L 2272 519 
Q 2781 519 3026 730 
Q 3272 941 3272 1375 
Q 3272 1813 3026 2020 
Q 2781 2228 2272 2228 
L 1259 2228 
z
M 1259 4147 
L 1259 2741 
L 2194 2741 
Q 2656 2741 2882 2914 
Q 3109 3088 3109 3444 
Q 3109 3797 2882 3972 
Q 2656 4147 2194 4147 
L 1259 4147 
z
M 628 4666 
L 2241 4666 
Q 2963 4666 3353 4366 
Q 3744 4066 3744 3513 
Q 3744 3084 3544 2831 
Q 3344 2578 2956 2516 
Q 3422 2416 3680 2098 
Q 3938 1781 3938 1306 
Q 3938 681 3513 340 
Q 3088 0 2303 0 
L 628 0 
L 628 4666 
z
" transform="scale(0.015625)"/>
      <path id="DejaVuSans-6b" d="M 581 4863 
L 1159 4863 
L 1159 1991 
L 2875 3500 
L 3609 3500 
L 1753 1863 
L 3688 0 
L 2938 0 
L 1159 1709 
L 1159 0 
L 581 0 
L 581 4863 
z
" transform="scale(0.015625)"/>
     </defs>
     <use xlink:href="#DejaVuSans-42"/>
     <use xlink:href="#DejaVuSans-61" transform="translate(68.603516 0)"/>
     <use xlink:href="#DejaVuSans-63" transform="translate(129.882812 0)"/>
     <use xlink:href="#DejaVuSans-6b" transform="translate(184.863281 0)"/>
     <use xlink:href="#DejaVuSans-77" transform="translate(242.773438 0)"/>
     <use xlink:href="#DejaVuSans-61" transform="translate(324.560547 0)"/>
     <use xlink:href="#DejaVuSans-72" transform="translate(385.839844 0)"/>
     <use xlink:href="#DejaVuSans-64" transform="translate(425.203125 0)"/>
     <use xlink:href="#DejaVuSans-41" transform="translate(488.679688 0)"/>
     <use xlink:href="#DejaVuSans-63" transform="translate(555.337891 0)"/>
     <use xlink:href="#DejaVuSans-63" transform="translate(610.318359 0)"/>
     <use xlink:href="#DejaVuSans-65" transform="translate(665.298828 0)"/>
     <use xlink:href="#DejaVuSans-73" transform="translate(726.822266 0)"/>
     <use xlink:href="#DejaVuSans-73" transform="translate(778.921875 0)"/>
    </g>
   </g>
  </g>
  <g id="axes_3">
   <g id="patch_13">
    <path d="M 397.400895 299.528 
L 550 299.528 
L 550 81.76 
L 397.400895 81.76 
z
" style="fill: #ffffff"/>
   </g>
   <g id="matplotlib.axis_5">
    <g id="xtick_9">
     <g id="line2d_89">
      <g>
       <use xlink:href="#mbc5ac89f51" x="427.458294" y="299.528" style="stroke: #000000; stroke-width: 0.8"/>
      </g>
     </g>
     <g id="text_21">
      <!-- $\mathdefault{2^{9}}$ -->
      <g transform="translate(421.858294 314.126438) scale(0.1 -0.1)">
       <use xlink:href="#DejaVuSans-32" transform="translate(0 0.765625)"/>
       <use xlink:href="#DejaVuSans-39" transform="translate(64.580078 39.046875) scale(0.7)"/>
      </g>
     </g>
    </g>
    <g id="xtick_10">
     <g id="line2d_90">
      <g>
       <use xlink:href="#mbc5ac89f51" x="462.139909" y="299.528" style="stroke: #000000; stroke-width: 0.8"/>
      </g>
     </g>
     <g id="text_22">
      <!-- $\mathdefault{2^{15}}$ -->
      <g transform="translate(454.289909 314.126438) scale(0.1 -0.1)">
       <use xlink:href="#DejaVuSans-32" transform="translate(0 0.684375)"/>
       <use xlink:href="#DejaVuSans-31" transform="translate(64.580078 38.965625) scale(0.7)"/>
       <use xlink:href="#DejaVuSans-35" transform="translate(109.116211 38.965625) scale(0.7)"/>
      </g>
     </g>
    </g>
    <g id="xtick_11">
     <g id="line2d_91">
      <g>
       <use xlink:href="#mbc5ac89f51" x="496.821524" y="299.528" style="stroke: #000000; stroke-width: 0.8"/>
      </g>
     </g>
     <g id="text_23">
      <!-- $\mathdefault{2^{21}}$ -->
      <g transform="translate(488.971524 314.126438) scale(0.1 -0.1)">
       <use xlink:href="#DejaVuSans-32" transform="translate(0 0.765625)"/>
       <use xlink:href="#DejaVuSans-32" transform="translate(64.580078 39.046875) scale(0.7)"/>
       <use xlink:href="#DejaVuSans-31" transform="translate(109.116211 39.046875) scale(0.7)"/>
      </g>
     </g>
    </g>
    <g id="xtick_12">
     <g id="line2d_92">
      <g>
       <use xlink:href="#mbc5ac89f51" x="531.503139" y="299.528" style="stroke: #000000; stroke-width: 0.8"/>
      </g>
     </g>
     <g id="text_24">
      <!-- $\mathdefault{2^{27}}$ -->
      <g transform="translate(523.653139 314.126438) scale(0.1 -0.1)">
       <use xlink:href="#DejaVuSans-32" transform="translate(0 0.765625)"/>
       <use xlink:href="#DejaVuSans-32" transform="translate(64.580078 39.046875) scale(0.7)"/>
       <use xlink:href="#DejaVuSans-37" transform="translate(109.116211 39.046875) scale(0.7)"/>
      </g>
     </g>
    </g>
    <g id="text_25">
     <!-- N -->
     <g transform="translate(469.959822 327.804562) scale(0.1 -0.1)">
      <use xlink:href="#DejaVuSans-4e"/>
     </g>
    </g>
   </g>
   <g id="matplotlib.axis_6">
    <g id="ytick_63">
     <g id="line2d_93">
      <path d="M 397.400895 257.272712 
L 550 257.272712 
" clip-path="url(#pf4898c3c5a)" style="fill: none; stroke: #b0b0b0; stroke-width: 0.8; stroke-linecap: square"/>
     </g>
     <g id="line2d_94">
      <g>
       <use xlink:href="#m2026b9c9eb" x="397.400895" y="257.272712" style="stroke: #000000; stroke-width: 0.8"/>
      </g>
     </g>
    </g>
    <g id="ytick_64">
     <g id="line2d_95">
      <path d="M 397.400895 195.384194 
L 550 195.384194 
" clip-path="url(#pf4898c3c5a)" style="fill: none; stroke: #b0b0b0; stroke-width: 0.8; stroke-linecap: square"/>
     </g>
     <g id="line2d_96">
      <g>
       <use xlink:href="#m2026b9c9eb" x="397.400895" y="195.384194" style="stroke: #000000; stroke-width: 0.8"/>
      </g>
     </g>
    </g>
    <g id="ytick_65">
     <g id="line2d_97">
      <path d="M 397.400895 133.495676 
L 550 133.495676 
" clip-path="url(#pf4898c3c5a)" style="fill: none; stroke: #b0b0b0; stroke-width: 0.8; stroke-linecap: square"/>
     </g>
     <g id="line2d_98">
      <g>
       <use xlink:href="#m2026b9c9eb" x="397.400895" y="133.495676" style="stroke: #000000; stroke-width: 0.8"/>
      </g>
     </g>
    </g>
    <g id="ytick_66">
     <g id="line2d_99">
      <g>
       <use xlink:href="#m328f4c81dd" x="397.400895" y="289.632902" style="stroke: #000000; stroke-width: 0.6"/>
      </g>
     </g>
    </g>
    <g id="ytick_67">
     <g id="line2d_100">
      <g>
       <use xlink:href="#m328f4c81dd" x="397.400895" y="281.900629" style="stroke: #000000; stroke-width: 0.6"/>
      </g>
     </g>
    </g>
    <g id="ytick_68">
     <g id="line2d_101">
      <g>
       <use xlink:href="#m328f4c81dd" x="397.400895" y="275.903012" style="stroke: #000000; stroke-width: 0.6"/>
      </g>
     </g>
    </g>
    <g id="ytick_69">
     <g id="line2d_102">
      <g>
       <use xlink:href="#m328f4c81dd" x="397.400895" y="271.002602" style="stroke: #000000; stroke-width: 0.6"/>
      </g>
     </g>
    </g>
    <g id="ytick_70">
     <g id="line2d_103">
      <g>
       <use xlink:href="#m328f4c81dd" x="397.400895" y="266.859364" style="stroke: #000000; stroke-width: 0.6"/>
      </g>
     </g>
    </g>
    <g id="ytick_71">
     <g id="line2d_104">
      <g>
       <use xlink:href="#m328f4c81dd" x="397.400895" y="263.270329" style="stroke: #000000; stroke-width: 0.6"/>
      </g>
     </g>
    </g>
    <g id="ytick_72">
     <g id="line2d_105">
      <g>
       <use xlink:href="#m328f4c81dd" x="397.400895" y="260.104575" style="stroke: #000000; stroke-width: 0.6"/>
      </g>
     </g>
    </g>
    <g id="ytick_73">
     <g id="line2d_106">
      <g>
       <use xlink:href="#m328f4c81dd" x="397.400895" y="238.642411" style="stroke: #000000; stroke-width: 0.6"/>
      </g>
     </g>
    </g>
    <g id="ytick_74">
     <g id="line2d_107">
      <g>
       <use xlink:href="#m328f4c81dd" x="397.400895" y="227.744384" style="stroke: #000000; stroke-width: 0.6"/>
      </g>
     </g>
    </g>
    <g id="ytick_75">
     <g id="line2d_108">
      <g>
       <use xlink:href="#m328f4c81dd" x="397.400895" y="220.012111" style="stroke: #000000; stroke-width: 0.6"/>
      </g>
     </g>
    </g>
    <g id="ytick_76">
     <g id="line2d_109">
      <g>
       <use xlink:href="#m328f4c81dd" x="397.400895" y="214.014494" style="stroke: #000000; stroke-width: 0.6"/>
      </g>
     </g>
    </g>
    <g id="ytick_77">
     <g id="line2d_110">
      <g>
       <use xlink:href="#m328f4c81dd" x="397.400895" y="209.114084" style="stroke: #000000; stroke-width: 0.6"/>
      </g>
     </g>
    </g>
    <g id="ytick_78">
     <g id="line2d_111">
      <g>
       <use xlink:href="#m328f4c81dd" x="397.400895" y="204.970847" style="stroke: #000000; stroke-width: 0.6"/>
      </g>
     </g>
    </g>
    <g id="ytick_79">
     <g id="line2d_112">
      <g>
       <use xlink:href="#m328f4c81dd" x="397.400895" y="201.381811" style="stroke: #000000; stroke-width: 0.6"/>
      </g>
     </g>
    </g>
    <g id="ytick_80">
     <g id="line2d_113">
      <g>
       <use xlink:href="#m328f4c81dd" x="397.400895" y="198.216057" style="stroke: #000000; stroke-width: 0.6"/>
      </g>
     </g>
    </g>
    <g id="ytick_81">
     <g id="line2d_114">
      <g>
       <use xlink:href="#m328f4c81dd" x="397.400895" y="176.753894" style="stroke: #000000; stroke-width: 0.6"/>
      </g>
     </g>
    </g>
    <g id="ytick_82">
     <g id="line2d_115">
      <g>
       <use xlink:href="#m328f4c81dd" x="397.400895" y="165.855867" style="stroke: #000000; stroke-width: 0.6"/>
      </g>
     </g>
    </g>
    <g id="ytick_83">
     <g id="line2d_116">
      <g>
       <use xlink:href="#m328f4c81dd" x="397.400895" y="158.123593" style="stroke: #000000; stroke-width: 0.6"/>
      </g>
     </g>
    </g>
    <g id="ytick_84">
     <g id="line2d_117">
      <g>
       <use xlink:href="#m328f4c81dd" x="397.400895" y="152.125976" style="stroke: #000000; stroke-width: 0.6"/>
      </g>
     </g>
    </g>
    <g id="ytick_85">
     <g id="line2d_118">
      <g>
       <use xlink:href="#m328f4c81dd" x="397.400895" y="147.225566" style="stroke: #000000; stroke-width: 0.6"/>
      </g>
     </g>
    </g>
    <g id="ytick_86">
     <g id="line2d_119">
      <g>
       <use xlink:href="#m328f4c81dd" x="397.400895" y="143.082329" style="stroke: #000000; stroke-width: 0.6"/>
      </g>
     </g>
    </g>
    <g id="ytick_87">
     <g id="line2d_120">
      <g>
       <use xlink:href="#m328f4c81dd" x="397.400895" y="139.493293" style="stroke: #000000; stroke-width: 0.6"/>
      </g>
     </g>
    </g>
    <g id="ytick_88">
     <g id="line2d_121">
      <g>
       <use xlink:href="#m328f4c81dd" x="397.400895" y="136.327539" style="stroke: #000000; stroke-width: 0.6"/>
      </g>
     </g>
    </g>
    <g id="ytick_89">
     <g id="line2d_122">
      <g>
       <use xlink:href="#m328f4c81dd" x="397.400895" y="114.865376" style="stroke: #000000; stroke-width: 0.6"/>
      </g>
     </g>
    </g>
    <g id="ytick_90">
     <g id="line2d_123">
      <g>
       <use xlink:href="#m328f4c81dd" x="397.400895" y="103.967349" style="stroke: #000000; stroke-width: 0.6"/>
      </g>
     </g>
    </g>
    <g id="ytick_91">
     <g id="line2d_124">
      <g>
       <use xlink:href="#m328f4c81dd" x="397.400895" y="96.235076" style="stroke: #000000; stroke-width: 0.6"/>
      </g>
     </g>
    </g>
    <g id="ytick_92">
     <g id="line2d_125">
      <g>
       <use xlink:href="#m328f4c81dd" x="397.400895" y="90.237459" style="stroke: #000000; stroke-width: 0.6"/>
      </g>
     </g>
    </g>
    <g id="ytick_93">
     <g id="line2d_126">
      <g>
       <use xlink:href="#m328f4c81dd" x="397.400895" y="85.337049" style="stroke: #000000; stroke-width: 0.6"/>
      </g>
     </g>
    </g>
   </g>
   <g id="line2d_127">
    <path d="M 404.337218 270.998882 
L 410.117487 270.998905 
L 413.498728 270.998928 
L 415.897756 270.998932 
L 417.758587 270.998962 
L 419.278997 270.998998 
L 420.564485 270.998873 
L 421.678025 270.998966 
L 422.660238 270.998934 
L 423.538856 270.998965 
L 424.333664 270.998967 
L 425.059266 270.998925 
L 425.726755 270.998804 
L 426.344754 270.998777 
L 426.920097 270.998957 
L 427.458294 270.998158 
L 427.963853 270.99896 
L 428.440507 270.998906 
L 428.891382 270.994646 
L 429.319125 270.998592 
L 429.725995 270.998851 
L 430.113933 270.998697 
L 430.484623 270.998969 
L 430.839535 270.99877 
L 431.179956 270.930648 
L 431.507024 270.873551 
L 431.821747 270.873893 
L 432.125023 270.930734 
L 432.417655 270.930712 
L 432.700366 270.931251 
L 432.973806 270.930083 
L 433.238564 270.930776 
L 439.018833 270.930974 
L 444.799102 270.930369 
L 450.579371 270.929234 
L 456.35964 270.929734 
L 462.139909 270.931352 
L 467.920178 270.932887 
L 473.700447 270.932214 
L 479.480717 270.931228 
L 485.260986 270.930221 
L 491.041255 270.931351 
L 496.821524 270.930036 
L 502.601793 270.931509 
L 508.382062 270.930369 
L 514.162331 270.929613 
L 519.942601 270.930706 
L 525.72287 270.929334 
L 531.503139 270.932037 
L 537.283408 270.929485 
L 543.063677 270.998705 
" clip-path="url(#pf4898c3c5a)" style="fill: none; stroke: #1f77b4; stroke-width: 1.5; stroke-linecap: square"/>
   </g>
   <g id="line2d_128">
    <path d="M 404.337218 243.860003 
L 410.117487 235.754227 
L 413.498728 235.532291 
L 415.897756 228.356546 
L 417.758587 226.211462 
L 419.278997 228.018441 
L 420.564485 223.743937 
L 421.678025 224.157662 
L 422.660238 223.544386 
L 423.538856 221.336888 
L 424.333664 227.207399 
L 425.059266 221.325493 
L 425.726755 220.144795 
L 426.344754 219.616279 
L 426.920097 219.804522 
L 427.458294 221.277654 
L 427.963853 218.628184 
L 428.440507 218.281799 
L 428.891382 217.849405 
L 429.319125 217.894275 
L 429.725995 217.788946 
L 430.113933 220.02922 
L 430.484623 217.2228 
L 430.839535 217.966625 
L 431.179956 216.797649 
L 431.507024 216.567193 
L 431.821747 216.469031 
L 432.125023 216.327267 
L 432.417655 216.166432 
L 432.700366 216.25977 
L 432.973806 221.047437 
L 433.238564 218.69309 
L 439.018833 201.110102 
L 444.799102 179.801578 
L 450.579371 175.887993 
L 456.35964 172.598963 
L 462.139909 161.880782 
L 467.920178 157.00315 
L 473.700447 152.48987 
L 479.480717 148.880088 
L 485.260986 143.397168 
L 491.041255 141.069219 
L 496.821524 136.622277 
L 502.601793 133.344489 
L 508.382062 129.444381 
L 514.162331 120.111423 
L 519.942601 108.57369 
L 525.72287 100.411584 
L 531.503139 97.97938 
L 537.283408 99.355385 
L 543.063677 97.675065 
" clip-path="url(#pf4898c3c5a)" style="fill: none; stroke: #ff7f0e; stroke-width: 1.5; stroke-linecap: square"/>
   </g>
   <g id="line2d_129">
    <path d="M 404.337218 243.609048 
L 410.117487 238.953158 
L 413.498728 237.626251 
L 415.897756 226.613833 
L 417.758587 223.585126 
L 419.278997 229.584618 
L 420.564485 222.272929 
L 421.678025 223.998381 
L 422.660238 223.864927 
L 423.538856 220.74562 
L 424.333664 234.039375 
L 425.059266 221.708048 
L 425.726755 220.299796 
L 426.344754 219.931974 
L 426.920097 220.097979 
L 427.458294 222.567812 
L 427.963853 219.292826 
L 428.440507 219.681388 
L 428.891382 218.526718 
L 429.319125 218.749825 
L 429.725995 218.965803 
L 430.113933 224.005083 
L 430.484623 218.210072 
L 430.839535 219.132626 
L 431.179956 218.147034 
L 431.507024 218.008593 
L 431.821747 217.779375 
L 432.125023 217.9946 
L 432.417655 217.60478 
L 432.700366 217.864673 
L 432.973806 231.446623 
L 433.238564 221.88726 
L 439.018833 216.081039 
L 444.799102 184.2122 
L 450.579371 176.987537 
L 456.35964 165.298559 
L 462.139909 157.176609 
L 467.920178 152.30237 
L 473.700447 147.94074 
L 479.480717 142.730354 
L 485.260986 137.456093 
L 491.041255 132.486538 
L 496.821524 126.825359 
L 502.601793 124.269517 
L 508.382062 109.043442 
L 514.162331 105.148752 
L 519.942601 96.603849 
L 525.72287 92.73867 
L 531.503139 92.141157 
L 537.283408 91.658545 
L 543.063677 91.753848 
" clip-path="url(#pf4898c3c5a)" style="fill: none; stroke: #2ca02c; stroke-width: 1.5; stroke-linecap: square"/>
   </g>
   <g id="line2d_130">
    <path d="M 404.337218 270.998902 
L 410.117487 270.998818 
L 413.498728 270.998906 
L 415.897756 270.998973 
L 417.758587 270.996108 
L 419.278997 270.9989 
L 420.564485 270.998897 
L 421.678025 270.998795 
L 422.660238 270.998908 
L 423.538856 270.998931 
L 424.333664 270.998971 
L 425.059266 270.998866 
L 425.726755 270.998863 
L 426.344754 270.998763 
L 426.920097 270.998931 
L 427.458294 270.998875 
L 427.963853 270.998954 
L 428.440507 270.998733 
L 428.891382 270.998833 
L 429.319125 270.99881 
L 429.725995 270.998861 
L 430.113933 270.998883 
L 430.484623 270.881252 
L 430.839535 270.899889 
L 431.179956 270.926921 
L 431.507024 270.8896 
L 431.821747 270.893416 
L 432.125023 270.900997 
L 432.417655 270.873261 
L 432.700366 270.872937 
L 432.973806 270.876701 
L 433.238564 270.902295 
L 439.018833 270.998814 
L 444.799102 270.998944 
L 450.579371 270.998873 
L 456.35964 270.998868 
L 462.139909 270.998522 
L 467.920178 270.998858 
L 473.700447 270.997993 
L 479.480717 270.998102 
L 485.260986 270.998705 
L 491.041255 270.998854 
L 496.821524 270.998356 
L 502.601793 270.998273 
L 508.382062 270.99782 
L 514.162331 270.998487 
L 519.942601 270.99867 
L 525.72287 270.998521 
L 531.503139 270.998803 
L 537.283408 270.998774 
L 543.063677 270.998834 
" clip-path="url(#pf4898c3c5a)" style="fill: none; stroke: #d62728; stroke-width: 1.5; stroke-linecap: square"/>
   </g>
   <g id="patch_14">
    <path d="M 397.400895 299.528 
L 397.400895 81.76 
" style="fill: none; stroke: #000000; stroke-width: 0.8; stroke-linejoin: miter; stroke-linecap: square"/>
   </g>
   <g id="patch_15">
    <path d="M 550 299.528 
L 550 81.76 
" style="fill: none; stroke: #000000; stroke-width: 0.8; stroke-linejoin: miter; stroke-linecap: square"/>
   </g>
   <g id="patch_16">
    <path d="M 397.400895 299.528 
L 550 299.528 
" style="fill: none; stroke: #000000; stroke-width: 0.8; stroke-linejoin: miter; stroke-linecap: square"/>
   </g>
   <g id="patch_17">
    <path d="M 397.400895 81.76 
L 550 81.76 
" style="fill: none; stroke: #000000; stroke-width: 0.8; stroke-linejoin: miter; stroke-linecap: square"/>
   </g>
   <g id="text_26">
    <!-- RandomAccess -->
    <g transform="translate(428.321697 75.76) scale(0.12 -0.12)">
     <defs>
      <path id="DejaVuSans-52" d="M 2841 2188 
Q 3044 2119 3236 1894 
Q 3428 1669 3622 1275 
L 4263 0 
L 3584 0 
L 2988 1197 
Q 2756 1666 2539 1819 
Q 2322 1972 1947 1972 
L 1259 1972 
L 1259 0 
L 628 0 
L 628 4666 
L 2053 4666 
Q 2853 4666 3247 4331 
Q 3641 3997 3641 3322 
Q 3641 2881 3436 2590 
Q 3231 2300 2841 2188 
z
M 1259 4147 
L 1259 2491 
L 2053 2491 
Q 2509 2491 2742 2702 
Q 2975 2913 2975 3322 
Q 2975 3731 2742 3939 
Q 2509 4147 2053 4147 
L 1259 4147 
z
" transform="scale(0.015625)"/>
      <path id="DejaVuSans-6e" d="M 3513 2113 
L 3513 0 
L 2938 0 
L 2938 2094 
Q 2938 2591 2744 2837 
Q 2550 3084 2163 3084 
Q 1697 3084 1428 2787 
Q 1159 2491 1159 1978 
L 1159 0 
L 581 0 
L 581 3500 
L 1159 3500 
L 1159 2956 
Q 1366 3272 1645 3428 
Q 1925 3584 2291 3584 
Q 2894 3584 3203 3211 
Q 3513 2838 3513 2113 
z
" transform="scale(0.015625)"/>
      <path id="DejaVuSans-6d" d="M 3328 2828 
Q 3544 3216 3844 3400 
Q 4144 3584 4550 3584 
Q 5097 3584 5394 3201 
Q 5691 2819 5691 2113 
L 5691 0 
L 5113 0 
L 5113 2094 
Q 5113 2597 4934 2840 
Q 4756 3084 4391 3084 
Q 3944 3084 3684 2787 
Q 3425 2491 3425 1978 
L 3425 0 
L 2847 0 
L 2847 2094 
Q 2847 2600 2669 2842 
Q 2491 3084 2119 3084 
Q 1678 3084 1418 2786 
Q 1159 2488 1159 1978 
L 1159 0 
L 581 0 
L 581 3500 
L 1159 3500 
L 1159 2956 
Q 1356 3278 1631 3431 
Q 1906 3584 2284 3584 
Q 2666 3584 2933 3390 
Q 3200 3197 3328 2828 
z
" transform="scale(0.015625)"/>
     </defs>
     <use xlink:href="#DejaVuSans-52"/>
     <use xlink:href="#DejaVuSans-61" transform="translate(67.232422 0)"/>
     <use xlink:href="#DejaVuSans-6e" transform="translate(128.511719 0)"/>
     <use xlink:href="#DejaVuSans-64" transform="translate(191.890625 0)"/>
     <use xlink:href="#DejaVuSans-6f" transform="translate(255.367188 0)"/>
     <use xlink:href="#DejaVuSans-6d" transform="translate(316.548828 0)"/>
     <use xlink:href="#DejaVuSans-41" transform="translate(413.960938 0)"/>
     <use xlink:href="#DejaVuSans-63" transform="translate(480.619141 0)"/>
     <use xlink:href="#DejaVuSans-63" transform="translate(535.599609 0)"/>
     <use xlink:href="#DejaVuSans-65" transform="translate(590.580078 0)"/>
     <use xlink:href="#DejaVuSans-73" transform="translate(652.103516 0)"/>
     <use xlink:href="#DejaVuSans-73" transform="translate(704.203125 0)"/>
    </g>
   </g>
  </g>
  <g id="text_27">
   <!-- Data Struct access time -->
   <g transform="translate(191.187 18.14175) scale(0.144 -0.144)">
    <defs>
     <path id="DejaVuSans-Bold-44" d="M 1791 3756 
L 1791 909 
L 2222 909 
Q 2959 909 3348 1275 
Q 3738 1641 3738 2338 
Q 3738 3031 3350 3393 
Q 2963 3756 2222 3756 
L 1791 3756 
z
M 588 4666 
L 1856 4666 
Q 2919 4666 3439 4514 
Q 3959 4363 4331 4000 
Q 4659 3684 4818 3271 
Q 4978 2859 4978 2338 
Q 4978 1809 4818 1395 
Q 4659 981 4331 666 
Q 3956 303 3431 151 
Q 2906 0 1856 0 
L 588 0 
L 588 4666 
z
" transform="scale(0.015625)"/>
     <path id="DejaVuSans-Bold-61" d="M 2106 1575 
Q 1756 1575 1579 1456 
Q 1403 1338 1403 1106 
Q 1403 894 1545 773 
Q 1688 653 1941 653 
Q 2256 653 2472 879 
Q 2688 1106 2688 1447 
L 2688 1575 
L 2106 1575 
z
M 3816 1997 
L 3816 0 
L 2688 0 
L 2688 519 
Q 2463 200 2181 54 
Q 1900 -91 1497 -91 
Q 953 -91 614 226 
Q 275 544 275 1050 
Q 275 1666 698 1953 
Q 1122 2241 2028 2241 
L 2688 2241 
L 2688 2328 
Q 2688 2594 2478 2717 
Q 2269 2841 1825 2841 
Q 1466 2841 1156 2769 
Q 847 2697 581 2553 
L 581 3406 
Q 941 3494 1303 3539 
Q 1666 3584 2028 3584 
Q 2975 3584 3395 3211 
Q 3816 2838 3816 1997 
z
" transform="scale(0.015625)"/>
     <path id="DejaVuSans-Bold-74" d="M 1759 4494 
L 1759 3500 
L 2913 3500 
L 2913 2700 
L 1759 2700 
L 1759 1216 
Q 1759 972 1856 886 
Q 1953 800 2241 800 
L 2816 800 
L 2816 0 
L 1856 0 
Q 1194 0 917 276 
Q 641 553 641 1216 
L 641 2700 
L 84 2700 
L 84 3500 
L 641 3500 
L 641 4494 
L 1759 4494 
z
" transform="scale(0.015625)"/>
     <path id="DejaVuSans-Bold-20" transform="scale(0.015625)"/>
     <path id="DejaVuSans-Bold-53" d="M 3834 4519 
L 3834 3531 
Q 3450 3703 3084 3790 
Q 2719 3878 2394 3878 
Q 1963 3878 1756 3759 
Q 1550 3641 1550 3391 
Q 1550 3203 1689 3098 
Q 1828 2994 2194 2919 
L 2706 2816 
Q 3484 2659 3812 2340 
Q 4141 2022 4141 1434 
Q 4141 663 3683 286 
Q 3225 -91 2284 -91 
Q 1841 -91 1394 -6 
Q 947 78 500 244 
L 500 1259 
Q 947 1022 1364 901 
Q 1781 781 2169 781 
Q 2563 781 2772 912 
Q 2981 1044 2981 1288 
Q 2981 1506 2839 1625 
Q 2697 1744 2272 1838 
L 1806 1941 
Q 1106 2091 782 2419 
Q 459 2747 459 3303 
Q 459 4000 909 4375 
Q 1359 4750 2203 4750 
Q 2588 4750 2994 4692 
Q 3400 4634 3834 4519 
z
" transform="scale(0.015625)"/>
     <path id="DejaVuSans-Bold-72" d="M 3138 2547 
Q 2991 2616 2845 2648 
Q 2700 2681 2553 2681 
Q 2122 2681 1889 2404 
Q 1656 2128 1656 1613 
L 1656 0 
L 538 0 
L 538 3500 
L 1656 3500 
L 1656 2925 
Q 1872 3269 2151 3426 
Q 2431 3584 2822 3584 
Q 2878 3584 2943 3579 
Q 3009 3575 3134 3559 
L 3138 2547 
z
" transform="scale(0.015625)"/>
     <path id="DejaVuSans-Bold-75" d="M 500 1363 
L 500 3500 
L 1625 3500 
L 1625 3150 
Q 1625 2866 1622 2436 
Q 1619 2006 1619 1863 
Q 1619 1441 1641 1255 
Q 1663 1069 1716 984 
Q 1784 875 1895 815 
Q 2006 756 2150 756 
Q 2500 756 2700 1025 
Q 2900 1294 2900 1772 
L 2900 3500 
L 4019 3500 
L 4019 0 
L 2900 0 
L 2900 506 
Q 2647 200 2364 54 
Q 2081 -91 1741 -91 
Q 1134 -91 817 281 
Q 500 653 500 1363 
z
" transform="scale(0.015625)"/>
     <path id="DejaVuSans-Bold-63" d="M 3366 3391 
L 3366 2478 
Q 3138 2634 2908 2709 
Q 2678 2784 2431 2784 
Q 1963 2784 1702 2511 
Q 1441 2238 1441 1747 
Q 1441 1256 1702 982 
Q 1963 709 2431 709 
Q 2694 709 2930 787 
Q 3166 866 3366 1019 
L 3366 103 
Q 3103 6 2833 -42 
Q 2563 -91 2291 -91 
Q 1344 -91 809 395 
Q 275 881 275 1747 
Q 275 2613 809 3098 
Q 1344 3584 2291 3584 
Q 2566 3584 2833 3536 
Q 3100 3488 3366 3391 
z
" transform="scale(0.015625)"/>
     <path id="DejaVuSans-Bold-65" d="M 4031 1759 
L 4031 1441 
L 1416 1441 
Q 1456 1047 1700 850 
Q 1944 653 2381 653 
Q 2734 653 3104 758 
Q 3475 863 3866 1075 
L 3866 213 
Q 3469 63 3072 -14 
Q 2675 -91 2278 -91 
Q 1328 -91 801 392 
Q 275 875 275 1747 
Q 275 2603 792 3093 
Q 1309 3584 2216 3584 
Q 3041 3584 3536 3087 
Q 4031 2591 4031 1759 
z
M 2881 2131 
Q 2881 2450 2695 2645 
Q 2509 2841 2209 2841 
Q 1884 2841 1681 2658 
Q 1478 2475 1428 2131 
L 2881 2131 
z
" transform="scale(0.015625)"/>
     <path id="DejaVuSans-Bold-73" d="M 3272 3391 
L 3272 2541 
Q 2913 2691 2578 2766 
Q 2244 2841 1947 2841 
Q 1628 2841 1473 2761 
Q 1319 2681 1319 2516 
Q 1319 2381 1436 2309 
Q 1553 2238 1856 2203 
L 2053 2175 
Q 2913 2066 3209 1816 
Q 3506 1566 3506 1031 
Q 3506 472 3093 190 
Q 2681 -91 1863 -91 
Q 1516 -91 1145 -36 
Q 775 19 384 128 
L 384 978 
Q 719 816 1070 734 
Q 1422 653 1784 653 
Q 2113 653 2278 743 
Q 2444 834 2444 1013 
Q 2444 1163 2330 1236 
Q 2216 1309 1875 1350 
L 1678 1375 
Q 931 1469 631 1722 
Q 331 1975 331 2491 
Q 331 3047 712 3315 
Q 1094 3584 1881 3584 
Q 2191 3584 2531 3537 
Q 2872 3491 3272 3391 
z
" transform="scale(0.015625)"/>
     <path id="DejaVuSans-Bold-69" d="M 538 3500 
L 1656 3500 
L 1656 0 
L 538 0 
L 538 3500 
z
M 538 4863 
L 1656 4863 
L 1656 3950 
L 538 3950 
L 538 4863 
z
" transform="scale(0.015625)"/>
     <path id="DejaVuSans-Bold-6d" d="M 3781 2919 
Q 3994 3244 4286 3414 
Q 4578 3584 4928 3584 
Q 5531 3584 5847 3212 
Q 6163 2841 6163 2131 
L 6163 0 
L 5038 0 
L 5038 1825 
Q 5041 1866 5042 1909 
Q 5044 1953 5044 2034 
Q 5044 2406 4934 2573 
Q 4825 2741 4581 2741 
Q 4263 2741 4089 2478 
Q 3916 2216 3909 1719 
L 3909 0 
L 2784 0 
L 2784 1825 
Q 2784 2406 2684 2573 
Q 2584 2741 2328 2741 
Q 2006 2741 1831 2477 
Q 1656 2213 1656 1722 
L 1656 0 
L 531 0 
L 531 3500 
L 1656 3500 
L 1656 2988 
Q 1863 3284 2130 3434 
Q 2397 3584 2719 3584 
Q 3081 3584 3359 3409 
Q 3638 3234 3781 2919 
z
" transform="scale(0.015625)"/>
    </defs>
    <use xlink:href="#DejaVuSans-Bold-44"/>
    <use xlink:href="#DejaVuSans-Bold-61" transform="translate(83.007812 0)"/>
    <use xlink:href="#DejaVuSans-Bold-74" transform="translate(150.488281 0)"/>
    <use xlink:href="#DejaVuSans-Bold-61" transform="translate(198.291016 0)"/>
    <use xlink:href="#DejaVuSans-Bold-20" transform="translate(265.771484 0)"/>
    <use xlink:href="#DejaVuSans-Bold-53" transform="translate(300.585938 0)"/>
    <use xlink:href="#DejaVuSans-Bold-74" transform="translate(372.607422 0)"/>
    <use xlink:href="#DejaVuSans-Bold-72" transform="translate(420.410156 0)"/>
    <use xlink:href="#DejaVuSans-Bold-75" transform="translate(469.726562 0)"/>
    <use xlink:href="#DejaVuSans-Bold-63" transform="translate(540.917969 0)"/>
    <use xlink:href="#DejaVuSans-Bold-74" transform="translate(600.195312 0)"/>
    <use xlink:href="#DejaVuSans-Bold-20" transform="translate(647.998047 0)"/>
    <use xlink:href="#DejaVuSans-Bold-61" transform="translate(682.8125 0)"/>
    <use xlink:href="#DejaVuSans-Bold-63" transform="translate(750.292969 0)"/>
    <use xlink:href="#DejaVuSans-Bold-63" transform="translate(809.570312 0)"/>
    <use xlink:href="#DejaVuSans-Bold-65" transform="translate(868.847656 0)"/>
    <use xlink:href="#DejaVuSans-Bold-73" transform="translate(936.669922 0)"/>
    <use xlink:href="#DejaVuSans-Bold-73" transform="translate(996.191406 0)"/>
    <use xlink:href="#DejaVuSans-Bold-20" transform="translate(1055.712891 0)"/>
    <use xlink:href="#DejaVuSans-Bold-74" transform="translate(1090.527344 0)"/>
    <use xlink:href="#DejaVuSans-Bold-69" transform="translate(1138.330078 0)"/>
    <use xlink:href="#DejaVuSans-Bold-6d" transform="translate(1172.607422 0)"/>
    <use xlink:href="#DejaVuSans-Bold-65" transform="translate(1276.806641 0)"/>
   </g>
  </g>
  <g id="text_28">
   <!-- CPU cycles - loglog scale -->
   <g style="fill: #808080" transform="translate(201.224063 35.837812) scale(0.14 -0.14)">
    <defs>
     <path id="DejaVuSans-2d" d="M 313 2009 
L 1997 2009 
L 1997 1497 
L 313 1497 
L 313 2009 
z
" transform="scale(0.015625)"/>
     <path id="DejaVuSans-67" d="M 2906 1791 
Q 2906 2416 2648 2759 
Q 2391 3103 1925 3103 
Q 1463 3103 1205 2759 
Q 947 2416 947 1791 
Q 947 1169 1205 825 
Q 1463 481 1925 481 
Q 2391 481 2648 825 
Q 2906 1169 2906 1791 
z
M 3481 434 
Q 3481 -459 3084 -895 
Q 2688 -1331 1869 -1331 
Q 1566 -1331 1297 -1286 
Q 1028 -1241 775 -1147 
L 775 -588 
Q 1028 -725 1275 -790 
Q 1522 -856 1778 -856 
Q 2344 -856 2625 -561 
Q 2906 -266 2906 331 
L 2906 616 
Q 2728 306 2450 153 
Q 2172 0 1784 0 
Q 1141 0 747 490 
Q 353 981 353 1791 
Q 353 2603 747 3093 
Q 1141 3584 1784 3584 
Q 2172 3584 2450 3431 
Q 2728 3278 2906 2969 
L 2906 3500 
L 3481 3500 
L 3481 434 
z
" transform="scale(0.015625)"/>
    </defs>
    <use xlink:href="#DejaVuSans-43"/>
    <use xlink:href="#DejaVuSans-50" transform="translate(69.824219 0)"/>
    <use xlink:href="#DejaVuSans-55" transform="translate(130.126953 0)"/>
    <use xlink:href="#DejaVuSans-20" transform="translate(203.320312 0)"/>
    <use xlink:href="#DejaVuSans-63" transform="translate(235.107422 0)"/>
    <use xlink:href="#DejaVuSans-79" transform="translate(290.087891 0)"/>
    <use xlink:href="#DejaVuSans-63" transform="translate(349.267578 0)"/>
    <use xlink:href="#DejaVuSans-6c" transform="translate(404.248047 0)"/>
    <use xlink:href="#DejaVuSans-65" transform="translate(432.03125 0)"/>
    <use xlink:href="#DejaVuSans-73" transform="translate(493.554688 0)"/>
    <use xlink:href="#DejaVuSans-20" transform="translate(545.654297 0)"/>
    <use xlink:href="#DejaVuSans-2d" transform="translate(577.441406 0)"/>
    <use xlink:href="#DejaVuSans-20" transform="translate(613.525391 0)"/>
    <use xlink:href="#DejaVuSans-6c" transform="translate(645.3125 0)"/>
    <use xlink:href="#DejaVuSans-6f" transform="translate(673.095703 0)"/>
    <use xlink:href="#DejaVuSans-67" transform="translate(734.277344 0)"/>
    <use xlink:href="#DejaVuSans-6c" transform="translate(797.753906 0)"/>
    <use xlink:href="#DejaVuSans-6f" transform="translate(825.537109 0)"/>
    <use xlink:href="#DejaVuSans-67" transform="translate(886.71875 0)"/>
    <use xlink:href="#DejaVuSans-20" transform="translate(950.195312 0)"/>
    <use xlink:href="#DejaVuSans-73" transform="translate(981.982422 0)"/>
    <use xlink:href="#DejaVuSans-63" transform="translate(1034.082031 0)"/>
    <use xlink:href="#DejaVuSans-61" transform="translate(1089.0625 0)"/>
    <use xlink:href="#DejaVuSans-6c" transform="translate(1150.341797 0)"/>
    <use xlink:href="#DejaVuSans-65" transform="translate(1178.125 0)"/>
   </g>
  </g>
 </g>
 <defs>
  <clipPath id="p85843983bc">
   <rect x="65.202685" y="81.76" width="152.599105" height="217.768"/>
  </clipPath>
  <clipPath id="p9f1f69a54d">
   <rect x="231.30179" y="81.76" width="152.599105" height="217.768"/>
  </clipPath>
  <clipPath id="pf4898c3c5a">
   <rect x="397.400895" y="81.76" width="152.599105" height="217.768"/>
  </clipPath>
 </defs>
</svg>
