<?xml version="1.0" encoding="utf-8" standalone="no"?>
<!DOCTYPE svg PUBLIC "-//W3C//DTD SVG 1.1//EN"
  "http://www.w3.org/Graphics/SVG/1.1/DTD/svg11.dtd">
<svg xmlns:xlink="http://www.w3.org/1999/xlink" width="576pt" height="360pt" viewBox="0 0 576 360" xmlns="http://www.w3.org/2000/svg" version="1.1">
 <metadata>
  <rdf:RDF xmlns:dc="http://purl.org/dc/elements/1.1/" xmlns:cc="http://creativecommons.org/ns#" xmlns:rdf="http://www.w3.org/1999/02/22-rdf-syntax-ns#">
   <cc:Work>
    <dc:type rdf:resource="http://purl.org/dc/dcmitype/StillImage"/>
    <dc:date>2025-06-01T21:35:28.668542</dc:date>
    <dc:format>image/svg+xml</dc:format>
    <dc:creator>
     <cc:Agent>
      <dc:title>Matplotlib v3.10.3, https://matplotlib.org/</dc:title>
     </cc:Agent>
    </dc:creator>
   </cc:Work>
  </rdf:RDF>
 </metadata>
 <defs>
  <style type="text/css">*{stroke-linejoin: round; stroke-linecap: butt}</style>
 </defs>
 <g id="figure_1">
  <g id="patch_1">
   <path d="M 0 360 
L 576 360 
L 576 0 
L 0 0 
z
" style="fill: #ffffff"/>
  </g>
  <g id="axes_1">
   <g id="patch_2">
    <path d="M 72.37 302.84 
L 222.58 302.84 
L 222.58 81.76 
L 72.37 81.76 
z
" style="fill: #ffffff"/>
   </g>
   <g id="matplotlib.axis_1">
    <g id="xtick_1">
     <g id="line2d_1">
      <defs>
       <path id="m4696bb65d0" d="M 0 0 
L 0 3.5 
" style="stroke: #000000; stroke-width: 0.8"/>
      </defs>
      <g>
       <use xlink:href="#m4696bb65d0" x="79.197719" y="302.84" style="stroke: #000000; stroke-width: 0.8"/>
      </g>
     </g>
     <g id="text_1">
      <!-- 0 -->
      <g transform="translate(76.016469 317.438438) scale(0.1 -0.1)">
       <defs>
        <path id="DejaVuSans-30" d="M 2034 4250 
Q 1547 4250 1301 3770 
Q 1056 3291 1056 2328 
Q 1056 1369 1301 889 
Q 1547 409 2034 409 
Q 2525 409 2770 889 
Q 3016 1369 3016 2328 
Q 3016 3291 2770 3770 
Q 2525 4250 2034 4250 
z
M 2034 4750 
Q 2819 4750 3233 4129 
Q 3647 3509 3647 2328 
Q 3647 1150 3233 529 
Q 2819 -91 2034 -91 
Q 1250 -91 836 529 
Q 422 1150 422 2328 
Q 422 3509 836 4129 
Q 1250 4750 2034 4750 
z
" transform="scale(0.015625)"/>
       </defs>
       <use xlink:href="#DejaVuSans-30"/>
      </g>
     </g>
    </g>
    <g id="xtick_2">
     <g id="line2d_2">
      <g>
       <use xlink:href="#m4696bb65d0" x="130.068255" y="302.84" style="stroke: #000000; stroke-width: 0.8"/>
      </g>
     </g>
     <g id="text_2">
      <!-- 2 -->
      <g transform="translate(126.887005 317.438438) scale(0.1 -0.1)">
       <defs>
        <path id="DejaVuSans-32" d="M 1228 531 
L 3431 531 
L 3431 0 
L 469 0 
L 469 531 
Q 828 903 1448 1529 
Q 2069 2156 2228 2338 
Q 2531 2678 2651 2914 
Q 2772 3150 2772 3378 
Q 2772 3750 2511 3984 
Q 2250 4219 1831 4219 
Q 1534 4219 1204 4116 
Q 875 4013 500 3803 
L 500 4441 
Q 881 4594 1212 4672 
Q 1544 4750 1819 4750 
Q 2544 4750 2975 4387 
Q 3406 4025 3406 3419 
Q 3406 3131 3298 2873 
Q 3191 2616 2906 2266 
Q 2828 2175 2409 1742 
Q 1991 1309 1228 531 
z
" transform="scale(0.015625)"/>
       </defs>
       <use xlink:href="#DejaVuSans-32"/>
      </g>
     </g>
    </g>
    <g id="xtick_3">
     <g id="line2d_3">
      <g>
       <use xlink:href="#m4696bb65d0" x="180.93879" y="302.84" style="stroke: #000000; stroke-width: 0.8"/>
      </g>
     </g>
     <g id="text_3">
      <!-- 4 -->
      <g transform="translate(177.75754 317.438438) scale(0.1 -0.1)">
       <defs>
        <path id="DejaVuSans-34" d="M 2419 4116 
L 825 1625 
L 2419 1625 
L 2419 4116 
z
M 2253 4666 
L 3047 4666 
L 3047 1625 
L 3713 1625 
L 3713 1100 
L 3047 1100 
L 3047 0 
L 2419 0 
L 2419 1100 
L 313 1100 
L 313 1709 
L 2253 4666 
z
" transform="scale(0.015625)"/>
       </defs>
       <use xlink:href="#DejaVuSans-34"/>
      </g>
     </g>
    </g>
    <g id="text_4">
     <!-- N -->
     <g transform="translate(143.734375 331.116562) scale(0.1 -0.1)">
      <defs>
       <path id="DejaVuSans-4e" d="M 628 4666 
L 1478 4666 
L 3547 763 
L 3547 4666 
L 4159 4666 
L 4159 0 
L 3309 0 
L 1241 3903 
L 1241 0 
L 628 0 
L 628 4666 
z
" transform="scale(0.015625)"/>
      </defs>
      <use xlink:href="#DejaVuSans-4e"/>
     </g>
    </g>
    <g id="text_5">
     <!-- 1e8 -->
     <g transform="translate(203.701875 330.116562) scale(0.1 -0.1)">
      <defs>
       <path id="DejaVuSans-31" d="M 794 531 
L 1825 531 
L 1825 4091 
L 703 3866 
L 703 4441 
L 1819 4666 
L 2450 4666 
L 2450 531 
L 3481 531 
L 3481 0 
L 794 0 
L 794 531 
z
" transform="scale(0.015625)"/>
       <path id="DejaVuSans-65" d="M 3597 1894 
L 3597 1613 
L 953 1613 
Q 991 1019 1311 708 
Q 1631 397 2203 397 
Q 2534 397 2845 478 
Q 3156 559 3463 722 
L 3463 178 
Q 3153 47 2828 -22 
Q 2503 -91 2169 -91 
Q 1331 -91 842 396 
Q 353 884 353 1716 
Q 353 2575 817 3079 
Q 1281 3584 2069 3584 
Q 2775 3584 3186 3129 
Q 3597 2675 3597 1894 
z
M 3022 2063 
Q 3016 2534 2758 2815 
Q 2500 3097 2075 3097 
Q 1594 3097 1305 2825 
Q 1016 2553 972 2059 
L 3022 2063 
z
" transform="scale(0.015625)"/>
       <path id="DejaVuSans-38" d="M 2034 2216 
Q 1584 2216 1326 1975 
Q 1069 1734 1069 1313 
Q 1069 891 1326 650 
Q 1584 409 2034 409 
Q 2484 409 2743 651 
Q 3003 894 3003 1313 
Q 3003 1734 2745 1975 
Q 2488 2216 2034 2216 
z
M 1403 2484 
Q 997 2584 770 2862 
Q 544 3141 544 3541 
Q 544 4100 942 4425 
Q 1341 4750 2034 4750 
Q 2731 4750 3128 4425 
Q 3525 4100 3525 3541 
Q 3525 3141 3298 2862 
Q 3072 2584 2669 2484 
Q 3125 2378 3379 2068 
Q 3634 1759 3634 1313 
Q 3634 634 3220 271 
Q 2806 -91 2034 -91 
Q 1263 -91 848 271 
Q 434 634 434 1313 
Q 434 1759 690 2068 
Q 947 2378 1403 2484 
z
M 1172 3481 
Q 1172 3119 1398 2916 
Q 1625 2713 2034 2713 
Q 2441 2713 2670 2916 
Q 2900 3119 2900 3481 
Q 2900 3844 2670 4047 
Q 2441 4250 2034 4250 
Q 1625 4250 1398 4047 
Q 1172 3844 1172 3481 
z
" transform="scale(0.015625)"/>
      </defs>
      <use xlink:href="#DejaVuSans-31"/>
      <use xlink:href="#DejaVuSans-65" transform="translate(63.623047 0)"/>
      <use xlink:href="#DejaVuSans-38" transform="translate(125.146484 0)"/>
     </g>
    </g>
   </g>
   <g id="matplotlib.axis_2">
    <g id="ytick_1">
     <g id="line2d_4">
      <path d="M 72.37 292.918142 
L 222.58 292.918142 
" clip-path="url(#p1460d0aa79)" style="fill: none; stroke: #b0b0b0; stroke-width: 0.8; stroke-linecap: square"/>
     </g>
     <g id="line2d_5">
      <defs>
       <path id="m84d59fc094" d="M 0 0 
L -3.5 0 
" style="stroke: #000000; stroke-width: 0.8"/>
      </defs>
      <g>
       <use xlink:href="#m84d59fc094" x="72.37" y="292.918142" style="stroke: #000000; stroke-width: 0.8"/>
      </g>
     </g>
     <g id="text_6">
      <!-- 0 -->
      <g transform="translate(59.0075 296.717361) scale(0.1 -0.1)">
       <use xlink:href="#DejaVuSans-30"/>
      </g>
     </g>
    </g>
    <g id="ytick_2">
     <g id="line2d_6">
      <path d="M 72.37 250.512499 
L 222.58 250.512499 
" clip-path="url(#p1460d0aa79)" style="fill: none; stroke: #b0b0b0; stroke-width: 0.8; stroke-linecap: square"/>
     </g>
     <g id="line2d_7">
      <g>
       <use xlink:href="#m84d59fc094" x="72.37" y="250.512499" style="stroke: #000000; stroke-width: 0.8"/>
      </g>
     </g>
     <g id="text_7">
      <!-- 1000 -->
      <g transform="translate(39.92 254.311718) scale(0.1 -0.1)">
       <use xlink:href="#DejaVuSans-31"/>
       <use xlink:href="#DejaVuSans-30" transform="translate(63.623047 0)"/>
       <use xlink:href="#DejaVuSans-30" transform="translate(127.246094 0)"/>
       <use xlink:href="#DejaVuSans-30" transform="translate(190.869141 0)"/>
      </g>
     </g>
    </g>
    <g id="ytick_3">
     <g id="line2d_8">
      <path d="M 72.37 208.106856 
L 222.58 208.106856 
" clip-path="url(#p1460d0aa79)" style="fill: none; stroke: #b0b0b0; stroke-width: 0.8; stroke-linecap: square"/>
     </g>
     <g id="line2d_9">
      <g>
       <use xlink:href="#m84d59fc094" x="72.37" y="208.106856" style="stroke: #000000; stroke-width: 0.8"/>
      </g>
     </g>
     <g id="text_8">
      <!-- 2000 -->
      <g transform="translate(39.92 211.906074) scale(0.1 -0.1)">
       <use xlink:href="#DejaVuSans-32"/>
       <use xlink:href="#DejaVuSans-30" transform="translate(63.623047 0)"/>
       <use xlink:href="#DejaVuSans-30" transform="translate(127.246094 0)"/>
       <use xlink:href="#DejaVuSans-30" transform="translate(190.869141 0)"/>
      </g>
     </g>
    </g>
    <g id="ytick_4">
     <g id="line2d_10">
      <path d="M 72.37 165.701212 
L 222.58 165.701212 
" clip-path="url(#p1460d0aa79)" style="fill: none; stroke: #b0b0b0; stroke-width: 0.8; stroke-linecap: square"/>
     </g>
     <g id="line2d_11">
      <g>
       <use xlink:href="#m84d59fc094" x="72.37" y="165.701212" style="stroke: #000000; stroke-width: 0.8"/>
      </g>
     </g>
     <g id="text_9">
      <!-- 3000 -->
      <g transform="translate(39.92 169.500431) scale(0.1 -0.1)">
       <defs>
        <path id="DejaVuSans-33" d="M 2597 2516 
Q 3050 2419 3304 2112 
Q 3559 1806 3559 1356 
Q 3559 666 3084 287 
Q 2609 -91 1734 -91 
Q 1441 -91 1130 -33 
Q 819 25 488 141 
L 488 750 
Q 750 597 1062 519 
Q 1375 441 1716 441 
Q 2309 441 2620 675 
Q 2931 909 2931 1356 
Q 2931 1769 2642 2001 
Q 2353 2234 1838 2234 
L 1294 2234 
L 1294 2753 
L 1863 2753 
Q 2328 2753 2575 2939 
Q 2822 3125 2822 3475 
Q 2822 3834 2567 4026 
Q 2313 4219 1838 4219 
Q 1578 4219 1281 4162 
Q 984 4106 628 3988 
L 628 4550 
Q 988 4650 1302 4700 
Q 1616 4750 1894 4750 
Q 2613 4750 3031 4423 
Q 3450 4097 3450 3541 
Q 3450 3153 3228 2886 
Q 3006 2619 2597 2516 
z
" transform="scale(0.015625)"/>
       </defs>
       <use xlink:href="#DejaVuSans-33"/>
       <use xlink:href="#DejaVuSans-30" transform="translate(63.623047 0)"/>
       <use xlink:href="#DejaVuSans-30" transform="translate(127.246094 0)"/>
       <use xlink:href="#DejaVuSans-30" transform="translate(190.869141 0)"/>
      </g>
     </g>
    </g>
    <g id="ytick_5">
     <g id="line2d_12">
      <path d="M 72.37 123.295569 
L 222.58 123.295569 
" clip-path="url(#p1460d0aa79)" style="fill: none; stroke: #b0b0b0; stroke-width: 0.8; stroke-linecap: square"/>
     </g>
     <g id="line2d_13">
      <g>
       <use xlink:href="#m84d59fc094" x="72.37" y="123.295569" style="stroke: #000000; stroke-width: 0.8"/>
      </g>
     </g>
     <g id="text_10">
      <!-- 4000 -->
      <g transform="translate(39.92 127.094788) scale(0.1 -0.1)">
       <use xlink:href="#DejaVuSans-34"/>
       <use xlink:href="#DejaVuSans-30" transform="translate(63.623047 0)"/>
       <use xlink:href="#DejaVuSans-30" transform="translate(127.246094 0)"/>
       <use xlink:href="#DejaVuSans-30" transform="translate(190.869141 0)"/>
      </g>
     </g>
    </g>
    <g id="text_11">
     <!-- CPU Cycle -->
     <g transform="translate(33.840312 217.720312) rotate(-90) scale(0.1 -0.1)">
      <defs>
       <path id="DejaVuSans-43" d="M 4122 4306 
L 4122 3641 
Q 3803 3938 3442 4084 
Q 3081 4231 2675 4231 
Q 1875 4231 1450 3742 
Q 1025 3253 1025 2328 
Q 1025 1406 1450 917 
Q 1875 428 2675 428 
Q 3081 428 3442 575 
Q 3803 722 4122 1019 
L 4122 359 
Q 3791 134 3420 21 
Q 3050 -91 2638 -91 
Q 1578 -91 968 557 
Q 359 1206 359 2328 
Q 359 3453 968 4101 
Q 1578 4750 2638 4750 
Q 3056 4750 3426 4639 
Q 3797 4528 4122 4306 
z
" transform="scale(0.015625)"/>
       <path id="DejaVuSans-50" d="M 1259 4147 
L 1259 2394 
L 2053 2394 
Q 2494 2394 2734 2622 
Q 2975 2850 2975 3272 
Q 2975 3691 2734 3919 
Q 2494 4147 2053 4147 
L 1259 4147 
z
M 628 4666 
L 2053 4666 
Q 2838 4666 3239 4311 
Q 3641 3956 3641 3272 
Q 3641 2581 3239 2228 
Q 2838 1875 2053 1875 
L 1259 1875 
L 1259 0 
L 628 0 
L 628 4666 
z
" transform="scale(0.015625)"/>
       <path id="DejaVuSans-55" d="M 556 4666 
L 1191 4666 
L 1191 1831 
Q 1191 1081 1462 751 
Q 1734 422 2344 422 
Q 2950 422 3222 751 
Q 3494 1081 3494 1831 
L 3494 4666 
L 4128 4666 
L 4128 1753 
Q 4128 841 3676 375 
Q 3225 -91 2344 -91 
Q 1459 -91 1007 375 
Q 556 841 556 1753 
L 556 4666 
z
" transform="scale(0.015625)"/>
       <path id="DejaVuSans-20" transform="scale(0.015625)"/>
       <path id="DejaVuSans-79" d="M 2059 -325 
Q 1816 -950 1584 -1140 
Q 1353 -1331 966 -1331 
L 506 -1331 
L 506 -850 
L 844 -850 
Q 1081 -850 1212 -737 
Q 1344 -625 1503 -206 
L 1606 56 
L 191 3500 
L 800 3500 
L 1894 763 
L 2988 3500 
L 3597 3500 
L 2059 -325 
z
" transform="scale(0.015625)"/>
       <path id="DejaVuSans-63" d="M 3122 3366 
L 3122 2828 
Q 2878 2963 2633 3030 
Q 2388 3097 2138 3097 
Q 1578 3097 1268 2742 
Q 959 2388 959 1747 
Q 959 1106 1268 751 
Q 1578 397 2138 397 
Q 2388 397 2633 464 
Q 2878 531 3122 666 
L 3122 134 
Q 2881 22 2623 -34 
Q 2366 -91 2075 -91 
Q 1284 -91 818 406 
Q 353 903 353 1747 
Q 353 2603 823 3093 
Q 1294 3584 2113 3584 
Q 2378 3584 2631 3529 
Q 2884 3475 3122 3366 
z
" transform="scale(0.015625)"/>
       <path id="DejaVuSans-6c" d="M 603 4863 
L 1178 4863 
L 1178 0 
L 603 0 
L 603 4863 
z
" transform="scale(0.015625)"/>
      </defs>
      <use xlink:href="#DejaVuSans-43"/>
      <use xlink:href="#DejaVuSans-50" transform="translate(69.824219 0)"/>
      <use xlink:href="#DejaVuSans-55" transform="translate(130.126953 0)"/>
      <use xlink:href="#DejaVuSans-20" transform="translate(203.320312 0)"/>
      <use xlink:href="#DejaVuSans-43" transform="translate(235.107422 0)"/>
      <use xlink:href="#DejaVuSans-79" transform="translate(304.931641 0)"/>
      <use xlink:href="#DejaVuSans-63" transform="translate(364.111328 0)"/>
      <use xlink:href="#DejaVuSans-6c" transform="translate(419.091797 0)"/>
      <use xlink:href="#DejaVuSans-65" transform="translate(446.875 0)"/>
     </g>
    </g>
   </g>
   <g id="line2d_14">
    <path d="M 79.197727 292.781274 
L 79.197735 292.781107 
L 79.197744 292.780954 
L 79.197752 292.781017 
L 79.19776 292.781003 
L 79.197768 292.780971 
L 79.197776 292.78104 
L 79.197784 292.780849 
L 79.197792 292.780897 
L 79.197801 292.781438 
L 79.197809 292.781456 
L 79.197817 292.780897 
L 79.197825 292.780872 
L 79.197833 292.780583 
L 79.197841 292.780403 
L 79.197849 292.780369 
L 79.197858 292.780382 
L 79.197866 292.780352 
L 79.197874 292.780339 
L 79.197882 292.780351 
L 79.19789 292.780366 
L 79.197898 292.78036 
L 79.197906 292.780355 
L 79.197914 292.780346 
L 79.197923 292.780371 
L 79.197931 292.780387 
L 79.197939 292.780697 
L 79.197947 292.780627 
L 79.197955 292.780374 
L 79.197963 292.780361 
L 79.197971 292.780366 
L 79.19798 292.780345 
L 79.19824 292.780883 
L 79.198761 292.781466 
L 79.199803 292.781097 
L 79.201886 292.780916 
L 79.206054 292.781051 
L 79.214388 292.781709 
L 79.231058 292.781694 
L 79.264396 292.781665 
L 79.331073 292.781667 
L 79.464427 292.781703 
L 79.731135 292.781723 
L 80.264552 292.781712 
L 81.331384 292.781736 
L 83.465049 292.781813 
L 87.732379 292.781412 
L 96.267038 292.780975 
L 113.336358 292.781591 
L 147.474996 292.780883 
L 215.752273 292.780849 
" clip-path="url(#p1460d0aa79)" style="fill: none; stroke: #1f77b4; stroke-width: 1.5; stroke-linecap: square"/>
   </g>
   <g id="line2d_15">
    <path d="M 79.197727 292.307541 
L 79.197735 292.13521 
L 79.197744 291.938018 
L 79.197752 291.790912 
L 79.19776 291.759989 
L 79.197768 291.738119 
L 79.197776 291.704102 
L 79.197784 291.664272 
L 79.197792 291.646142 
L 79.197801 291.618963 
L 79.197809 291.604494 
L 79.197817 291.582881 
L 79.197825 291.567906 
L 79.197833 291.554581 
L 79.197841 291.547729 
L 79.197849 291.517409 
L 79.197858 291.480626 
L 79.197866 291.503221 
L 79.197874 291.423951 
L 79.197882 291.477128 
L 79.19789 291.475194 
L 79.197898 291.462484 
L 79.197906 291.457984 
L 79.197914 291.424733 
L 79.197923 291.404229 
L 79.197931 291.354918 
L 79.197939 291.338202 
L 79.197947 291.355285 
L 79.197955 291.410795 
L 79.197963 291.418409 
L 79.197971 291.411634 
L 79.19798 291.326787 
L 79.19824 290.984237 
L 79.198761 287.063999 
L 79.199803 286.567077 
L 79.201886 286.401599 
L 79.206054 285.986178 
L 79.214388 285.871501 
L 79.231058 285.355616 
L 79.264396 284.976968 
L 79.331073 284.155045 
L 79.464427 283.686633 
L 79.731135 280.984895 
L 80.264552 280.935786 
L 81.331384 279.479558 
L 83.465049 279.847259 
L 87.732379 277.58104 
L 96.267038 278.462034 
L 113.336358 276.721412 
L 147.474996 276.87219 
L 215.752273 273.923027 
" clip-path="url(#p1460d0aa79)" style="fill: none; stroke: #ff7f0e; stroke-width: 1.5; stroke-linecap: square"/>
   </g>
   <g id="line2d_16">
    <path d="M 79.197727 292.382949 
L 79.197735 292.28449 
L 79.197744 292.070159 
L 79.197752 291.897586 
L 79.19776 291.772153 
L 79.197768 291.763789 
L 79.197776 291.712985 
L 79.197784 291.668703 
L 79.197792 291.672034 
L 79.197801 291.648092 
L 79.197809 291.651182 
L 79.197817 291.614967 
L 79.197825 291.60988 
L 79.197833 291.620237 
L 79.197841 291.621515 
L 79.197849 291.637358 
L 79.197858 291.606418 
L 79.197866 291.615488 
L 79.197874 291.57892 
L 79.197882 291.579866 
L 79.19789 291.568833 
L 79.197898 291.568008 
L 79.197906 291.612003 
L 79.197914 291.573352 
L 79.197923 291.508103 
L 79.197931 291.481175 
L 79.197939 291.535604 
L 79.197947 291.540605 
L 79.197955 291.536708 
L 79.197963 291.536495 
L 79.197971 291.531692 
L 79.19798 291.517542 
L 79.19824 291.480161 
L 79.198761 288.110534 
L 79.199803 287.279011 
L 79.201886 287.052427 
L 79.206054 286.854827 
L 79.214388 286.54721 
L 79.231058 285.636988 
L 79.264396 283.562755 
L 79.331073 282.755658 
L 79.464427 281.471929 
L 79.731135 280.462165 
L 80.264552 279.67419 
L 81.331384 279.047196 
L 83.465049 278.645127 
L 87.732379 278.302846 
L 96.267038 278.27378 
L 113.336358 278.262567 
L 147.474996 278.360615 
L 215.752273 277.93131 
" clip-path="url(#p1460d0aa79)" style="fill: none; stroke: #2ca02c; stroke-width: 1.5; stroke-linecap: square"/>
   </g>
   <g id="line2d_17">
    <path d="M 79.197727 292.790872 
L 79.197735 292.790872 
L 79.197744 292.790889 
L 79.197752 292.790891 
L 79.19776 292.790779 
L 79.197768 292.790814 
L 79.197776 292.790887 
L 79.197784 292.789438 
L 79.197792 292.790872 
L 79.197801 292.790876 
L 79.197809 292.790886 
L 79.197817 292.790846 
L 79.197825 292.790876 
L 79.197833 292.790896 
L 79.197841 292.790844 
L 79.197849 292.790889 
L 79.197858 292.790908 
L 79.197866 292.790898 
L 79.197874 292.790904 
L 79.197882 292.790908 
L 79.19789 292.790842 
L 79.197898 292.790846 
L 79.197906 292.790858 
L 79.197914 292.790816 
L 79.197923 292.790856 
L 79.197931 292.790809 
L 79.197939 292.790837 
L 79.197947 292.790855 
L 79.197955 292.790864 
L 79.197963 292.790807 
L 79.197971 292.790856 
L 79.19798 292.790759 
L 79.19824 292.790595 
L 79.198761 292.790586 
L 79.199803 292.790584 
L 79.201886 292.790577 
L 79.206054 292.790588 
L 79.214388 292.79057 
L 79.231058 292.790566 
L 79.264396 292.790583 
L 79.331073 292.790581 
L 79.464427 292.790577 
L 79.731135 292.790582 
L 80.264552 292.79058 
L 81.331384 292.790575 
L 83.465049 292.790567 
L 87.732379 292.790576 
L 96.267038 292.790575 
L 113.336358 292.786618 
L 147.474996 292.790828 
L 215.752273 292.790862 
" clip-path="url(#p1460d0aa79)" style="fill: none; stroke: #d62728; stroke-width: 1.5; stroke-linecap: square"/>
   </g>
   <g id="patch_3">
    <path d="M 72.37 302.84 
L 72.37 81.76 
" style="fill: none; stroke: #000000; stroke-width: 0.8; stroke-linejoin: miter; stroke-linecap: square"/>
   </g>
   <g id="patch_4">
    <path d="M 222.58 302.84 
L 222.58 81.76 
" style="fill: none; stroke: #000000; stroke-width: 0.8; stroke-linejoin: miter; stroke-linecap: square"/>
   </g>
   <g id="patch_5">
    <path d="M 72.37 302.84 
L 222.58 302.84 
" style="fill: none; stroke: #000000; stroke-width: 0.8; stroke-linejoin: miter; stroke-linecap: square"/>
   </g>
   <g id="patch_6">
    <path d="M 72.37 81.76 
L 222.58 81.76 
" style="fill: none; stroke: #000000; stroke-width: 0.8; stroke-linejoin: miter; stroke-linecap: square"/>
   </g>
   <g id="text_12">
    <!-- ForwardAccess -->
    <g transform="translate(102.80875 75.76) scale(0.12 -0.12)">
     <defs>
      <path id="DejaVuSans-46" d="M 628 4666 
L 3309 4666 
L 3309 4134 
L 1259 4134 
L 1259 2759 
L 3109 2759 
L 3109 2228 
L 1259 2228 
L 1259 0 
L 628 0 
L 628 4666 
z
" transform="scale(0.015625)"/>
      <path id="DejaVuSans-6f" d="M 1959 3097 
Q 1497 3097 1228 2736 
Q 959 2375 959 1747 
Q 959 1119 1226 758 
Q 1494 397 1959 397 
Q 2419 397 2687 759 
Q 2956 1122 2956 1747 
Q 2956 2369 2687 2733 
Q 2419 3097 1959 3097 
z
M 1959 3584 
Q 2709 3584 3137 3096 
Q 3566 2609 3566 1747 
Q 3566 888 3137 398 
Q 2709 -91 1959 -91 
Q 1206 -91 779 398 
Q 353 888 353 1747 
Q 353 2609 779 3096 
Q 1206 3584 1959 3584 
z
" transform="scale(0.015625)"/>
      <path id="DejaVuSans-72" d="M 2631 2963 
Q 2534 3019 2420 3045 
Q 2306 3072 2169 3072 
Q 1681 3072 1420 2755 
Q 1159 2438 1159 1844 
L 1159 0 
L 581 0 
L 581 3500 
L 1159 3500 
L 1159 2956 
Q 1341 3275 1631 3429 
Q 1922 3584 2338 3584 
Q 2397 3584 2469 3576 
Q 2541 3569 2628 3553 
L 2631 2963 
z
" transform="scale(0.015625)"/>
      <path id="DejaVuSans-77" d="M 269 3500 
L 844 3500 
L 1563 769 
L 2278 3500 
L 2956 3500 
L 3675 769 
L 4391 3500 
L 4966 3500 
L 4050 0 
L 3372 0 
L 2619 2869 
L 1863 0 
L 1184 0 
L 269 3500 
z
" transform="scale(0.015625)"/>
      <path id="DejaVuSans-61" d="M 2194 1759 
Q 1497 1759 1228 1600 
Q 959 1441 959 1056 
Q 959 750 1161 570 
Q 1363 391 1709 391 
Q 2188 391 2477 730 
Q 2766 1069 2766 1631 
L 2766 1759 
L 2194 1759 
z
M 3341 1997 
L 3341 0 
L 2766 0 
L 2766 531 
Q 2569 213 2275 61 
Q 1981 -91 1556 -91 
Q 1019 -91 701 211 
Q 384 513 384 1019 
Q 384 1609 779 1909 
Q 1175 2209 1959 2209 
L 2766 2209 
L 2766 2266 
Q 2766 2663 2505 2880 
Q 2244 3097 1772 3097 
Q 1472 3097 1187 3025 
Q 903 2953 641 2809 
L 641 3341 
Q 956 3463 1253 3523 
Q 1550 3584 1831 3584 
Q 2591 3584 2966 3190 
Q 3341 2797 3341 1997 
z
" transform="scale(0.015625)"/>
      <path id="DejaVuSans-64" d="M 2906 2969 
L 2906 4863 
L 3481 4863 
L 3481 0 
L 2906 0 
L 2906 525 
Q 2725 213 2448 61 
Q 2172 -91 1784 -91 
Q 1150 -91 751 415 
Q 353 922 353 1747 
Q 353 2572 751 3078 
Q 1150 3584 1784 3584 
Q 2172 3584 2448 3432 
Q 2725 3281 2906 2969 
z
M 947 1747 
Q 947 1113 1208 752 
Q 1469 391 1925 391 
Q 2381 391 2643 752 
Q 2906 1113 2906 1747 
Q 2906 2381 2643 2742 
Q 2381 3103 1925 3103 
Q 1469 3103 1208 2742 
Q 947 2381 947 1747 
z
" transform="scale(0.015625)"/>
      <path id="DejaVuSans-41" d="M 2188 4044 
L 1331 1722 
L 3047 1722 
L 2188 4044 
z
M 1831 4666 
L 2547 4666 
L 4325 0 
L 3669 0 
L 3244 1197 
L 1141 1197 
L 716 0 
L 50 0 
L 1831 4666 
z
" transform="scale(0.015625)"/>
      <path id="DejaVuSans-73" d="M 2834 3397 
L 2834 2853 
Q 2591 2978 2328 3040 
Q 2066 3103 1784 3103 
Q 1356 3103 1142 2972 
Q 928 2841 928 2578 
Q 928 2378 1081 2264 
Q 1234 2150 1697 2047 
L 1894 2003 
Q 2506 1872 2764 1633 
Q 3022 1394 3022 966 
Q 3022 478 2636 193 
Q 2250 -91 1575 -91 
Q 1294 -91 989 -36 
Q 684 19 347 128 
L 347 722 
Q 666 556 975 473 
Q 1284 391 1588 391 
Q 1994 391 2212 530 
Q 2431 669 2431 922 
Q 2431 1156 2273 1281 
Q 2116 1406 1581 1522 
L 1381 1569 
Q 847 1681 609 1914 
Q 372 2147 372 2553 
Q 372 3047 722 3315 
Q 1072 3584 1716 3584 
Q 2034 3584 2315 3537 
Q 2597 3491 2834 3397 
z
" transform="scale(0.015625)"/>
     </defs>
     <use xlink:href="#DejaVuSans-46"/>
     <use xlink:href="#DejaVuSans-6f" transform="translate(53.894531 0)"/>
     <use xlink:href="#DejaVuSans-72" transform="translate(115.076172 0)"/>
     <use xlink:href="#DejaVuSans-77" transform="translate(156.189453 0)"/>
     <use xlink:href="#DejaVuSans-61" transform="translate(237.976562 0)"/>
     <use xlink:href="#DejaVuSans-72" transform="translate(299.255859 0)"/>
     <use xlink:href="#DejaVuSans-64" transform="translate(338.619141 0)"/>
     <use xlink:href="#DejaVuSans-41" transform="translate(402.095703 0)"/>
     <use xlink:href="#DejaVuSans-63" transform="translate(468.753906 0)"/>
     <use xlink:href="#DejaVuSans-63" transform="translate(523.734375 0)"/>
     <use xlink:href="#DejaVuSans-65" transform="translate(578.714844 0)"/>
     <use xlink:href="#DejaVuSans-73" transform="translate(640.238281 0)"/>
     <use xlink:href="#DejaVuSans-73" transform="translate(692.337891 0)"/>
    </g>
   </g>
   <g id="legend_1">
    <g id="patch_7">
     <path d="M 146.997187 148.4725 
L 215.58 148.4725 
Q 217.58 148.4725 217.58 146.4725 
L 217.58 88.76 
Q 217.58 86.76 215.58 86.76 
L 146.997187 86.76 
Q 144.997187 86.76 144.997187 88.76 
L 144.997187 146.4725 
Q 144.997187 148.4725 146.997187 148.4725 
z
" style="fill: #ffffff; opacity: 0.8; stroke: #cccccc; stroke-linejoin: miter"/>
    </g>
    <g id="line2d_18">
     <path d="M 148.997187 94.858437 
L 158.997187 94.858437 
L 168.997187 94.858437 
" style="fill: none; stroke: #1f77b4; stroke-width: 1.5; stroke-linecap: square"/>
    </g>
    <g id="text_13">
     <!-- array -->
     <g transform="translate(176.997187 98.358437) scale(0.1 -0.1)">
      <use xlink:href="#DejaVuSans-61"/>
      <use xlink:href="#DejaVuSans-72" transform="translate(61.279297 0)"/>
      <use xlink:href="#DejaVuSans-72" transform="translate(100.642578 0)"/>
      <use xlink:href="#DejaVuSans-61" transform="translate(141.755859 0)"/>
      <use xlink:href="#DejaVuSans-79" transform="translate(203.035156 0)"/>
     </g>
    </g>
    <g id="line2d_19">
     <path d="M 148.997187 109.536562 
L 158.997187 109.536562 
L 168.997187 109.536562 
" style="fill: none; stroke: #ff7f0e; stroke-width: 1.5; stroke-linecap: square"/>
    </g>
    <g id="text_14">
     <!-- rbMap -->
     <g transform="translate(176.997187 113.036562) scale(0.1 -0.1)">
      <defs>
       <path id="DejaVuSans-62" d="M 3116 1747 
Q 3116 2381 2855 2742 
Q 2594 3103 2138 3103 
Q 1681 3103 1420 2742 
Q 1159 2381 1159 1747 
Q 1159 1113 1420 752 
Q 1681 391 2138 391 
Q 2594 391 2855 752 
Q 3116 1113 3116 1747 
z
M 1159 2969 
Q 1341 3281 1617 3432 
Q 1894 3584 2278 3584 
Q 2916 3584 3314 3078 
Q 3713 2572 3713 1747 
Q 3713 922 3314 415 
Q 2916 -91 2278 -91 
Q 1894 -91 1617 61 
Q 1341 213 1159 525 
L 1159 0 
L 581 0 
L 581 4863 
L 1159 4863 
L 1159 2969 
z
" transform="scale(0.015625)"/>
       <path id="DejaVuSans-4d" d="M 628 4666 
L 1569 4666 
L 2759 1491 
L 3956 4666 
L 4897 4666 
L 4897 0 
L 4281 0 
L 4281 4097 
L 3078 897 
L 2444 897 
L 1241 4097 
L 1241 0 
L 628 0 
L 628 4666 
z
" transform="scale(0.015625)"/>
       <path id="DejaVuSans-70" d="M 1159 525 
L 1159 -1331 
L 581 -1331 
L 581 3500 
L 1159 3500 
L 1159 2969 
Q 1341 3281 1617 3432 
Q 1894 3584 2278 3584 
Q 2916 3584 3314 3078 
Q 3713 2572 3713 1747 
Q 3713 922 3314 415 
Q 2916 -91 2278 -91 
Q 1894 -91 1617 61 
Q 1341 213 1159 525 
z
M 3116 1747 
Q 3116 2381 2855 2742 
Q 2594 3103 2138 3103 
Q 1681 3103 1420 2742 
Q 1159 2381 1159 1747 
Q 1159 1113 1420 752 
Q 1681 391 2138 391 
Q 2594 391 2855 752 
Q 3116 1113 3116 1747 
z
" transform="scale(0.015625)"/>
      </defs>
      <use xlink:href="#DejaVuSans-72"/>
      <use xlink:href="#DejaVuSans-62" transform="translate(41.113281 0)"/>
      <use xlink:href="#DejaVuSans-4d" transform="translate(104.589844 0)"/>
      <use xlink:href="#DejaVuSans-61" transform="translate(190.869141 0)"/>
      <use xlink:href="#DejaVuSans-70" transform="translate(252.148438 0)"/>
     </g>
    </g>
    <g id="line2d_20">
     <path d="M 148.997187 124.214687 
L 158.997187 124.214687 
L 168.997187 124.214687 
" style="fill: none; stroke: #2ca02c; stroke-width: 1.5; stroke-linecap: square"/>
    </g>
    <g id="text_15">
     <!-- stdMap -->
     <g transform="translate(176.997187 127.714687) scale(0.1 -0.1)">
      <defs>
       <path id="DejaVuSans-74" d="M 1172 4494 
L 1172 3500 
L 2356 3500 
L 2356 3053 
L 1172 3053 
L 1172 1153 
Q 1172 725 1289 603 
Q 1406 481 1766 481 
L 2356 481 
L 2356 0 
L 1766 0 
Q 1100 0 847 248 
Q 594 497 594 1153 
L 594 3053 
L 172 3053 
L 172 3500 
L 594 3500 
L 594 4494 
L 1172 4494 
z
" transform="scale(0.015625)"/>
      </defs>
      <use xlink:href="#DejaVuSans-73"/>
      <use xlink:href="#DejaVuSans-74" transform="translate(52.099609 0)"/>
      <use xlink:href="#DejaVuSans-64" transform="translate(91.308594 0)"/>
      <use xlink:href="#DejaVuSans-4d" transform="translate(154.785156 0)"/>
      <use xlink:href="#DejaVuSans-61" transform="translate(241.064453 0)"/>
      <use xlink:href="#DejaVuSans-70" transform="translate(302.34375 0)"/>
     </g>
    </g>
    <g id="line2d_21">
     <path d="M 148.997187 138.892812 
L 158.997187 138.892812 
L 168.997187 138.892812 
" style="fill: none; stroke: #d62728; stroke-width: 1.5; stroke-linecap: square"/>
    </g>
    <g id="text_16">
     <!-- vector -->
     <g transform="translate(176.997187 142.392812) scale(0.1 -0.1)">
      <defs>
       <path id="DejaVuSans-76" d="M 191 3500 
L 800 3500 
L 1894 563 
L 2988 3500 
L 3597 3500 
L 2284 0 
L 1503 0 
L 191 3500 
z
" transform="scale(0.015625)"/>
      </defs>
      <use xlink:href="#DejaVuSans-76"/>
      <use xlink:href="#DejaVuSans-65" transform="translate(59.179688 0)"/>
      <use xlink:href="#DejaVuSans-63" transform="translate(120.703125 0)"/>
      <use xlink:href="#DejaVuSans-74" transform="translate(175.683594 0)"/>
      <use xlink:href="#DejaVuSans-6f" transform="translate(214.892578 0)"/>
      <use xlink:href="#DejaVuSans-72" transform="translate(276.074219 0)"/>
     </g>
    </g>
   </g>
  </g>
  <g id="axes_2">
   <g id="patch_8">
    <path d="M 236.08 302.84 
L 386.29 302.84 
L 386.29 81.76 
L 236.08 81.76 
z
" style="fill: #ffffff"/>
   </g>
   <g id="matplotlib.axis_3">
    <g id="xtick_4">
     <g id="line2d_22">
      <g>
       <use xlink:href="#m4696bb65d0" x="242.907719" y="302.84" style="stroke: #000000; stroke-width: 0.8"/>
      </g>
     </g>
     <g id="text_17">
      <!-- 0 -->
      <g transform="translate(239.726469 317.438438) scale(0.1 -0.1)">
       <use xlink:href="#DejaVuSans-30"/>
      </g>
     </g>
    </g>
    <g id="xtick_5">
     <g id="line2d_23">
      <g>
       <use xlink:href="#m4696bb65d0" x="293.778255" y="302.84" style="stroke: #000000; stroke-width: 0.8"/>
      </g>
     </g>
     <g id="text_18">
      <!-- 2 -->
      <g transform="translate(290.597005 317.438438) scale(0.1 -0.1)">
       <use xlink:href="#DejaVuSans-32"/>
      </g>
     </g>
    </g>
    <g id="xtick_6">
     <g id="line2d_24">
      <g>
       <use xlink:href="#m4696bb65d0" x="344.64879" y="302.84" style="stroke: #000000; stroke-width: 0.8"/>
      </g>
     </g>
     <g id="text_19">
      <!-- 4 -->
      <g transform="translate(341.46754 317.438438) scale(0.1 -0.1)">
       <use xlink:href="#DejaVuSans-34"/>
      </g>
     </g>
    </g>
    <g id="text_20">
     <!-- N -->
     <g transform="translate(307.444375 331.116562) scale(0.1 -0.1)">
      <use xlink:href="#DejaVuSans-4e"/>
     </g>
    </g>
    <g id="text_21">
     <!-- 1e8 -->
     <g transform="translate(367.411875 330.116562) scale(0.1 -0.1)">
      <use xlink:href="#DejaVuSans-31"/>
      <use xlink:href="#DejaVuSans-65" transform="translate(63.623047 0)"/>
      <use xlink:href="#DejaVuSans-38" transform="translate(125.146484 0)"/>
     </g>
    </g>
   </g>
   <g id="matplotlib.axis_4">
    <g id="ytick_6">
     <g id="line2d_25">
      <path d="M 236.08 292.918142 
L 386.29 292.918142 
" clip-path="url(#pcf8acc99f2)" style="fill: none; stroke: #b0b0b0; stroke-width: 0.8; stroke-linecap: square"/>
     </g>
     <g id="line2d_26">
      <g>
       <use xlink:href="#m84d59fc094" x="236.08" y="292.918142" style="stroke: #000000; stroke-width: 0.8"/>
      </g>
     </g>
    </g>
    <g id="ytick_7">
     <g id="line2d_27">
      <path d="M 236.08 250.512499 
L 386.29 250.512499 
" clip-path="url(#pcf8acc99f2)" style="fill: none; stroke: #b0b0b0; stroke-width: 0.8; stroke-linecap: square"/>
     </g>
     <g id="line2d_28">
      <g>
       <use xlink:href="#m84d59fc094" x="236.08" y="250.512499" style="stroke: #000000; stroke-width: 0.8"/>
      </g>
     </g>
    </g>
    <g id="ytick_8">
     <g id="line2d_29">
      <path d="M 236.08 208.106856 
L 386.29 208.106856 
" clip-path="url(#pcf8acc99f2)" style="fill: none; stroke: #b0b0b0; stroke-width: 0.8; stroke-linecap: square"/>
     </g>
     <g id="line2d_30">
      <g>
       <use xlink:href="#m84d59fc094" x="236.08" y="208.106856" style="stroke: #000000; stroke-width: 0.8"/>
      </g>
     </g>
    </g>
    <g id="ytick_9">
     <g id="line2d_31">
      <path d="M 236.08 165.701212 
L 386.29 165.701212 
" clip-path="url(#pcf8acc99f2)" style="fill: none; stroke: #b0b0b0; stroke-width: 0.8; stroke-linecap: square"/>
     </g>
     <g id="line2d_32">
      <g>
       <use xlink:href="#m84d59fc094" x="236.08" y="165.701212" style="stroke: #000000; stroke-width: 0.8"/>
      </g>
     </g>
    </g>
    <g id="ytick_10">
     <g id="line2d_33">
      <path d="M 236.08 123.295569 
L 386.29 123.295569 
" clip-path="url(#pcf8acc99f2)" style="fill: none; stroke: #b0b0b0; stroke-width: 0.8; stroke-linecap: square"/>
     </g>
     <g id="line2d_34">
      <g>
       <use xlink:href="#m84d59fc094" x="236.08" y="123.295569" style="stroke: #000000; stroke-width: 0.8"/>
      </g>
     </g>
    </g>
   </g>
   <g id="line2d_35">
    <path d="M 242.907727 292.790817 
L 242.907735 292.790834 
L 242.907744 292.790882 
L 242.907752 292.790909 
L 242.90776 292.790903 
L 242.907768 292.790896 
L 242.907776 292.79084 
L 242.907784 292.790822 
L 242.907792 292.790823 
L 242.907801 292.790848 
L 242.907809 292.790904 
L 242.907817 292.790893 
L 242.907825 292.790875 
L 242.907833 292.790848 
L 242.907841 292.790846 
L 242.907849 292.790887 
L 242.907858 292.790902 
L 242.907866 292.790905 
L 242.907874 292.790883 
L 242.907882 292.790888 
L 242.90789 292.79089 
L 242.907898 292.790886 
L 242.907906 292.790881 
L 242.907914 292.790879 
L 242.907923 292.790868 
L 242.907931 292.790867 
L 242.907939 292.790881 
L 242.907947 292.790826 
L 242.907955 292.790825 
L 242.907963 292.790845 
L 242.907971 292.790905 
L 242.90798 292.790909 
L 242.90824 292.790585 
L 242.908761 292.790596 
L 242.909803 292.790596 
L 242.911886 292.790587 
L 242.916054 292.790592 
L 242.924388 292.790595 
L 242.941058 292.790592 
L 242.974396 292.790399 
L 243.041073 292.790559 
L 243.174427 292.785551 
L 243.441135 292.790583 
L 243.974552 292.790592 
L 245.041384 292.790588 
L 247.175049 292.79057 
L 251.442379 292.790595 
L 259.977038 292.790582 
L 277.046358 292.790538 
L 311.184996 292.790585 
L 379.462273 292.790579 
" clip-path="url(#pcf8acc99f2)" style="fill: none; stroke: #1f77b4; stroke-width: 1.5; stroke-linecap: square"/>
   </g>
   <g id="line2d_36">
    <path d="M 242.907727 292.21445 
L 242.907735 291.988793 
L 242.907744 291.831102 
L 242.907752 291.608964 
L 242.90776 291.525507 
L 242.907768 291.506717 
L 242.907776 291.525884 
L 242.907784 291.495816 
L 242.907792 291.469679 
L 242.907801 291.376856 
L 242.907809 291.428594 
L 242.907817 291.417966 
L 242.907825 291.393903 
L 242.907833 291.393277 
L 242.907841 291.37549 
L 242.907849 291.343108 
L 242.907858 291.322145 
L 242.907866 291.323898 
L 242.907874 291.308726 
L 242.907882 291.318123 
L 242.90789 291.212846 
L 242.907898 291.306049 
L 242.907906 291.290057 
L 242.907914 291.26291 
L 242.907923 291.242746 
L 242.907931 291.237708 
L 242.907939 291.222329 
L 242.907947 291.251052 
L 242.907955 291.234798 
L 242.907963 291.23198 
L 242.907971 291.216143 
L 242.90798 291.192688 
L 242.90824 289.998213 
L 242.908761 286.673095 
L 242.909803 286.221719 
L 242.911886 286.004247 
L 242.916054 285.553909 
L 242.924388 285.426753 
L 242.941058 284.846618 
L 242.974396 284.455478 
L 243.041073 283.653267 
L 243.174427 283.147796 
L 243.441135 279.774339 
L 243.974552 278.882274 
L 245.041384 278.289776 
L 247.175049 277.024067 
L 251.442379 273.350675 
L 259.977038 272.106795 
L 277.046358 270.289253 
L 311.184996 268.110258 
L 379.462273 265.958362 
" clip-path="url(#pcf8acc99f2)" style="fill: none; stroke: #ff7f0e; stroke-width: 1.5; stroke-linecap: square"/>
   </g>
   <g id="line2d_37">
    <path d="M 242.907727 292.268379 
L 242.907735 292.089074 
L 242.907744 291.84187 
L 242.907752 291.655353 
L 242.90776 291.606182 
L 242.907768 291.540858 
L 242.907776 291.48143 
L 242.907784 291.476327 
L 242.907792 291.47101 
L 242.907801 291.451466 
L 242.907809 291.439615 
L 242.907817 291.434854 
L 242.907825 291.425635 
L 242.907833 291.429056 
L 242.907841 291.418534 
L 242.907849 291.415028 
L 242.907858 291.407606 
L 242.907866 291.398971 
L 242.907874 291.397889 
L 242.907882 291.383739 
L 242.90789 291.388304 
L 242.907898 291.381596 
L 242.907906 291.382386 
L 242.907914 291.381373 
L 242.907923 291.380384 
L 242.907931 291.372841 
L 242.907939 291.374866 
L 242.907947 291.377912 
L 242.907955 291.376743 
L 242.907963 291.36953 
L 242.907971 291.369809 
L 242.90798 291.362866 
L 242.90824 290.670723 
L 242.908761 287.470887 
L 242.909803 287.106841 
L 242.911886 286.92457 
L 242.916054 286.744698 
L 242.924388 286.389082 
L 242.941058 285.604957 
L 242.974396 283.528866 
L 243.041073 282.601508 
L 243.174427 281.503458 
L 243.441135 280.465544 
L 243.974552 279.499485 
L 245.041384 278.382588 
L 247.175049 274.722655 
L 251.442379 274.521761 
L 259.977038 271.317991 
L 277.046358 269.262213 
L 311.184996 266.815812 
L 379.462273 265.150622 
" clip-path="url(#pcf8acc99f2)" style="fill: none; stroke: #2ca02c; stroke-width: 1.5; stroke-linecap: square"/>
   </g>
   <g id="line2d_38">
    <path d="M 242.907727 292.790903 
L 242.907735 292.790905 
L 242.907744 292.790906 
L 242.907752 292.790907 
L 242.90776 292.790906 
L 242.907768 292.790908 
L 242.907776 292.790908 
L 242.907784 292.790905 
L 242.907792 292.790906 
L 242.907801 292.790907 
L 242.907809 292.790907 
L 242.907817 292.790907 
L 242.907825 292.790908 
L 242.907833 292.790907 
L 242.907841 292.790906 
L 242.907849 292.790908 
L 242.907858 292.790908 
L 242.907866 292.790908 
L 242.907874 292.790909 
L 242.907882 292.790908 
L 242.90789 292.790905 
L 242.907898 292.790909 
L 242.907906 292.790908 
L 242.907914 292.790908 
L 242.907923 292.790909 
L 242.907931 292.790908 
L 242.907939 292.790908 
L 242.907947 292.790909 
L 242.907955 292.790908 
L 242.907963 292.790908 
L 242.907971 292.790908 
L 242.90798 292.790908 
L 242.90824 292.790904 
L 242.908761 292.790906 
L 242.909803 292.790908 
L 242.911886 292.790909 
L 242.916054 292.790908 
L 242.924388 292.790908 
L 242.941058 292.790909 
L 242.974396 292.790908 
L 243.041073 292.790907 
L 243.174427 292.790909 
L 243.441135 292.790908 
L 243.974552 292.790908 
L 245.041384 292.790908 
L 247.175049 292.790908 
L 251.442379 292.790907 
L 259.977038 292.790906 
L 277.046358 292.790907 
L 311.184996 292.790907 
L 379.462273 292.790908 
" clip-path="url(#pcf8acc99f2)" style="fill: none; stroke: #d62728; stroke-width: 1.5; stroke-linecap: square"/>
   </g>
   <g id="patch_9">
    <path d="M 236.08 302.84 
L 236.08 81.76 
" style="fill: none; stroke: #000000; stroke-width: 0.8; stroke-linejoin: miter; stroke-linecap: square"/>
   </g>
   <g id="patch_10">
    <path d="M 386.29 302.84 
L 386.29 81.76 
" style="fill: none; stroke: #000000; stroke-width: 0.8; stroke-linejoin: miter; stroke-linecap: square"/>
   </g>
   <g id="patch_11">
    <path d="M 236.08 302.84 
L 386.29 302.84 
" style="fill: none; stroke: #000000; stroke-width: 0.8; stroke-linejoin: miter; stroke-linecap: square"/>
   </g>
   <g id="patch_12">
    <path d="M 236.08 81.76 
L 386.29 81.76 
" style="fill: none; stroke: #000000; stroke-width: 0.8; stroke-linejoin: miter; stroke-linecap: square"/>
   </g>
   <g id="text_22">
    <!-- BackwardAccess -->
    <g transform="translate(261.323125 75.76) scale(0.12 -0.12)">
     <defs>
      <path id="DejaVuSans-42" d="M 1259 2228 
L 1259 519 
L 2272 519 
Q 2781 519 3026 730 
Q 3272 941 3272 1375 
Q 3272 1813 3026 2020 
Q 2781 2228 2272 2228 
L 1259 2228 
z
M 1259 4147 
L 1259 2741 
L 2194 2741 
Q 2656 2741 2882 2914 
Q 3109 3088 3109 3444 
Q 3109 3797 2882 3972 
Q 2656 4147 2194 4147 
L 1259 4147 
z
M 628 4666 
L 2241 4666 
Q 2963 4666 3353 4366 
Q 3744 4066 3744 3513 
Q 3744 3084 3544 2831 
Q 3344 2578 2956 2516 
Q 3422 2416 3680 2098 
Q 3938 1781 3938 1306 
Q 3938 681 3513 340 
Q 3088 0 2303 0 
L 628 0 
L 628 4666 
z
" transform="scale(0.015625)"/>
      <path id="DejaVuSans-6b" d="M 581 4863 
L 1159 4863 
L 1159 1991 
L 2875 3500 
L 3609 3500 
L 1753 1863 
L 3688 0 
L 2938 0 
L 1159 1709 
L 1159 0 
L 581 0 
L 581 4863 
z
" transform="scale(0.015625)"/>
     </defs>
     <use xlink:href="#DejaVuSans-42"/>
     <use xlink:href="#DejaVuSans-61" transform="translate(68.603516 0)"/>
     <use xlink:href="#DejaVuSans-63" transform="translate(129.882812 0)"/>
     <use xlink:href="#DejaVuSans-6b" transform="translate(184.863281 0)"/>
     <use xlink:href="#DejaVuSans-77" transform="translate(242.773438 0)"/>
     <use xlink:href="#DejaVuSans-61" transform="translate(324.560547 0)"/>
     <use xlink:href="#DejaVuSans-72" transform="translate(385.839844 0)"/>
     <use xlink:href="#DejaVuSans-64" transform="translate(425.203125 0)"/>
     <use xlink:href="#DejaVuSans-41" transform="translate(488.679688 0)"/>
     <use xlink:href="#DejaVuSans-63" transform="translate(555.337891 0)"/>
     <use xlink:href="#DejaVuSans-63" transform="translate(610.318359 0)"/>
     <use xlink:href="#DejaVuSans-65" transform="translate(665.298828 0)"/>
     <use xlink:href="#DejaVuSans-73" transform="translate(726.822266 0)"/>
     <use xlink:href="#DejaVuSans-73" transform="translate(778.921875 0)"/>
    </g>
   </g>
  </g>
  <g id="axes_3">
   <g id="patch_13">
    <path d="M 399.79 302.84 
L 550 302.84 
L 550 81.76 
L 399.79 81.76 
z
" style="fill: #ffffff"/>
   </g>
   <g id="matplotlib.axis_5">
    <g id="xtick_7">
     <g id="line2d_39">
      <g>
       <use xlink:href="#m4696bb65d0" x="406.617719" y="302.84" style="stroke: #000000; stroke-width: 0.8"/>
      </g>
     </g>
     <g id="text_23">
      <!-- 0 -->
      <g transform="translate(403.436469 317.438438) scale(0.1 -0.1)">
       <use xlink:href="#DejaVuSans-30"/>
      </g>
     </g>
    </g>
    <g id="xtick_8">
     <g id="line2d_40">
      <g>
       <use xlink:href="#m4696bb65d0" x="457.488255" y="302.84" style="stroke: #000000; stroke-width: 0.8"/>
      </g>
     </g>
     <g id="text_24">
      <!-- 2 -->
      <g transform="translate(454.307005 317.438438) scale(0.1 -0.1)">
       <use xlink:href="#DejaVuSans-32"/>
      </g>
     </g>
    </g>
    <g id="xtick_9">
     <g id="line2d_41">
      <g>
       <use xlink:href="#m4696bb65d0" x="508.35879" y="302.84" style="stroke: #000000; stroke-width: 0.8"/>
      </g>
     </g>
     <g id="text_25">
      <!-- 4 -->
      <g transform="translate(505.17754 317.438438) scale(0.1 -0.1)">
       <use xlink:href="#DejaVuSans-34"/>
      </g>
     </g>
    </g>
    <g id="text_26">
     <!-- N -->
     <g transform="translate(471.154375 331.116562) scale(0.1 -0.1)">
      <use xlink:href="#DejaVuSans-4e"/>
     </g>
    </g>
    <g id="text_27">
     <!-- 1e8 -->
     <g transform="translate(531.121875 330.116562) scale(0.1 -0.1)">
      <use xlink:href="#DejaVuSans-31"/>
      <use xlink:href="#DejaVuSans-65" transform="translate(63.623047 0)"/>
      <use xlink:href="#DejaVuSans-38" transform="translate(125.146484 0)"/>
     </g>
    </g>
   </g>
   <g id="matplotlib.axis_6">
    <g id="ytick_11">
     <g id="line2d_42">
      <path d="M 399.79 292.918142 
L 550 292.918142 
" clip-path="url(#p02c2189e54)" style="fill: none; stroke: #b0b0b0; stroke-width: 0.8; stroke-linecap: square"/>
     </g>
     <g id="line2d_43">
      <g>
       <use xlink:href="#m84d59fc094" x="399.79" y="292.918142" style="stroke: #000000; stroke-width: 0.8"/>
      </g>
     </g>
    </g>
    <g id="ytick_12">
     <g id="line2d_44">
      <path d="M 399.79 250.512499 
L 550 250.512499 
" clip-path="url(#p02c2189e54)" style="fill: none; stroke: #b0b0b0; stroke-width: 0.8; stroke-linecap: square"/>
     </g>
     <g id="line2d_45">
      <g>
       <use xlink:href="#m84d59fc094" x="399.79" y="250.512499" style="stroke: #000000; stroke-width: 0.8"/>
      </g>
     </g>
    </g>
    <g id="ytick_13">
     <g id="line2d_46">
      <path d="M 399.79 208.106856 
L 550 208.106856 
" clip-path="url(#p02c2189e54)" style="fill: none; stroke: #b0b0b0; stroke-width: 0.8; stroke-linecap: square"/>
     </g>
     <g id="line2d_47">
      <g>
       <use xlink:href="#m84d59fc094" x="399.79" y="208.106856" style="stroke: #000000; stroke-width: 0.8"/>
      </g>
     </g>
    </g>
    <g id="ytick_14">
     <g id="line2d_48">
      <path d="M 399.79 165.701212 
L 550 165.701212 
" clip-path="url(#p02c2189e54)" style="fill: none; stroke: #b0b0b0; stroke-width: 0.8; stroke-linecap: square"/>
     </g>
     <g id="line2d_49">
      <g>
       <use xlink:href="#m84d59fc094" x="399.79" y="165.701212" style="stroke: #000000; stroke-width: 0.8"/>
      </g>
     </g>
    </g>
    <g id="ytick_15">
     <g id="line2d_50">
      <path d="M 399.79 123.295569 
L 550 123.295569 
" clip-path="url(#p02c2189e54)" style="fill: none; stroke: #b0b0b0; stroke-width: 0.8; stroke-linecap: square"/>
     </g>
     <g id="line2d_51">
      <g>
       <use xlink:href="#m84d59fc094" x="399.79" y="123.295569" style="stroke: #000000; stroke-width: 0.8"/>
      </g>
     </g>
    </g>
   </g>
   <g id="line2d_52">
    <path d="M 406.617727 292.663673 
L 406.617735 292.663673 
L 406.617744 292.663674 
L 406.617752 292.663674 
L 406.61776 292.663674 
L 406.617768 292.663674 
L 406.617776 292.663673 
L 406.617784 292.663674 
L 406.617792 292.663674 
L 406.617801 292.663674 
L 406.617809 292.663674 
L 406.617817 292.663674 
L 406.617825 292.663673 
L 406.617833 292.663672 
L 406.617841 292.663674 
L 406.617849 292.663666 
L 406.617858 292.663674 
L 406.617866 292.663673 
L 406.617874 292.663633 
L 406.617882 292.663671 
L 406.61789 292.663673 
L 406.617898 292.663672 
L 406.617906 292.663674 
L 406.617914 292.663672 
L 406.617923 292.663026 
L 406.617931 292.662484 
L 406.617939 292.662487 
L 406.617947 292.663027 
L 406.617955 292.663027 
L 406.617963 292.663032 
L 406.617971 292.663021 
L 406.61798 292.663028 
L 406.61824 292.66303 
L 406.618761 292.663024 
L 406.619803 292.663013 
L 406.621886 292.663018 
L 406.626054 292.663033 
L 406.634388 292.663048 
L 406.651058 292.663041 
L 406.684396 292.663032 
L 406.751073 292.663022 
L 406.884427 292.663033 
L 407.151135 292.663021 
L 407.684552 292.663035 
L 408.751384 292.663024 
L 410.885049 292.663017 
L 415.152379 292.663027 
L 423.687038 292.663014 
L 440.756358 292.66304 
L 474.894996 292.663015 
L 543.172273 292.663672 
" clip-path="url(#p02c2189e54)" style="fill: none; stroke: #1f77b4; stroke-width: 1.5; stroke-linecap: square"/>
   </g>
   <g id="line2d_53">
    <path d="M 406.617727 292.219673 
L 406.617735 291.973818 
L 406.617744 291.965988 
L 406.617752 291.67462 
L 406.61776 291.571309 
L 406.617768 291.658879 
L 406.617776 291.441809 
L 406.617784 291.46436 
L 406.617792 291.430807 
L 406.617801 291.303495 
L 406.617809 291.620301 
L 406.617817 291.30281 
L 406.617825 291.230269 
L 406.617833 291.196751 
L 406.617841 291.208765 
L 406.617849 291.299932 
L 406.617858 291.132291 
L 406.617866 291.109127 
L 406.617874 291.07979 
L 406.617882 291.082856 
L 406.61789 291.07565 
L 406.617898 291.222996 
L 406.617906 291.036429 
L 406.617914 291.08779 
L 406.617923 291.006427 
L 406.617931 290.989965 
L 406.617939 290.98291 
L 406.617947 290.972676 
L 406.617955 290.961 
L 406.617963 290.967785 
L 406.617971 291.286012 
L 406.61798 291.136599 
L 406.61824 289.491223 
L 406.618761 285.346172 
L 406.619803 284.159335 
L 406.621886 283.019187 
L 406.626054 278.168731 
L 406.634388 275.233843 
L 406.651058 272.000447 
L 406.684396 268.993745 
L 406.751073 263.579873 
L 406.884427 260.925531 
L 407.151135 255.169288 
L 407.684552 250.273296 
L 408.751384 243.613839 
L 410.885049 223.145113 
L 415.152379 185.737771 
L 423.687038 147.707226 
L 440.756358 133.954055 
L 474.894996 141.887376 
L 543.172273 132.144011 
" clip-path="url(#p02c2189e54)" style="fill: none; stroke: #ff7f0e; stroke-width: 1.5; stroke-linecap: square"/>
   </g>
   <g id="line2d_54">
    <path d="M 406.617727 292.213121 
L 406.617735 292.079778 
L 406.617744 292.037351 
L 406.617752 291.591321 
L 406.61776 291.43306 
L 406.617768 291.730159 
L 406.617776 291.358758 
L 406.617784 291.455719 
L 406.617792 291.44844 
L 406.617801 291.267581 
L 406.617809 291.911605 
L 406.617817 291.325638 
L 406.617825 291.239975 
L 406.617833 291.216852 
L 406.617841 291.227327 
L 406.617849 291.375773 
L 406.617858 291.175911 
L 406.617866 291.200916 
L 406.617874 291.125537 
L 406.617882 291.140355 
L 406.61789 291.154583 
L 406.617898 291.456083 
L 406.617906 291.104293 
L 406.617914 291.165495 
L 406.617923 291.100034 
L 406.617931 291.090645 
L 406.617939 291.074994 
L 406.617947 291.089694 
L 406.617955 291.062982 
L 406.617963 291.080834 
L 406.617971 291.809673 
L 406.61798 291.336221 
L 406.61824 290.954772 
L 406.618761 286.492128 
L 406.619803 284.510419 
L 406.621886 279.929913 
L 406.626054 275.347603 
L 406.634388 271.854015 
L 406.651058 268.142834 
L 406.684396 262.842914 
L 406.751073 256.322372 
L 406.884427 248.890097 
L 407.151135 238.567683 
L 407.684552 233.145738 
L 408.751384 187.594718 
L 410.885049 171.171862 
L 415.152379 125.606954 
L 423.687038 99.730712 
L 440.756358 95.387923 
L 474.894996 91.809091 
L 543.172273 92.520917 
" clip-path="url(#p02c2189e54)" style="fill: none; stroke: #2ca02c; stroke-width: 1.5; stroke-linecap: square"/>
   </g>
   <g id="line2d_55">
    <path d="M 406.617727 292.663673 
L 406.617735 292.663673 
L 406.617744 292.663673 
L 406.617752 292.663674 
L 406.61776 292.663647 
L 406.617768 292.663673 
L 406.617776 292.663673 
L 406.617784 292.663672 
L 406.617792 292.663674 
L 406.617801 292.663674 
L 406.617809 292.663674 
L 406.617817 292.663673 
L 406.617825 292.663673 
L 406.617833 292.663672 
L 406.617841 292.663674 
L 406.617849 292.663673 
L 406.617858 292.663674 
L 406.617866 292.663672 
L 406.617874 292.663673 
L 406.617882 292.663673 
L 406.61789 292.663673 
L 406.617898 292.663673 
L 406.617906 292.662557 
L 406.617914 292.662734 
L 406.617923 292.662991 
L 406.617931 292.662637 
L 406.617939 292.662673 
L 406.617947 292.662745 
L 406.617955 292.662481 
L 406.617963 292.662478 
L 406.617971 292.662514 
L 406.61798 292.662757 
L 406.61824 292.663673 
L 406.618761 292.663674 
L 406.619803 292.663673 
L 406.621886 292.663673 
L 406.626054 292.66367 
L 406.634388 292.663673 
L 406.651058 292.663665 
L 406.684396 292.663666 
L 406.751073 292.663672 
L 406.884427 292.663673 
L 407.151135 292.663668 
L 407.684552 292.663667 
L 408.751384 292.663663 
L 410.885049 292.66367 
L 415.152379 292.663671 
L 423.687038 292.66367 
L 440.756358 292.663673 
L 474.894996 292.663672 
L 543.172273 292.663673 
" clip-path="url(#p02c2189e54)" style="fill: none; stroke: #d62728; stroke-width: 1.5; stroke-linecap: square"/>
   </g>
   <g id="patch_14">
    <path d="M 399.79 302.84 
L 399.79 81.76 
" style="fill: none; stroke: #000000; stroke-width: 0.8; stroke-linejoin: miter; stroke-linecap: square"/>
   </g>
   <g id="patch_15">
    <path d="M 550 302.84 
L 550 81.76 
" style="fill: none; stroke: #000000; stroke-width: 0.8; stroke-linejoin: miter; stroke-linecap: square"/>
   </g>
   <g id="patch_16">
    <path d="M 399.79 302.84 
L 550 302.84 
" style="fill: none; stroke: #000000; stroke-width: 0.8; stroke-linejoin: miter; stroke-linecap: square"/>
   </g>
   <g id="patch_17">
    <path d="M 399.79 81.76 
L 550 81.76 
" style="fill: none; stroke: #000000; stroke-width: 0.8; stroke-linejoin: miter; stroke-linecap: square"/>
   </g>
   <g id="text_28">
    <!-- RandomAccess -->
    <g transform="translate(429.51625 75.76) scale(0.12 -0.12)">
     <defs>
      <path id="DejaVuSans-52" d="M 2841 2188 
Q 3044 2119 3236 1894 
Q 3428 1669 3622 1275 
L 4263 0 
L 3584 0 
L 2988 1197 
Q 2756 1666 2539 1819 
Q 2322 1972 1947 1972 
L 1259 1972 
L 1259 0 
L 628 0 
L 628 4666 
L 2053 4666 
Q 2853 4666 3247 4331 
Q 3641 3997 3641 3322 
Q 3641 2881 3436 2590 
Q 3231 2300 2841 2188 
z
M 1259 4147 
L 1259 2491 
L 2053 2491 
Q 2509 2491 2742 2702 
Q 2975 2913 2975 3322 
Q 2975 3731 2742 3939 
Q 2509 4147 2053 4147 
L 1259 4147 
z
" transform="scale(0.015625)"/>
      <path id="DejaVuSans-6e" d="M 3513 2113 
L 3513 0 
L 2938 0 
L 2938 2094 
Q 2938 2591 2744 2837 
Q 2550 3084 2163 3084 
Q 1697 3084 1428 2787 
Q 1159 2491 1159 1978 
L 1159 0 
L 581 0 
L 581 3500 
L 1159 3500 
L 1159 2956 
Q 1366 3272 1645 3428 
Q 1925 3584 2291 3584 
Q 2894 3584 3203 3211 
Q 3513 2838 3513 2113 
z
" transform="scale(0.015625)"/>
      <path id="DejaVuSans-6d" d="M 3328 2828 
Q 3544 3216 3844 3400 
Q 4144 3584 4550 3584 
Q 5097 3584 5394 3201 
Q 5691 2819 5691 2113 
L 5691 0 
L 5113 0 
L 5113 2094 
Q 5113 2597 4934 2840 
Q 4756 3084 4391 3084 
Q 3944 3084 3684 2787 
Q 3425 2491 3425 1978 
L 3425 0 
L 2847 0 
L 2847 2094 
Q 2847 2600 2669 2842 
Q 2491 3084 2119 3084 
Q 1678 3084 1418 2786 
Q 1159 2488 1159 1978 
L 1159 0 
L 581 0 
L 581 3500 
L 1159 3500 
L 1159 2956 
Q 1356 3278 1631 3431 
Q 1906 3584 2284 3584 
Q 2666 3584 2933 3390 
Q 3200 3197 3328 2828 
z
" transform="scale(0.015625)"/>
     </defs>
     <use xlink:href="#DejaVuSans-52"/>
     <use xlink:href="#DejaVuSans-61" transform="translate(67.232422 0)"/>
     <use xlink:href="#DejaVuSans-6e" transform="translate(128.511719 0)"/>
     <use xlink:href="#DejaVuSans-64" transform="translate(191.890625 0)"/>
     <use xlink:href="#DejaVuSans-6f" transform="translate(255.367188 0)"/>
     <use xlink:href="#DejaVuSans-6d" transform="translate(316.548828 0)"/>
     <use xlink:href="#DejaVuSans-41" transform="translate(413.960938 0)"/>
     <use xlink:href="#DejaVuSans-63" transform="translate(480.619141 0)"/>
     <use xlink:href="#DejaVuSans-63" transform="translate(535.599609 0)"/>
     <use xlink:href="#DejaVuSans-65" transform="translate(590.580078 0)"/>
     <use xlink:href="#DejaVuSans-73" transform="translate(652.103516 0)"/>
     <use xlink:href="#DejaVuSans-73" transform="translate(704.203125 0)"/>
    </g>
   </g>
  </g>
  <g id="text_29">
   <!-- Data Struct access time -->
   <g transform="translate(191.187 18.14175) scale(0.144 -0.144)">
    <defs>
     <path id="DejaVuSans-Bold-44" d="M 1791 3756 
L 1791 909 
L 2222 909 
Q 2959 909 3348 1275 
Q 3738 1641 3738 2338 
Q 3738 3031 3350 3393 
Q 2963 3756 2222 3756 
L 1791 3756 
z
M 588 4666 
L 1856 4666 
Q 2919 4666 3439 4514 
Q 3959 4363 4331 4000 
Q 4659 3684 4818 3271 
Q 4978 2859 4978 2338 
Q 4978 1809 4818 1395 
Q 4659 981 4331 666 
Q 3956 303 3431 151 
Q 2906 0 1856 0 
L 588 0 
L 588 4666 
z
" transform="scale(0.015625)"/>
     <path id="DejaVuSans-Bold-61" d="M 2106 1575 
Q 1756 1575 1579 1456 
Q 1403 1338 1403 1106 
Q 1403 894 1545 773 
Q 1688 653 1941 653 
Q 2256 653 2472 879 
Q 2688 1106 2688 1447 
L 2688 1575 
L 2106 1575 
z
M 3816 1997 
L 3816 0 
L 2688 0 
L 2688 519 
Q 2463 200 2181 54 
Q 1900 -91 1497 -91 
Q 953 -91 614 226 
Q 275 544 275 1050 
Q 275 1666 698 1953 
Q 1122 2241 2028 2241 
L 2688 2241 
L 2688 2328 
Q 2688 2594 2478 2717 
Q 2269 2841 1825 2841 
Q 1466 2841 1156 2769 
Q 847 2697 581 2553 
L 581 3406 
Q 941 3494 1303 3539 
Q 1666 3584 2028 3584 
Q 2975 3584 3395 3211 
Q 3816 2838 3816 1997 
z
" transform="scale(0.015625)"/>
     <path id="DejaVuSans-Bold-74" d="M 1759 4494 
L 1759 3500 
L 2913 3500 
L 2913 2700 
L 1759 2700 
L 1759 1216 
Q 1759 972 1856 886 
Q 1953 800 2241 800 
L 2816 800 
L 2816 0 
L 1856 0 
Q 1194 0 917 276 
Q 641 553 641 1216 
L 641 2700 
L 84 2700 
L 84 3500 
L 641 3500 
L 641 4494 
L 1759 4494 
z
" transform="scale(0.015625)"/>
     <path id="DejaVuSans-Bold-20" transform="scale(0.015625)"/>
     <path id="DejaVuSans-Bold-53" d="M 3834 4519 
L 3834 3531 
Q 3450 3703 3084 3790 
Q 2719 3878 2394 3878 
Q 1963 3878 1756 3759 
Q 1550 3641 1550 3391 
Q 1550 3203 1689 3098 
Q 1828 2994 2194 2919 
L 2706 2816 
Q 3484 2659 3812 2340 
Q 4141 2022 4141 1434 
Q 4141 663 3683 286 
Q 3225 -91 2284 -91 
Q 1841 -91 1394 -6 
Q 947 78 500 244 
L 500 1259 
Q 947 1022 1364 901 
Q 1781 781 2169 781 
Q 2563 781 2772 912 
Q 2981 1044 2981 1288 
Q 2981 1506 2839 1625 
Q 2697 1744 2272 1838 
L 1806 1941 
Q 1106 2091 782 2419 
Q 459 2747 459 3303 
Q 459 4000 909 4375 
Q 1359 4750 2203 4750 
Q 2588 4750 2994 4692 
Q 3400 4634 3834 4519 
z
" transform="scale(0.015625)"/>
     <path id="DejaVuSans-Bold-72" d="M 3138 2547 
Q 2991 2616 2845 2648 
Q 2700 2681 2553 2681 
Q 2122 2681 1889 2404 
Q 1656 2128 1656 1613 
L 1656 0 
L 538 0 
L 538 3500 
L 1656 3500 
L 1656 2925 
Q 1872 3269 2151 3426 
Q 2431 3584 2822 3584 
Q 2878 3584 2943 3579 
Q 3009 3575 3134 3559 
L 3138 2547 
z
" transform="scale(0.015625)"/>
     <path id="DejaVuSans-Bold-75" d="M 500 1363 
L 500 3500 
L 1625 3500 
L 1625 3150 
Q 1625 2866 1622 2436 
Q 1619 2006 1619 1863 
Q 1619 1441 1641 1255 
Q 1663 1069 1716 984 
Q 1784 875 1895 815 
Q 2006 756 2150 756 
Q 2500 756 2700 1025 
Q 2900 1294 2900 1772 
L 2900 3500 
L 4019 3500 
L 4019 0 
L 2900 0 
L 2900 506 
Q 2647 200 2364 54 
Q 2081 -91 1741 -91 
Q 1134 -91 817 281 
Q 500 653 500 1363 
z
" transform="scale(0.015625)"/>
     <path id="DejaVuSans-Bold-63" d="M 3366 3391 
L 3366 2478 
Q 3138 2634 2908 2709 
Q 2678 2784 2431 2784 
Q 1963 2784 1702 2511 
Q 1441 2238 1441 1747 
Q 1441 1256 1702 982 
Q 1963 709 2431 709 
Q 2694 709 2930 787 
Q 3166 866 3366 1019 
L 3366 103 
Q 3103 6 2833 -42 
Q 2563 -91 2291 -91 
Q 1344 -91 809 395 
Q 275 881 275 1747 
Q 275 2613 809 3098 
Q 1344 3584 2291 3584 
Q 2566 3584 2833 3536 
Q 3100 3488 3366 3391 
z
" transform="scale(0.015625)"/>
     <path id="DejaVuSans-Bold-65" d="M 4031 1759 
L 4031 1441 
L 1416 1441 
Q 1456 1047 1700 850 
Q 1944 653 2381 653 
Q 2734 653 3104 758 
Q 3475 863 3866 1075 
L 3866 213 
Q 3469 63 3072 -14 
Q 2675 -91 2278 -91 
Q 1328 -91 801 392 
Q 275 875 275 1747 
Q 275 2603 792 3093 
Q 1309 3584 2216 3584 
Q 3041 3584 3536 3087 
Q 4031 2591 4031 1759 
z
M 2881 2131 
Q 2881 2450 2695 2645 
Q 2509 2841 2209 2841 
Q 1884 2841 1681 2658 
Q 1478 2475 1428 2131 
L 2881 2131 
z
" transform="scale(0.015625)"/>
     <path id="DejaVuSans-Bold-73" d="M 3272 3391 
L 3272 2541 
Q 2913 2691 2578 2766 
Q 2244 2841 1947 2841 
Q 1628 2841 1473 2761 
Q 1319 2681 1319 2516 
Q 1319 2381 1436 2309 
Q 1553 2238 1856 2203 
L 2053 2175 
Q 2913 2066 3209 1816 
Q 3506 1566 3506 1031 
Q 3506 472 3093 190 
Q 2681 -91 1863 -91 
Q 1516 -91 1145 -36 
Q 775 19 384 128 
L 384 978 
Q 719 816 1070 734 
Q 1422 653 1784 653 
Q 2113 653 2278 743 
Q 2444 834 2444 1013 
Q 2444 1163 2330 1236 
Q 2216 1309 1875 1350 
L 1678 1375 
Q 931 1469 631 1722 
Q 331 1975 331 2491 
Q 331 3047 712 3315 
Q 1094 3584 1881 3584 
Q 2191 3584 2531 3537 
Q 2872 3491 3272 3391 
z
" transform="scale(0.015625)"/>
     <path id="DejaVuSans-Bold-69" d="M 538 3500 
L 1656 3500 
L 1656 0 
L 538 0 
L 538 3500 
z
M 538 4863 
L 1656 4863 
L 1656 3950 
L 538 3950 
L 538 4863 
z
" transform="scale(0.015625)"/>
     <path id="DejaVuSans-Bold-6d" d="M 3781 2919 
Q 3994 3244 4286 3414 
Q 4578 3584 4928 3584 
Q 5531 3584 5847 3212 
Q 6163 2841 6163 2131 
L 6163 0 
L 5038 0 
L 5038 1825 
Q 5041 1866 5042 1909 
Q 5044 1953 5044 2034 
Q 5044 2406 4934 2573 
Q 4825 2741 4581 2741 
Q 4263 2741 4089 2478 
Q 3916 2216 3909 1719 
L 3909 0 
L 2784 0 
L 2784 1825 
Q 2784 2406 2684 2573 
Q 2584 2741 2328 2741 
Q 2006 2741 1831 2477 
Q 1656 2213 1656 1722 
L 1656 0 
L 531 0 
L 531 3500 
L 1656 3500 
L 1656 2988 
Q 1863 3284 2130 3434 
Q 2397 3584 2719 3584 
Q 3081 3584 3359 3409 
Q 3638 3234 3781 2919 
z
" transform="scale(0.015625)"/>
    </defs>
    <use xlink:href="#DejaVuSans-Bold-44"/>
    <use xlink:href="#DejaVuSans-Bold-61" transform="translate(83.007812 0)"/>
    <use xlink:href="#DejaVuSans-Bold-74" transform="translate(150.488281 0)"/>
    <use xlink:href="#DejaVuSans-Bold-61" transform="translate(198.291016 0)"/>
    <use xlink:href="#DejaVuSans-Bold-20" transform="translate(265.771484 0)"/>
    <use xlink:href="#DejaVuSans-Bold-53" transform="translate(300.585938 0)"/>
    <use xlink:href="#DejaVuSans-Bold-74" transform="translate(372.607422 0)"/>
    <use xlink:href="#DejaVuSans-Bold-72" transform="translate(420.410156 0)"/>
    <use xlink:href="#DejaVuSans-Bold-75" transform="translate(469.726562 0)"/>
    <use xlink:href="#DejaVuSans-Bold-63" transform="translate(540.917969 0)"/>
    <use xlink:href="#DejaVuSans-Bold-74" transform="translate(600.195312 0)"/>
    <use xlink:href="#DejaVuSans-Bold-20" transform="translate(647.998047 0)"/>
    <use xlink:href="#DejaVuSans-Bold-61" transform="translate(682.8125 0)"/>
    <use xlink:href="#DejaVuSans-Bold-63" transform="translate(750.292969 0)"/>
    <use xlink:href="#DejaVuSans-Bold-63" transform="translate(809.570312 0)"/>
    <use xlink:href="#DejaVuSans-Bold-65" transform="translate(868.847656 0)"/>
    <use xlink:href="#DejaVuSans-Bold-73" transform="translate(936.669922 0)"/>
    <use xlink:href="#DejaVuSans-Bold-73" transform="translate(996.191406 0)"/>
    <use xlink:href="#DejaVuSans-Bold-20" transform="translate(1055.712891 0)"/>
    <use xlink:href="#DejaVuSans-Bold-74" transform="translate(1090.527344 0)"/>
    <use xlink:href="#DejaVuSans-Bold-69" transform="translate(1138.330078 0)"/>
    <use xlink:href="#DejaVuSans-Bold-6d" transform="translate(1172.607422 0)"/>
    <use xlink:href="#DejaVuSans-Bold-65" transform="translate(1276.806641 0)"/>
   </g>
  </g>
  <g id="text_30">
   <!-- CPU cycle - linear scale -->
   <g style="fill: #808080" transform="translate(206.413906 35.837812) scale(0.14 -0.14)">
    <defs>
     <path id="DejaVuSans-2d" d="M 313 2009 
L 1997 2009 
L 1997 1497 
L 313 1497 
L 313 2009 
z
" transform="scale(0.015625)"/>
     <path id="DejaVuSans-69" d="M 603 3500 
L 1178 3500 
L 1178 0 
L 603 0 
L 603 3500 
z
M 603 4863 
L 1178 4863 
L 1178 4134 
L 603 4134 
L 603 4863 
z
" transform="scale(0.015625)"/>
    </defs>
    <use xlink:href="#DejaVuSans-43"/>
    <use xlink:href="#DejaVuSans-50" transform="translate(69.824219 0)"/>
    <use xlink:href="#DejaVuSans-55" transform="translate(130.126953 0)"/>
    <use xlink:href="#DejaVuSans-20" transform="translate(203.320312 0)"/>
    <use xlink:href="#DejaVuSans-63" transform="translate(235.107422 0)"/>
    <use xlink:href="#DejaVuSans-79" transform="translate(290.087891 0)"/>
    <use xlink:href="#DejaVuSans-63" transform="translate(349.267578 0)"/>
    <use xlink:href="#DejaVuSans-6c" transform="translate(404.248047 0)"/>
    <use xlink:href="#DejaVuSans-65" transform="translate(432.03125 0)"/>
    <use xlink:href="#DejaVuSans-20" transform="translate(493.554688 0)"/>
    <use xlink:href="#DejaVuSans-2d" transform="translate(525.341797 0)"/>
    <use xlink:href="#DejaVuSans-20" transform="translate(561.425781 0)"/>
    <use xlink:href="#DejaVuSans-6c" transform="translate(593.212891 0)"/>
    <use xlink:href="#DejaVuSans-69" transform="translate(620.996094 0)"/>
    <use xlink:href="#DejaVuSans-6e" transform="translate(648.779297 0)"/>
    <use xlink:href="#DejaVuSans-65" transform="translate(712.158203 0)"/>
    <use xlink:href="#DejaVuSans-61" transform="translate(773.681641 0)"/>
    <use xlink:href="#DejaVuSans-72" transform="translate(834.960938 0)"/>
    <use xlink:href="#DejaVuSans-20" transform="translate(876.074219 0)"/>
    <use xlink:href="#DejaVuSans-73" transform="translate(907.861328 0)"/>
    <use xlink:href="#DejaVuSans-63" transform="translate(959.960938 0)"/>
    <use xlink:href="#DejaVuSans-61" transform="translate(1014.941406 0)"/>
    <use xlink:href="#DejaVuSans-6c" transform="translate(1076.220703 0)"/>
    <use xlink:href="#DejaVuSans-65" transform="translate(1104.003906 0)"/>
   </g>
  </g>
 </g>
 <defs>
  <clipPath id="p1460d0aa79">
   <rect x="72.37" y="81.76" width="150.21" height="221.08"/>
  </clipPath>
  <clipPath id="pcf8acc99f2">
   <rect x="236.08" y="81.76" width="150.21" height="221.08"/>
  </clipPath>
  <clipPath id="p02c2189e54">
   <rect x="399.79" y="81.76" width="150.21" height="221.08"/>
  </clipPath>
 </defs>
</svg>
