<?xml version="1.0" encoding="utf-8" standalone="no"?>
<!DOCTYPE svg PUBLIC "-//W3C//DTD SVG 1.1//EN"
  "http://www.w3.org/Graphics/SVG/1.1/DTD/svg11.dtd">
<svg xmlns:xlink="http://www.w3.org/1999/xlink" width="576pt" height="360pt" viewBox="0 0 576 360" xmlns="http://www.w3.org/2000/svg" version="1.1">
 <metadata>
  <rdf:RDF xmlns:dc="http://purl.org/dc/elements/1.1/" xmlns:cc="http://creativecommons.org/ns#" xmlns:rdf="http://www.w3.org/1999/02/22-rdf-syntax-ns#">
   <cc:Work>
    <dc:type rdf:resource="http://purl.org/dc/dcmitype/StillImage"/>
    <dc:date>2025-06-01T21:35:29.346973</dc:date>
    <dc:format>image/svg+xml</dc:format>
    <dc:creator>
     <cc:Agent>
      <dc:title>Matplotlib v3.10.3, https://matplotlib.org/</dc:title>
     </cc:Agent>
    </dc:creator>
   </cc:Work>
  </rdf:RDF>
 </metadata>
 <defs>
  <style type="text/css">*{stroke-linejoin: round; stroke-linecap: butt}</style>
 </defs>
 <g id="figure_1">
  <g id="patch_1">
   <path d="M 0 360 
L 576 360 
L 576 0 
L 0 0 
z
" style="fill: #ffffff"/>
  </g>
  <g id="axes_1">
   <g id="patch_2">
    <path d="M 72.37 302.84 
L 222.58 302.84 
L 222.58 81.76 
L 72.37 81.76 
z
" style="fill: #ffffff"/>
   </g>
   <g id="matplotlib.axis_1">
    <g id="xtick_1">
     <g id="line2d_1">
      <defs>
       <path id="m0073003cde" d="M 0 0 
L 0 3.5 
" style="stroke: #000000; stroke-width: 0.8"/>
      </defs>
      <g>
       <use xlink:href="#m0073003cde" x="79.197719" y="302.84" style="stroke: #000000; stroke-width: 0.8"/>
      </g>
     </g>
     <g id="text_1">
      <!-- 0 -->
      <g transform="translate(76.016469 317.438438) scale(0.1 -0.1)">
       <defs>
        <path id="DejaVuSans-30" d="M 2034 4250 
Q 1547 4250 1301 3770 
Q 1056 3291 1056 2328 
Q 1056 1369 1301 889 
Q 1547 409 2034 409 
Q 2525 409 2770 889 
Q 3016 1369 3016 2328 
Q 3016 3291 2770 3770 
Q 2525 4250 2034 4250 
z
M 2034 4750 
Q 2819 4750 3233 4129 
Q 3647 3509 3647 2328 
Q 3647 1150 3233 529 
Q 2819 -91 2034 -91 
Q 1250 -91 836 529 
Q 422 1150 422 2328 
Q 422 3509 836 4129 
Q 1250 4750 2034 4750 
z
" transform="scale(0.015625)"/>
       </defs>
       <use xlink:href="#DejaVuSans-30"/>
      </g>
     </g>
    </g>
    <g id="xtick_2">
     <g id="line2d_2">
      <g>
       <use xlink:href="#m0073003cde" x="130.068255" y="302.84" style="stroke: #000000; stroke-width: 0.8"/>
      </g>
     </g>
     <g id="text_2">
      <!-- 2 -->
      <g transform="translate(126.887005 317.438438) scale(0.1 -0.1)">
       <defs>
        <path id="DejaVuSans-32" d="M 1228 531 
L 3431 531 
L 3431 0 
L 469 0 
L 469 531 
Q 828 903 1448 1529 
Q 2069 2156 2228 2338 
Q 2531 2678 2651 2914 
Q 2772 3150 2772 3378 
Q 2772 3750 2511 3984 
Q 2250 4219 1831 4219 
Q 1534 4219 1204 4116 
Q 875 4013 500 3803 
L 500 4441 
Q 881 4594 1212 4672 
Q 1544 4750 1819 4750 
Q 2544 4750 2975 4387 
Q 3406 4025 3406 3419 
Q 3406 3131 3298 2873 
Q 3191 2616 2906 2266 
Q 2828 2175 2409 1742 
Q 1991 1309 1228 531 
z
" transform="scale(0.015625)"/>
       </defs>
       <use xlink:href="#DejaVuSans-32"/>
      </g>
     </g>
    </g>
    <g id="xtick_3">
     <g id="line2d_3">
      <g>
       <use xlink:href="#m0073003cde" x="180.93879" y="302.84" style="stroke: #000000; stroke-width: 0.8"/>
      </g>
     </g>
     <g id="text_3">
      <!-- 4 -->
      <g transform="translate(177.75754 317.438438) scale(0.1 -0.1)">
       <defs>
        <path id="DejaVuSans-34" d="M 2419 4116 
L 825 1625 
L 2419 1625 
L 2419 4116 
z
M 2253 4666 
L 3047 4666 
L 3047 1625 
L 3713 1625 
L 3713 1100 
L 3047 1100 
L 3047 0 
L 2419 0 
L 2419 1100 
L 313 1100 
L 313 1709 
L 2253 4666 
z
" transform="scale(0.015625)"/>
       </defs>
       <use xlink:href="#DejaVuSans-34"/>
      </g>
     </g>
    </g>
    <g id="text_4">
     <!-- N -->
     <g transform="translate(143.734375 331.116562) scale(0.1 -0.1)">
      <defs>
       <path id="DejaVuSans-4e" d="M 628 4666 
L 1478 4666 
L 3547 763 
L 3547 4666 
L 4159 4666 
L 4159 0 
L 3309 0 
L 1241 3903 
L 1241 0 
L 628 0 
L 628 4666 
z
" transform="scale(0.015625)"/>
      </defs>
      <use xlink:href="#DejaVuSans-4e"/>
     </g>
    </g>
    <g id="text_5">
     <!-- 1e8 -->
     <g transform="translate(203.701875 330.116562) scale(0.1 -0.1)">
      <defs>
       <path id="DejaVuSans-31" d="M 794 531 
L 1825 531 
L 1825 4091 
L 703 3866 
L 703 4441 
L 1819 4666 
L 2450 4666 
L 2450 531 
L 3481 531 
L 3481 0 
L 794 0 
L 794 531 
z
" transform="scale(0.015625)"/>
       <path id="DejaVuSans-65" d="M 3597 1894 
L 3597 1613 
L 953 1613 
Q 991 1019 1311 708 
Q 1631 397 2203 397 
Q 2534 397 2845 478 
Q 3156 559 3463 722 
L 3463 178 
Q 3153 47 2828 -22 
Q 2503 -91 2169 -91 
Q 1331 -91 842 396 
Q 353 884 353 1716 
Q 353 2575 817 3079 
Q 1281 3584 2069 3584 
Q 2775 3584 3186 3129 
Q 3597 2675 3597 1894 
z
M 3022 2063 
Q 3016 2534 2758 2815 
Q 2500 3097 2075 3097 
Q 1594 3097 1305 2825 
Q 1016 2553 972 2059 
L 3022 2063 
z
" transform="scale(0.015625)"/>
       <path id="DejaVuSans-38" d="M 2034 2216 
Q 1584 2216 1326 1975 
Q 1069 1734 1069 1313 
Q 1069 891 1326 650 
Q 1584 409 2034 409 
Q 2484 409 2743 651 
Q 3003 894 3003 1313 
Q 3003 1734 2745 1975 
Q 2488 2216 2034 2216 
z
M 1403 2484 
Q 997 2584 770 2862 
Q 544 3141 544 3541 
Q 544 4100 942 4425 
Q 1341 4750 2034 4750 
Q 2731 4750 3128 4425 
Q 3525 4100 3525 3541 
Q 3525 3141 3298 2862 
Q 3072 2584 2669 2484 
Q 3125 2378 3379 2068 
Q 3634 1759 3634 1313 
Q 3634 634 3220 271 
Q 2806 -91 2034 -91 
Q 1263 -91 848 271 
Q 434 634 434 1313 
Q 434 1759 690 2068 
Q 947 2378 1403 2484 
z
M 1172 3481 
Q 1172 3119 1398 2916 
Q 1625 2713 2034 2713 
Q 2441 2713 2670 2916 
Q 2900 3119 2900 3481 
Q 2900 3844 2670 4047 
Q 2441 4250 2034 4250 
Q 1625 4250 1398 4047 
Q 1172 3844 1172 3481 
z
" transform="scale(0.015625)"/>
      </defs>
      <use xlink:href="#DejaVuSans-31"/>
      <use xlink:href="#DejaVuSans-65" transform="translate(63.623047 0)"/>
      <use xlink:href="#DejaVuSans-38" transform="translate(125.146484 0)"/>
     </g>
    </g>
   </g>
   <g id="matplotlib.axis_2">
    <g id="ytick_1">
     <g id="line2d_4">
      <path d="M 72.37 292.902266 
L 222.58 292.902266 
" clip-path="url(#pdfa96b332d)" style="fill: none; stroke: #b0b0b0; stroke-width: 0.8; stroke-linecap: square"/>
     </g>
     <g id="line2d_5">
      <defs>
       <path id="mf257dec722" d="M 0 0 
L -3.5 0 
" style="stroke: #000000; stroke-width: 0.8"/>
      </defs>
      <g>
       <use xlink:href="#mf257dec722" x="72.37" y="292.902266" style="stroke: #000000; stroke-width: 0.8"/>
      </g>
     </g>
     <g id="text_6">
      <!-- 0 -->
      <g transform="translate(59.0075 296.701485) scale(0.1 -0.1)">
       <use xlink:href="#DejaVuSans-30"/>
      </g>
     </g>
    </g>
    <g id="ytick_2">
     <g id="line2d_6">
      <path d="M 72.37 256.338559 
L 222.58 256.338559 
" clip-path="url(#pdfa96b332d)" style="fill: none; stroke: #b0b0b0; stroke-width: 0.8; stroke-linecap: square"/>
     </g>
     <g id="line2d_7">
      <g>
       <use xlink:href="#mf257dec722" x="72.37" y="256.338559" style="stroke: #000000; stroke-width: 0.8"/>
      </g>
     </g>
     <g id="text_7">
      <!-- 200 -->
      <g transform="translate(46.2825 260.137778) scale(0.1 -0.1)">
       <use xlink:href="#DejaVuSans-32"/>
       <use xlink:href="#DejaVuSans-30" transform="translate(63.623047 0)"/>
       <use xlink:href="#DejaVuSans-30" transform="translate(127.246094 0)"/>
      </g>
     </g>
    </g>
    <g id="ytick_3">
     <g id="line2d_8">
      <path d="M 72.37 219.774852 
L 222.58 219.774852 
" clip-path="url(#pdfa96b332d)" style="fill: none; stroke: #b0b0b0; stroke-width: 0.8; stroke-linecap: square"/>
     </g>
     <g id="line2d_9">
      <g>
       <use xlink:href="#mf257dec722" x="72.37" y="219.774852" style="stroke: #000000; stroke-width: 0.8"/>
      </g>
     </g>
     <g id="text_8">
      <!-- 400 -->
      <g transform="translate(46.2825 223.574071) scale(0.1 -0.1)">
       <use xlink:href="#DejaVuSans-34"/>
       <use xlink:href="#DejaVuSans-30" transform="translate(63.623047 0)"/>
       <use xlink:href="#DejaVuSans-30" transform="translate(127.246094 0)"/>
      </g>
     </g>
    </g>
    <g id="ytick_4">
     <g id="line2d_10">
      <path d="M 72.37 183.211145 
L 222.58 183.211145 
" clip-path="url(#pdfa96b332d)" style="fill: none; stroke: #b0b0b0; stroke-width: 0.8; stroke-linecap: square"/>
     </g>
     <g id="line2d_11">
      <g>
       <use xlink:href="#mf257dec722" x="72.37" y="183.211145" style="stroke: #000000; stroke-width: 0.8"/>
      </g>
     </g>
     <g id="text_9">
      <!-- 600 -->
      <g transform="translate(46.2825 187.010363) scale(0.1 -0.1)">
       <defs>
        <path id="DejaVuSans-36" d="M 2113 2584 
Q 1688 2584 1439 2293 
Q 1191 2003 1191 1497 
Q 1191 994 1439 701 
Q 1688 409 2113 409 
Q 2538 409 2786 701 
Q 3034 994 3034 1497 
Q 3034 2003 2786 2293 
Q 2538 2584 2113 2584 
z
M 3366 4563 
L 3366 3988 
Q 3128 4100 2886 4159 
Q 2644 4219 2406 4219 
Q 1781 4219 1451 3797 
Q 1122 3375 1075 2522 
Q 1259 2794 1537 2939 
Q 1816 3084 2150 3084 
Q 2853 3084 3261 2657 
Q 3669 2231 3669 1497 
Q 3669 778 3244 343 
Q 2819 -91 2113 -91 
Q 1303 -91 875 529 
Q 447 1150 447 2328 
Q 447 3434 972 4092 
Q 1497 4750 2381 4750 
Q 2619 4750 2861 4703 
Q 3103 4656 3366 4563 
z
" transform="scale(0.015625)"/>
       </defs>
       <use xlink:href="#DejaVuSans-36"/>
       <use xlink:href="#DejaVuSans-30" transform="translate(63.623047 0)"/>
       <use xlink:href="#DejaVuSans-30" transform="translate(127.246094 0)"/>
      </g>
     </g>
    </g>
    <g id="ytick_5">
     <g id="line2d_12">
      <path d="M 72.37 146.647437 
L 222.58 146.647437 
" clip-path="url(#pdfa96b332d)" style="fill: none; stroke: #b0b0b0; stroke-width: 0.8; stroke-linecap: square"/>
     </g>
     <g id="line2d_13">
      <g>
       <use xlink:href="#mf257dec722" x="72.37" y="146.647437" style="stroke: #000000; stroke-width: 0.8"/>
      </g>
     </g>
     <g id="text_10">
      <!-- 800 -->
      <g transform="translate(46.2825 150.446656) scale(0.1 -0.1)">
       <use xlink:href="#DejaVuSans-38"/>
       <use xlink:href="#DejaVuSans-30" transform="translate(63.623047 0)"/>
       <use xlink:href="#DejaVuSans-30" transform="translate(127.246094 0)"/>
      </g>
     </g>
    </g>
    <g id="ytick_6">
     <g id="line2d_14">
      <path d="M 72.37 110.08373 
L 222.58 110.08373 
" clip-path="url(#pdfa96b332d)" style="fill: none; stroke: #b0b0b0; stroke-width: 0.8; stroke-linecap: square"/>
     </g>
     <g id="line2d_15">
      <g>
       <use xlink:href="#mf257dec722" x="72.37" y="110.08373" style="stroke: #000000; stroke-width: 0.8"/>
      </g>
     </g>
     <g id="text_11">
      <!-- 1000 -->
      <g transform="translate(39.92 113.882949) scale(0.1 -0.1)">
       <use xlink:href="#DejaVuSans-31"/>
       <use xlink:href="#DejaVuSans-30" transform="translate(63.623047 0)"/>
       <use xlink:href="#DejaVuSans-30" transform="translate(127.246094 0)"/>
       <use xlink:href="#DejaVuSans-30" transform="translate(190.869141 0)"/>
      </g>
     </g>
    </g>
    <g id="text_12">
     <!-- Time (ns) -->
     <g transform="translate(33.840312 215.797656) rotate(-90) scale(0.1 -0.1)">
      <defs>
       <path id="DejaVuSans-54" d="M -19 4666 
L 3928 4666 
L 3928 4134 
L 2272 4134 
L 2272 0 
L 1638 0 
L 1638 4134 
L -19 4134 
L -19 4666 
z
" transform="scale(0.015625)"/>
       <path id="DejaVuSans-69" d="M 603 3500 
L 1178 3500 
L 1178 0 
L 603 0 
L 603 3500 
z
M 603 4863 
L 1178 4863 
L 1178 4134 
L 603 4134 
L 603 4863 
z
" transform="scale(0.015625)"/>
       <path id="DejaVuSans-6d" d="M 3328 2828 
Q 3544 3216 3844 3400 
Q 4144 3584 4550 3584 
Q 5097 3584 5394 3201 
Q 5691 2819 5691 2113 
L 5691 0 
L 5113 0 
L 5113 2094 
Q 5113 2597 4934 2840 
Q 4756 3084 4391 3084 
Q 3944 3084 3684 2787 
Q 3425 2491 3425 1978 
L 3425 0 
L 2847 0 
L 2847 2094 
Q 2847 2600 2669 2842 
Q 2491 3084 2119 3084 
Q 1678 3084 1418 2786 
Q 1159 2488 1159 1978 
L 1159 0 
L 581 0 
L 581 3500 
L 1159 3500 
L 1159 2956 
Q 1356 3278 1631 3431 
Q 1906 3584 2284 3584 
Q 2666 3584 2933 3390 
Q 3200 3197 3328 2828 
z
" transform="scale(0.015625)"/>
       <path id="DejaVuSans-20" transform="scale(0.015625)"/>
       <path id="DejaVuSans-28" d="M 1984 4856 
Q 1566 4138 1362 3434 
Q 1159 2731 1159 2009 
Q 1159 1288 1364 580 
Q 1569 -128 1984 -844 
L 1484 -844 
Q 1016 -109 783 600 
Q 550 1309 550 2009 
Q 550 2706 781 3412 
Q 1013 4119 1484 4856 
L 1984 4856 
z
" transform="scale(0.015625)"/>
       <path id="DejaVuSans-6e" d="M 3513 2113 
L 3513 0 
L 2938 0 
L 2938 2094 
Q 2938 2591 2744 2837 
Q 2550 3084 2163 3084 
Q 1697 3084 1428 2787 
Q 1159 2491 1159 1978 
L 1159 0 
L 581 0 
L 581 3500 
L 1159 3500 
L 1159 2956 
Q 1366 3272 1645 3428 
Q 1925 3584 2291 3584 
Q 2894 3584 3203 3211 
Q 3513 2838 3513 2113 
z
" transform="scale(0.015625)"/>
       <path id="DejaVuSans-73" d="M 2834 3397 
L 2834 2853 
Q 2591 2978 2328 3040 
Q 2066 3103 1784 3103 
Q 1356 3103 1142 2972 
Q 928 2841 928 2578 
Q 928 2378 1081 2264 
Q 1234 2150 1697 2047 
L 1894 2003 
Q 2506 1872 2764 1633 
Q 3022 1394 3022 966 
Q 3022 478 2636 193 
Q 2250 -91 1575 -91 
Q 1294 -91 989 -36 
Q 684 19 347 128 
L 347 722 
Q 666 556 975 473 
Q 1284 391 1588 391 
Q 1994 391 2212 530 
Q 2431 669 2431 922 
Q 2431 1156 2273 1281 
Q 2116 1406 1581 1522 
L 1381 1569 
Q 847 1681 609 1914 
Q 372 2147 372 2553 
Q 372 3047 722 3315 
Q 1072 3584 1716 3584 
Q 2034 3584 2315 3537 
Q 2597 3491 2834 3397 
z
" transform="scale(0.015625)"/>
       <path id="DejaVuSans-29" d="M 513 4856 
L 1013 4856 
Q 1481 4119 1714 3412 
Q 1947 2706 1947 2009 
Q 1947 1309 1714 600 
Q 1481 -109 1013 -844 
L 513 -844 
Q 928 -128 1133 580 
Q 1338 1288 1338 2009 
Q 1338 2731 1133 3434 
Q 928 4138 513 4856 
z
" transform="scale(0.015625)"/>
      </defs>
      <use xlink:href="#DejaVuSans-54"/>
      <use xlink:href="#DejaVuSans-69" transform="translate(57.958984 0)"/>
      <use xlink:href="#DejaVuSans-6d" transform="translate(85.742188 0)"/>
      <use xlink:href="#DejaVuSans-65" transform="translate(183.154297 0)"/>
      <use xlink:href="#DejaVuSans-20" transform="translate(244.677734 0)"/>
      <use xlink:href="#DejaVuSans-28" transform="translate(276.464844 0)"/>
      <use xlink:href="#DejaVuSans-6e" transform="translate(315.478516 0)"/>
      <use xlink:href="#DejaVuSans-73" transform="translate(378.857422 0)"/>
      <use xlink:href="#DejaVuSans-29" transform="translate(430.957031 0)"/>
     </g>
    </g>
   </g>
   <g id="line2d_16">
    <path d="M 79.197727 292.776709 
L 79.197735 292.772388 
L 79.197744 292.765404 
L 79.197752 292.769181 
L 79.19776 292.769317 
L 79.197768 292.766631 
L 79.197776 292.769349 
L 79.197784 292.767595 
L 79.197792 292.768522 
L 79.197801 292.779284 
L 79.197809 292.778386 
L 79.197817 292.769265 
L 79.197825 292.769437 
L 79.197833 292.781835 
L 79.197841 292.781697 
L 79.197849 292.781671 
L 79.197858 292.781677 
L 79.197866 292.781657 
L 79.197874 292.781642 
L 79.197882 292.781654 
L 79.19789 292.781664 
L 79.197898 292.781657 
L 79.197906 292.781654 
L 79.197914 292.781649 
L 79.197923 292.78167 
L 79.197931 292.781687 
L 79.197939 292.781951 
L 79.197947 292.781863 
L 79.197955 292.781667 
L 79.197963 292.781665 
L 79.197971 292.781659 
L 79.19798 292.781647 
L 79.19824 292.767051 
L 79.198761 292.779731 
L 79.199803 292.773392 
L 79.201886 292.766554 
L 79.206054 292.769373 
L 79.214388 292.782774 
L 79.231058 292.78277 
L 79.264396 292.782734 
L 79.331073 292.78276 
L 79.464427 292.782767 
L 79.731135 292.78277 
L 80.264552 292.782768 
L 81.331384 292.78278 
L 83.465049 292.782848 
L 87.732379 292.776911 
L 96.267038 292.76543 
L 113.336358 292.782718 
L 147.474996 292.765347 
L 215.752273 292.76528 
" clip-path="url(#pdfa96b332d)" style="fill: none; stroke: #1f77b4; stroke-width: 1.5; stroke-linecap: square"/>
   </g>
   <g id="line2d_17">
    <path d="M 79.197727 292.361954 
L 79.197735 292.149698 
L 79.197744 292.041827 
L 79.197752 291.900087 
L 79.19776 291.778817 
L 79.197768 291.862379 
L 79.197776 291.83107 
L 79.197784 291.795996 
L 79.197792 291.782699 
L 79.197801 291.754542 
L 79.197809 291.743591 
L 79.197817 291.726775 
L 79.197825 291.710497 
L 79.197833 291.701056 
L 79.197841 291.69572 
L 79.197849 291.504475 
L 79.197858 291.549765 
L 79.197866 291.530835 
L 79.197874 291.567285 
L 79.197882 291.531771 
L 79.19789 291.477979 
L 79.197898 291.518262 
L 79.197906 291.503587 
L 79.197914 291.501277 
L 79.197923 291.490097 
L 79.197931 291.501294 
L 79.197939 291.518443 
L 79.197947 291.533752 
L 79.197955 291.430847 
L 79.197963 291.40631 
L 79.197971 291.442278 
L 79.19798 291.480394 
L 79.19824 291.19662 
L 79.198761 287.777608 
L 79.199803 287.341737 
L 79.201886 287.197043 
L 79.206054 286.830408 
L 79.214388 286.72976 
L 79.231058 286.276013 
L 79.264396 285.946246 
L 79.331073 285.225484 
L 79.464427 284.81698 
L 79.731135 282.451576 
L 80.264552 282.40994 
L 81.331384 281.13285 
L 83.465049 281.457809 
L 87.732379 277.58689 
L 96.267038 280.245505 
L 113.336358 277.190926 
L 147.474996 278.853345 
L 215.752273 276.271989 
" clip-path="url(#pdfa96b332d)" style="fill: none; stroke: #ff7f0e; stroke-width: 1.5; stroke-linecap: square"/>
   </g>
   <g id="line2d_18">
    <path d="M 79.197727 292.427659 
L 79.197735 292.340464 
L 79.197744 292.154468 
L 79.197752 292.004769 
L 79.19776 291.895611 
L 79.197768 291.886161 
L 79.197776 291.842177 
L 79.197784 291.804663 
L 79.197792 291.80727 
L 79.197801 291.786803 
L 79.197809 291.789701 
L 79.197817 291.757763 
L 79.197825 291.752146 
L 79.197833 291.76032 
L 79.197841 291.761111 
L 79.197849 291.774251 
L 79.197858 291.747521 
L 79.197866 291.755212 
L 79.197874 291.723602 
L 79.197882 291.724789 
L 79.19789 291.714818 
L 79.197898 291.714192 
L 79.197906 291.751809 
L 79.197914 291.718027 
L 79.197923 291.664035 
L 79.197931 291.619118 
L 79.197939 291.537322 
L 79.197947 291.566483 
L 79.197955 291.562544 
L 79.197963 291.539617 
L 79.197971 291.557611 
L 79.19798 291.523919 
L 79.19824 291.638 
L 79.198761 288.69306 
L 79.199803 287.963515 
L 79.201886 287.762849 
L 79.206054 287.589512 
L 79.214388 287.320505 
L 79.231058 286.523364 
L 79.264396 284.704331 
L 79.331073 283.998954 
L 79.464427 282.871885 
L 79.731135 281.988838 
L 80.264552 281.29919 
L 81.331384 280.751613 
L 83.465049 280.3982 
L 87.732379 280.099071 
L 96.267038 280.073973 
L 113.336358 280.065694 
L 147.474996 278.358255 
L 215.752273 277.930606 
" clip-path="url(#pdfa96b332d)" style="fill: none; stroke: #2ca02c; stroke-width: 1.5; stroke-linecap: square"/>
   </g>
   <g id="line2d_19">
    <path d="M 79.197727 292.790857 
L 79.197735 292.790859 
L 79.197744 292.790807 
L 79.197752 292.79081 
L 79.19776 292.790704 
L 79.197768 292.790642 
L 79.197776 292.790849 
L 79.197784 292.789411 
L 79.197792 292.790796 
L 79.197801 292.79077 
L 79.197809 292.790783 
L 79.197817 292.790738 
L 79.197825 292.790785 
L 79.197833 292.790815 
L 79.197841 292.790747 
L 79.197849 292.790786 
L 79.197858 292.790829 
L 79.197866 292.79083 
L 79.197874 292.790847 
L 79.197882 292.79089 
L 79.19789 292.790835 
L 79.197898 292.790842 
L 79.197906 292.790858 
L 79.197914 292.790816 
L 79.197923 292.790813 
L 79.197931 292.790781 
L 79.197939 292.79082 
L 79.197947 292.790684 
L 79.197955 292.790675 
L 79.197963 292.790735 
L 79.197971 292.790834 
L 79.19798 292.790727 
L 79.19824 292.778662 
L 79.198761 292.776542 
L 79.199803 292.775025 
L 79.201886 292.777358 
L 79.206054 292.778647 
L 79.214388 292.77626 
L 79.231058 292.778614 
L 79.264396 292.778651 
L 79.331073 292.775015 
L 79.464427 292.775032 
L 79.731135 292.775021 
L 80.264552 292.77797 
L 81.331384 292.77864 
L 83.465049 292.775017 
L 87.732379 292.778661 
L 96.267038 292.775028 
L 113.336358 292.786704 
L 147.474996 292.790819 
L 215.752273 292.790852 
" clip-path="url(#pdfa96b332d)" style="fill: none; stroke: #d62728; stroke-width: 1.5; stroke-linecap: square"/>
   </g>
   <g id="patch_3">
    <path d="M 72.37 302.84 
L 72.37 81.76 
" style="fill: none; stroke: #000000; stroke-width: 0.8; stroke-linejoin: miter; stroke-linecap: square"/>
   </g>
   <g id="patch_4">
    <path d="M 222.58 302.84 
L 222.58 81.76 
" style="fill: none; stroke: #000000; stroke-width: 0.8; stroke-linejoin: miter; stroke-linecap: square"/>
   </g>
   <g id="patch_5">
    <path d="M 72.37 302.84 
L 222.58 302.84 
" style="fill: none; stroke: #000000; stroke-width: 0.8; stroke-linejoin: miter; stroke-linecap: square"/>
   </g>
   <g id="patch_6">
    <path d="M 72.37 81.76 
L 222.58 81.76 
" style="fill: none; stroke: #000000; stroke-width: 0.8; stroke-linejoin: miter; stroke-linecap: square"/>
   </g>
   <g id="text_13">
    <!-- ForwardAccess -->
    <g transform="translate(102.80875 75.76) scale(0.12 -0.12)">
     <defs>
      <path id="DejaVuSans-46" d="M 628 4666 
L 3309 4666 
L 3309 4134 
L 1259 4134 
L 1259 2759 
L 3109 2759 
L 3109 2228 
L 1259 2228 
L 1259 0 
L 628 0 
L 628 4666 
z
" transform="scale(0.015625)"/>
      <path id="DejaVuSans-6f" d="M 1959 3097 
Q 1497 3097 1228 2736 
Q 959 2375 959 1747 
Q 959 1119 1226 758 
Q 1494 397 1959 397 
Q 2419 397 2687 759 
Q 2956 1122 2956 1747 
Q 2956 2369 2687 2733 
Q 2419 3097 1959 3097 
z
M 1959 3584 
Q 2709 3584 3137 3096 
Q 3566 2609 3566 1747 
Q 3566 888 3137 398 
Q 2709 -91 1959 -91 
Q 1206 -91 779 398 
Q 353 888 353 1747 
Q 353 2609 779 3096 
Q 1206 3584 1959 3584 
z
" transform="scale(0.015625)"/>
      <path id="DejaVuSans-72" d="M 2631 2963 
Q 2534 3019 2420 3045 
Q 2306 3072 2169 3072 
Q 1681 3072 1420 2755 
Q 1159 2438 1159 1844 
L 1159 0 
L 581 0 
L 581 3500 
L 1159 3500 
L 1159 2956 
Q 1341 3275 1631 3429 
Q 1922 3584 2338 3584 
Q 2397 3584 2469 3576 
Q 2541 3569 2628 3553 
L 2631 2963 
z
" transform="scale(0.015625)"/>
      <path id="DejaVuSans-77" d="M 269 3500 
L 844 3500 
L 1563 769 
L 2278 3500 
L 2956 3500 
L 3675 769 
L 4391 3500 
L 4966 3500 
L 4050 0 
L 3372 0 
L 2619 2869 
L 1863 0 
L 1184 0 
L 269 3500 
z
" transform="scale(0.015625)"/>
      <path id="DejaVuSans-61" d="M 2194 1759 
Q 1497 1759 1228 1600 
Q 959 1441 959 1056 
Q 959 750 1161 570 
Q 1363 391 1709 391 
Q 2188 391 2477 730 
Q 2766 1069 2766 1631 
L 2766 1759 
L 2194 1759 
z
M 3341 1997 
L 3341 0 
L 2766 0 
L 2766 531 
Q 2569 213 2275 61 
Q 1981 -91 1556 -91 
Q 1019 -91 701 211 
Q 384 513 384 1019 
Q 384 1609 779 1909 
Q 1175 2209 1959 2209 
L 2766 2209 
L 2766 2266 
Q 2766 2663 2505 2880 
Q 2244 3097 1772 3097 
Q 1472 3097 1187 3025 
Q 903 2953 641 2809 
L 641 3341 
Q 956 3463 1253 3523 
Q 1550 3584 1831 3584 
Q 2591 3584 2966 3190 
Q 3341 2797 3341 1997 
z
" transform="scale(0.015625)"/>
      <path id="DejaVuSans-64" d="M 2906 2969 
L 2906 4863 
L 3481 4863 
L 3481 0 
L 2906 0 
L 2906 525 
Q 2725 213 2448 61 
Q 2172 -91 1784 -91 
Q 1150 -91 751 415 
Q 353 922 353 1747 
Q 353 2572 751 3078 
Q 1150 3584 1784 3584 
Q 2172 3584 2448 3432 
Q 2725 3281 2906 2969 
z
M 947 1747 
Q 947 1113 1208 752 
Q 1469 391 1925 391 
Q 2381 391 2643 752 
Q 2906 1113 2906 1747 
Q 2906 2381 2643 2742 
Q 2381 3103 1925 3103 
Q 1469 3103 1208 2742 
Q 947 2381 947 1747 
z
" transform="scale(0.015625)"/>
      <path id="DejaVuSans-41" d="M 2188 4044 
L 1331 1722 
L 3047 1722 
L 2188 4044 
z
M 1831 4666 
L 2547 4666 
L 4325 0 
L 3669 0 
L 3244 1197 
L 1141 1197 
L 716 0 
L 50 0 
L 1831 4666 
z
" transform="scale(0.015625)"/>
      <path id="DejaVuSans-63" d="M 3122 3366 
L 3122 2828 
Q 2878 2963 2633 3030 
Q 2388 3097 2138 3097 
Q 1578 3097 1268 2742 
Q 959 2388 959 1747 
Q 959 1106 1268 751 
Q 1578 397 2138 397 
Q 2388 397 2633 464 
Q 2878 531 3122 666 
L 3122 134 
Q 2881 22 2623 -34 
Q 2366 -91 2075 -91 
Q 1284 -91 818 406 
Q 353 903 353 1747 
Q 353 2603 823 3093 
Q 1294 3584 2113 3584 
Q 2378 3584 2631 3529 
Q 2884 3475 3122 3366 
z
" transform="scale(0.015625)"/>
     </defs>
     <use xlink:href="#DejaVuSans-46"/>
     <use xlink:href="#DejaVuSans-6f" transform="translate(53.894531 0)"/>
     <use xlink:href="#DejaVuSans-72" transform="translate(115.076172 0)"/>
     <use xlink:href="#DejaVuSans-77" transform="translate(156.189453 0)"/>
     <use xlink:href="#DejaVuSans-61" transform="translate(237.976562 0)"/>
     <use xlink:href="#DejaVuSans-72" transform="translate(299.255859 0)"/>
     <use xlink:href="#DejaVuSans-64" transform="translate(338.619141 0)"/>
     <use xlink:href="#DejaVuSans-41" transform="translate(402.095703 0)"/>
     <use xlink:href="#DejaVuSans-63" transform="translate(468.753906 0)"/>
     <use xlink:href="#DejaVuSans-63" transform="translate(523.734375 0)"/>
     <use xlink:href="#DejaVuSans-65" transform="translate(578.714844 0)"/>
     <use xlink:href="#DejaVuSans-73" transform="translate(640.238281 0)"/>
     <use xlink:href="#DejaVuSans-73" transform="translate(692.337891 0)"/>
    </g>
   </g>
   <g id="legend_1">
    <g id="patch_7">
     <path d="M 146.997187 148.4725 
L 215.58 148.4725 
Q 217.58 148.4725 217.58 146.4725 
L 217.58 88.76 
Q 217.58 86.76 215.58 86.76 
L 146.997187 86.76 
Q 144.997187 86.76 144.997187 88.76 
L 144.997187 146.4725 
Q 144.997187 148.4725 146.997187 148.4725 
z
" style="fill: #ffffff; opacity: 0.8; stroke: #cccccc; stroke-linejoin: miter"/>
    </g>
    <g id="line2d_20">
     <path d="M 148.997187 94.858437 
L 158.997187 94.858437 
L 168.997187 94.858437 
" style="fill: none; stroke: #1f77b4; stroke-width: 1.5; stroke-linecap: square"/>
    </g>
    <g id="text_14">
     <!-- array -->
     <g transform="translate(176.997187 98.358437) scale(0.1 -0.1)">
      <defs>
       <path id="DejaVuSans-79" d="M 2059 -325 
Q 1816 -950 1584 -1140 
Q 1353 -1331 966 -1331 
L 506 -1331 
L 506 -850 
L 844 -850 
Q 1081 -850 1212 -737 
Q 1344 -625 1503 -206 
L 1606 56 
L 191 3500 
L 800 3500 
L 1894 763 
L 2988 3500 
L 3597 3500 
L 2059 -325 
z
" transform="scale(0.015625)"/>
      </defs>
      <use xlink:href="#DejaVuSans-61"/>
      <use xlink:href="#DejaVuSans-72" transform="translate(61.279297 0)"/>
      <use xlink:href="#DejaVuSans-72" transform="translate(100.642578 0)"/>
      <use xlink:href="#DejaVuSans-61" transform="translate(141.755859 0)"/>
      <use xlink:href="#DejaVuSans-79" transform="translate(203.035156 0)"/>
     </g>
    </g>
    <g id="line2d_21">
     <path d="M 148.997187 109.536562 
L 158.997187 109.536562 
L 168.997187 109.536562 
" style="fill: none; stroke: #ff7f0e; stroke-width: 1.5; stroke-linecap: square"/>
    </g>
    <g id="text_15">
     <!-- rbMap -->
     <g transform="translate(176.997187 113.036562) scale(0.1 -0.1)">
      <defs>
       <path id="DejaVuSans-62" d="M 3116 1747 
Q 3116 2381 2855 2742 
Q 2594 3103 2138 3103 
Q 1681 3103 1420 2742 
Q 1159 2381 1159 1747 
Q 1159 1113 1420 752 
Q 1681 391 2138 391 
Q 2594 391 2855 752 
Q 3116 1113 3116 1747 
z
M 1159 2969 
Q 1341 3281 1617 3432 
Q 1894 3584 2278 3584 
Q 2916 3584 3314 3078 
Q 3713 2572 3713 1747 
Q 3713 922 3314 415 
Q 2916 -91 2278 -91 
Q 1894 -91 1617 61 
Q 1341 213 1159 525 
L 1159 0 
L 581 0 
L 581 4863 
L 1159 4863 
L 1159 2969 
z
" transform="scale(0.015625)"/>
       <path id="DejaVuSans-4d" d="M 628 4666 
L 1569 4666 
L 2759 1491 
L 3956 4666 
L 4897 4666 
L 4897 0 
L 4281 0 
L 4281 4097 
L 3078 897 
L 2444 897 
L 1241 4097 
L 1241 0 
L 628 0 
L 628 4666 
z
" transform="scale(0.015625)"/>
       <path id="DejaVuSans-70" d="M 1159 525 
L 1159 -1331 
L 581 -1331 
L 581 3500 
L 1159 3500 
L 1159 2969 
Q 1341 3281 1617 3432 
Q 1894 3584 2278 3584 
Q 2916 3584 3314 3078 
Q 3713 2572 3713 1747 
Q 3713 922 3314 415 
Q 2916 -91 2278 -91 
Q 1894 -91 1617 61 
Q 1341 213 1159 525 
z
M 3116 1747 
Q 3116 2381 2855 2742 
Q 2594 3103 2138 3103 
Q 1681 3103 1420 2742 
Q 1159 2381 1159 1747 
Q 1159 1113 1420 752 
Q 1681 391 2138 391 
Q 2594 391 2855 752 
Q 3116 1113 3116 1747 
z
" transform="scale(0.015625)"/>
      </defs>
      <use xlink:href="#DejaVuSans-72"/>
      <use xlink:href="#DejaVuSans-62" transform="translate(41.113281 0)"/>
      <use xlink:href="#DejaVuSans-4d" transform="translate(104.589844 0)"/>
      <use xlink:href="#DejaVuSans-61" transform="translate(190.869141 0)"/>
      <use xlink:href="#DejaVuSans-70" transform="translate(252.148438 0)"/>
     </g>
    </g>
    <g id="line2d_22">
     <path d="M 148.997187 124.214687 
L 158.997187 124.214687 
L 168.997187 124.214687 
" style="fill: none; stroke: #2ca02c; stroke-width: 1.5; stroke-linecap: square"/>
    </g>
    <g id="text_16">
     <!-- stdMap -->
     <g transform="translate(176.997187 127.714687) scale(0.1 -0.1)">
      <defs>
       <path id="DejaVuSans-74" d="M 1172 4494 
L 1172 3500 
L 2356 3500 
L 2356 3053 
L 1172 3053 
L 1172 1153 
Q 1172 725 1289 603 
Q 1406 481 1766 481 
L 2356 481 
L 2356 0 
L 1766 0 
Q 1100 0 847 248 
Q 594 497 594 1153 
L 594 3053 
L 172 3053 
L 172 3500 
L 594 3500 
L 594 4494 
L 1172 4494 
z
" transform="scale(0.015625)"/>
      </defs>
      <use xlink:href="#DejaVuSans-73"/>
      <use xlink:href="#DejaVuSans-74" transform="translate(52.099609 0)"/>
      <use xlink:href="#DejaVuSans-64" transform="translate(91.308594 0)"/>
      <use xlink:href="#DejaVuSans-4d" transform="translate(154.785156 0)"/>
      <use xlink:href="#DejaVuSans-61" transform="translate(241.064453 0)"/>
      <use xlink:href="#DejaVuSans-70" transform="translate(302.34375 0)"/>
     </g>
    </g>
    <g id="line2d_23">
     <path d="M 148.997187 138.892812 
L 158.997187 138.892812 
L 168.997187 138.892812 
" style="fill: none; stroke: #d62728; stroke-width: 1.5; stroke-linecap: square"/>
    </g>
    <g id="text_17">
     <!-- vector -->
     <g transform="translate(176.997187 142.392812) scale(0.1 -0.1)">
      <defs>
       <path id="DejaVuSans-76" d="M 191 3500 
L 800 3500 
L 1894 563 
L 2988 3500 
L 3597 3500 
L 2284 0 
L 1503 0 
L 191 3500 
z
" transform="scale(0.015625)"/>
      </defs>
      <use xlink:href="#DejaVuSans-76"/>
      <use xlink:href="#DejaVuSans-65" transform="translate(59.179688 0)"/>
      <use xlink:href="#DejaVuSans-63" transform="translate(120.703125 0)"/>
      <use xlink:href="#DejaVuSans-74" transform="translate(175.683594 0)"/>
      <use xlink:href="#DejaVuSans-6f" transform="translate(214.892578 0)"/>
      <use xlink:href="#DejaVuSans-72" transform="translate(276.074219 0)"/>
     </g>
    </g>
   </g>
  </g>
  <g id="axes_2">
   <g id="patch_8">
    <path d="M 236.08 302.84 
L 386.29 302.84 
L 386.29 81.76 
L 236.08 81.76 
z
" style="fill: #ffffff"/>
   </g>
   <g id="matplotlib.axis_3">
    <g id="xtick_4">
     <g id="line2d_24">
      <g>
       <use xlink:href="#m0073003cde" x="242.907719" y="302.84" style="stroke: #000000; stroke-width: 0.8"/>
      </g>
     </g>
     <g id="text_18">
      <!-- 0 -->
      <g transform="translate(239.726469 317.438438) scale(0.1 -0.1)">
       <use xlink:href="#DejaVuSans-30"/>
      </g>
     </g>
    </g>
    <g id="xtick_5">
     <g id="line2d_25">
      <g>
       <use xlink:href="#m0073003cde" x="293.778255" y="302.84" style="stroke: #000000; stroke-width: 0.8"/>
      </g>
     </g>
     <g id="text_19">
      <!-- 2 -->
      <g transform="translate(290.597005 317.438438) scale(0.1 -0.1)">
       <use xlink:href="#DejaVuSans-32"/>
      </g>
     </g>
    </g>
    <g id="xtick_6">
     <g id="line2d_26">
      <g>
       <use xlink:href="#m0073003cde" x="344.64879" y="302.84" style="stroke: #000000; stroke-width: 0.8"/>
      </g>
     </g>
     <g id="text_20">
      <!-- 4 -->
      <g transform="translate(341.46754 317.438438) scale(0.1 -0.1)">
       <use xlink:href="#DejaVuSans-34"/>
      </g>
     </g>
    </g>
    <g id="text_21">
     <!-- N -->
     <g transform="translate(307.444375 331.116562) scale(0.1 -0.1)">
      <use xlink:href="#DejaVuSans-4e"/>
     </g>
    </g>
    <g id="text_22">
     <!-- 1e8 -->
     <g transform="translate(367.411875 330.116562) scale(0.1 -0.1)">
      <use xlink:href="#DejaVuSans-31"/>
      <use xlink:href="#DejaVuSans-65" transform="translate(63.623047 0)"/>
      <use xlink:href="#DejaVuSans-38" transform="translate(125.146484 0)"/>
     </g>
    </g>
   </g>
   <g id="matplotlib.axis_4">
    <g id="ytick_7">
     <g id="line2d_27">
      <path d="M 236.08 292.902266 
L 386.29 292.902266 
" clip-path="url(#pe7171fcc88)" style="fill: none; stroke: #b0b0b0; stroke-width: 0.8; stroke-linecap: square"/>
     </g>
     <g id="line2d_28">
      <g>
       <use xlink:href="#mf257dec722" x="236.08" y="292.902266" style="stroke: #000000; stroke-width: 0.8"/>
      </g>
     </g>
    </g>
    <g id="ytick_8">
     <g id="line2d_29">
      <path d="M 236.08 256.338559 
L 386.29 256.338559 
" clip-path="url(#pe7171fcc88)" style="fill: none; stroke: #b0b0b0; stroke-width: 0.8; stroke-linecap: square"/>
     </g>
     <g id="line2d_30">
      <g>
       <use xlink:href="#mf257dec722" x="236.08" y="256.338559" style="stroke: #000000; stroke-width: 0.8"/>
      </g>
     </g>
    </g>
    <g id="ytick_9">
     <g id="line2d_31">
      <path d="M 236.08 219.774852 
L 386.29 219.774852 
" clip-path="url(#pe7171fcc88)" style="fill: none; stroke: #b0b0b0; stroke-width: 0.8; stroke-linecap: square"/>
     </g>
     <g id="line2d_32">
      <g>
       <use xlink:href="#mf257dec722" x="236.08" y="219.774852" style="stroke: #000000; stroke-width: 0.8"/>
      </g>
     </g>
    </g>
    <g id="ytick_10">
     <g id="line2d_33">
      <path d="M 236.08 183.211145 
L 386.29 183.211145 
" clip-path="url(#pe7171fcc88)" style="fill: none; stroke: #b0b0b0; stroke-width: 0.8; stroke-linecap: square"/>
     </g>
     <g id="line2d_34">
      <g>
       <use xlink:href="#mf257dec722" x="236.08" y="183.211145" style="stroke: #000000; stroke-width: 0.8"/>
      </g>
     </g>
    </g>
    <g id="ytick_11">
     <g id="line2d_35">
      <path d="M 236.08 146.647437 
L 386.29 146.647437 
" clip-path="url(#pe7171fcc88)" style="fill: none; stroke: #b0b0b0; stroke-width: 0.8; stroke-linecap: square"/>
     </g>
     <g id="line2d_36">
      <g>
       <use xlink:href="#mf257dec722" x="236.08" y="146.647437" style="stroke: #000000; stroke-width: 0.8"/>
      </g>
     </g>
    </g>
    <g id="ytick_12">
     <g id="line2d_37">
      <path d="M 236.08 110.08373 
L 386.29 110.08373 
" clip-path="url(#pe7171fcc88)" style="fill: none; stroke: #b0b0b0; stroke-width: 0.8; stroke-linecap: square"/>
     </g>
     <g id="line2d_38">
      <g>
       <use xlink:href="#mf257dec722" x="236.08" y="110.08373" style="stroke: #000000; stroke-width: 0.8"/>
      </g>
     </g>
    </g>
   </g>
   <g id="line2d_39">
    <path d="M 242.907727 292.790808 
L 242.907735 292.790827 
L 242.907744 292.790855 
L 242.907752 292.790898 
L 242.90776 292.790885 
L 242.907768 292.790887 
L 242.907776 292.790833 
L 242.907784 292.79082 
L 242.907792 292.790821 
L 242.907801 292.790809 
L 242.907809 292.790894 
L 242.907817 292.790874 
L 242.907825 292.790853 
L 242.907833 292.79084 
L 242.907841 292.790839 
L 242.907849 292.79088 
L 242.907858 292.790895 
L 242.907866 292.790884 
L 242.907874 292.790871 
L 242.907882 292.79089 
L 242.90789 292.790884 
L 242.907898 292.790879 
L 242.907906 292.790884 
L 242.907914 292.790875 
L 242.907923 292.790853 
L 242.907931 292.79087 
L 242.907939 292.790878 
L 242.907947 292.790823 
L 242.907955 292.790829 
L 242.907963 292.790843 
L 242.907971 292.790901 
L 242.90798 292.790909 
L 242.90824 292.7761 
L 242.908761 292.77865 
L 242.909803 292.777566 
L 242.911886 292.775033 
L 242.916054 292.777325 
L 242.924388 292.778651 
L 242.941058 292.77633 
L 242.974396 292.778434 
L 243.041073 292.778593 
L 243.174427 292.783878 
L 243.441135 292.775023 
L 243.974552 292.778668 
L 245.041384 292.778133 
L 247.175049 292.778505 
L 251.442379 292.775995 
L 259.977038 292.775015 
L 277.046358 292.774963 
L 311.184996 292.774998 
L 379.462273 292.775017 
" clip-path="url(#pe7171fcc88)" style="fill: none; stroke: #1f77b4; stroke-width: 1.5; stroke-linecap: square"/>
   </g>
   <g id="line2d_40">
    <path d="M 242.907727 292.234437 
L 242.907735 291.975192 
L 242.907744 291.835804 
L 242.907752 291.755386 
L 242.90776 291.682913 
L 242.907768 291.665924 
L 242.907776 291.680928 
L 242.907784 291.653846 
L 242.907792 291.631594 
L 242.907801 291.537214 
L 242.907809 291.493971 
L 242.907817 291.443794 
L 242.907825 291.424998 
L 242.907833 291.421182 
L 242.907841 291.391358 
L 242.907849 291.37586 
L 242.907858 291.322256 
L 242.907866 291.347084 
L 242.907874 291.342353 
L 242.907882 291.311797 
L 242.90789 291.381194 
L 242.907898 291.293992 
L 242.907906 291.277915 
L 242.907914 291.270838 
L 242.907923 291.278582 
L 242.907931 291.24799 
L 242.907939 291.38797 
L 242.907947 291.436683 
L 242.907955 291.421912 
L 242.907963 291.419349 
L 242.907971 291.405204 
L 242.90798 291.384627 
L 242.90824 290.345983 
L 242.908761 287.434987 
L 242.909803 287.0399 
L 242.911886 286.848278 
L 242.916054 286.451658 
L 242.924388 286.340079 
L 242.941058 285.832871 
L 242.974396 285.490232 
L 243.041073 284.786814 
L 243.174427 284.344649 
L 243.441135 281.394014 
L 243.974552 280.614449 
L 245.041384 280.094322 
L 247.175049 278.986576 
L 251.442379 275.76992 
L 259.977038 274.68345 
L 277.046358 273.089632 
L 311.184996 271.182715 
L 379.462273 269.299495 
" clip-path="url(#pe7171fcc88)" style="fill: none; stroke: #ff7f0e; stroke-width: 1.5; stroke-linecap: square"/>
   </g>
   <g id="line2d_41">
    <path d="M 242.907727 292.272542 
L 242.907735 292.173348 
L 242.907744 291.960049 
L 242.907752 291.796983 
L 242.90776 291.753884 
L 242.907768 291.696702 
L 242.907776 291.644636 
L 242.907784 291.639983 
L 242.907792 291.635561 
L 242.907801 291.61836 
L 242.907809 291.608021 
L 242.907817 291.603865 
L 242.907825 291.595915 
L 242.907833 291.598931 
L 242.907841 291.589306 
L 242.907849 291.586327 
L 242.907858 291.579964 
L 242.907866 291.57252 
L 242.907874 291.571451 
L 242.907882 291.559024 
L 242.90789 291.562777 
L 242.907898 291.55731 
L 242.907906 291.557802 
L 242.907914 291.556788 
L 242.907923 291.555628 
L 242.907931 291.54948 
L 242.907939 291.551343 
L 242.907947 291.553953 
L 242.907955 291.552852 
L 242.907963 291.54671 
L 242.907971 291.546685 
L 242.90798 291.540573 
L 242.90824 290.657972 
L 242.908761 287.618129 
L 242.909803 287.129165 
L 242.911886 287.077801 
L 242.916054 286.82466 
L 242.924388 286.373694 
L 242.941058 285.798611 
L 242.974396 283.609755 
L 243.041073 282.590051 
L 243.174427 281.817566 
L 243.441135 280.544863 
L 243.974552 279.497216 
L 245.041384 280.165903 
L 247.175049 276.965351 
L 251.442379 276.784529 
L 259.977038 273.98242 
L 277.046358 272.185444 
L 311.184996 270.03549 
L 379.462273 268.584574 
" clip-path="url(#pe7171fcc88)" style="fill: none; stroke: #2ca02c; stroke-width: 1.5; stroke-linecap: square"/>
   </g>
   <g id="line2d_42">
    <path d="M 242.907727 292.790885 
L 242.907735 292.790891 
L 242.907744 292.790893 
L 242.907752 292.790905 
L 242.90776 292.790896 
L 242.907768 292.790893 
L 242.907776 292.790905 
L 242.907784 292.790874 
L 242.907792 292.790888 
L 242.907801 292.790896 
L 242.907809 292.790883 
L 242.907817 292.790887 
L 242.907825 292.7909 
L 242.907833 292.790893 
L 242.907841 292.790891 
L 242.907849 292.790886 
L 242.907858 292.7909 
L 242.907866 292.790897 
L 242.907874 292.790903 
L 242.907882 292.790879 
L 242.90789 292.790892 
L 242.907898 292.790902 
L 242.907906 292.790897 
L 242.907914 292.790898 
L 242.907923 292.7909 
L 242.907931 292.790893 
L 242.907939 292.790888 
L 242.907947 292.790898 
L 242.907955 292.790893 
L 242.907963 292.790891 
L 242.907971 292.790888 
L 242.90798 292.790895 
L 242.90824 292.790865 
L 242.908761 292.790093 
L 242.909803 292.790898 
L 242.911886 292.790899 
L 242.916054 292.790904 
L 242.924388 292.790898 
L 242.941058 292.790904 
L 242.974396 292.790906 
L 243.041073 292.790894 
L 243.174427 292.790896 
L 243.441135 292.790902 
L 243.974552 292.790893 
L 245.041384 292.790895 
L 247.175049 292.79078 
L 251.442379 292.790892 
L 259.977038 292.790894 
L 277.046358 292.790888 
L 311.184996 292.790888 
L 379.462273 292.7909 
" clip-path="url(#pe7171fcc88)" style="fill: none; stroke: #d62728; stroke-width: 1.5; stroke-linecap: square"/>
   </g>
   <g id="patch_9">
    <path d="M 236.08 302.84 
L 236.08 81.76 
" style="fill: none; stroke: #000000; stroke-width: 0.8; stroke-linejoin: miter; stroke-linecap: square"/>
   </g>
   <g id="patch_10">
    <path d="M 386.29 302.84 
L 386.29 81.76 
" style="fill: none; stroke: #000000; stroke-width: 0.8; stroke-linejoin: miter; stroke-linecap: square"/>
   </g>
   <g id="patch_11">
    <path d="M 236.08 302.84 
L 386.29 302.84 
" style="fill: none; stroke: #000000; stroke-width: 0.8; stroke-linejoin: miter; stroke-linecap: square"/>
   </g>
   <g id="patch_12">
    <path d="M 236.08 81.76 
L 386.29 81.76 
" style="fill: none; stroke: #000000; stroke-width: 0.8; stroke-linejoin: miter; stroke-linecap: square"/>
   </g>
   <g id="text_23">
    <!-- BackwardAccess -->
    <g transform="translate(261.323125 75.76) scale(0.12 -0.12)">
     <defs>
      <path id="DejaVuSans-42" d="M 1259 2228 
L 1259 519 
L 2272 519 
Q 2781 519 3026 730 
Q 3272 941 3272 1375 
Q 3272 1813 3026 2020 
Q 2781 2228 2272 2228 
L 1259 2228 
z
M 1259 4147 
L 1259 2741 
L 2194 2741 
Q 2656 2741 2882 2914 
Q 3109 3088 3109 3444 
Q 3109 3797 2882 3972 
Q 2656 4147 2194 4147 
L 1259 4147 
z
M 628 4666 
L 2241 4666 
Q 2963 4666 3353 4366 
Q 3744 4066 3744 3513 
Q 3744 3084 3544 2831 
Q 3344 2578 2956 2516 
Q 3422 2416 3680 2098 
Q 3938 1781 3938 1306 
Q 3938 681 3513 340 
Q 3088 0 2303 0 
L 628 0 
L 628 4666 
z
" transform="scale(0.015625)"/>
      <path id="DejaVuSans-6b" d="M 581 4863 
L 1159 4863 
L 1159 1991 
L 2875 3500 
L 3609 3500 
L 1753 1863 
L 3688 0 
L 2938 0 
L 1159 1709 
L 1159 0 
L 581 0 
L 581 4863 
z
" transform="scale(0.015625)"/>
     </defs>
     <use xlink:href="#DejaVuSans-42"/>
     <use xlink:href="#DejaVuSans-61" transform="translate(68.603516 0)"/>
     <use xlink:href="#DejaVuSans-63" transform="translate(129.882812 0)"/>
     <use xlink:href="#DejaVuSans-6b" transform="translate(184.863281 0)"/>
     <use xlink:href="#DejaVuSans-77" transform="translate(242.773438 0)"/>
     <use xlink:href="#DejaVuSans-61" transform="translate(324.560547 0)"/>
     <use xlink:href="#DejaVuSans-72" transform="translate(385.839844 0)"/>
     <use xlink:href="#DejaVuSans-64" transform="translate(425.203125 0)"/>
     <use xlink:href="#DejaVuSans-41" transform="translate(488.679688 0)"/>
     <use xlink:href="#DejaVuSans-63" transform="translate(555.337891 0)"/>
     <use xlink:href="#DejaVuSans-63" transform="translate(610.318359 0)"/>
     <use xlink:href="#DejaVuSans-65" transform="translate(665.298828 0)"/>
     <use xlink:href="#DejaVuSans-73" transform="translate(726.822266 0)"/>
     <use xlink:href="#DejaVuSans-73" transform="translate(778.921875 0)"/>
    </g>
   </g>
  </g>
  <g id="axes_3">
   <g id="patch_13">
    <path d="M 399.79 302.84 
L 550 302.84 
L 550 81.76 
L 399.79 81.76 
z
" style="fill: #ffffff"/>
   </g>
   <g id="matplotlib.axis_5">
    <g id="xtick_7">
     <g id="line2d_43">
      <g>
       <use xlink:href="#m0073003cde" x="406.617719" y="302.84" style="stroke: #000000; stroke-width: 0.8"/>
      </g>
     </g>
     <g id="text_24">
      <!-- 0 -->
      <g transform="translate(403.436469 317.438438) scale(0.1 -0.1)">
       <use xlink:href="#DejaVuSans-30"/>
      </g>
     </g>
    </g>
    <g id="xtick_8">
     <g id="line2d_44">
      <g>
       <use xlink:href="#m0073003cde" x="457.488255" y="302.84" style="stroke: #000000; stroke-width: 0.8"/>
      </g>
     </g>
     <g id="text_25">
      <!-- 2 -->
      <g transform="translate(454.307005 317.438438) scale(0.1 -0.1)">
       <use xlink:href="#DejaVuSans-32"/>
      </g>
     </g>
    </g>
    <g id="xtick_9">
     <g id="line2d_45">
      <g>
       <use xlink:href="#m0073003cde" x="508.35879" y="302.84" style="stroke: #000000; stroke-width: 0.8"/>
      </g>
     </g>
     <g id="text_26">
      <!-- 4 -->
      <g transform="translate(505.17754 317.438438) scale(0.1 -0.1)">
       <use xlink:href="#DejaVuSans-34"/>
      </g>
     </g>
    </g>
    <g id="text_27">
     <!-- N -->
     <g transform="translate(471.154375 331.116562) scale(0.1 -0.1)">
      <use xlink:href="#DejaVuSans-4e"/>
     </g>
    </g>
    <g id="text_28">
     <!-- 1e8 -->
     <g transform="translate(531.121875 330.116562) scale(0.1 -0.1)">
      <use xlink:href="#DejaVuSans-31"/>
      <use xlink:href="#DejaVuSans-65" transform="translate(63.623047 0)"/>
      <use xlink:href="#DejaVuSans-38" transform="translate(125.146484 0)"/>
     </g>
    </g>
   </g>
   <g id="matplotlib.axis_6">
    <g id="ytick_13">
     <g id="line2d_46">
      <path d="M 399.79 292.902266 
L 550 292.902266 
" clip-path="url(#pc704beb5d7)" style="fill: none; stroke: #b0b0b0; stroke-width: 0.8; stroke-linecap: square"/>
     </g>
     <g id="line2d_47">
      <g>
       <use xlink:href="#mf257dec722" x="399.79" y="292.902266" style="stroke: #000000; stroke-width: 0.8"/>
      </g>
     </g>
    </g>
    <g id="ytick_14">
     <g id="line2d_48">
      <path d="M 399.79 256.338559 
L 550 256.338559 
" clip-path="url(#pc704beb5d7)" style="fill: none; stroke: #b0b0b0; stroke-width: 0.8; stroke-linecap: square"/>
     </g>
     <g id="line2d_49">
      <g>
       <use xlink:href="#mf257dec722" x="399.79" y="256.338559" style="stroke: #000000; stroke-width: 0.8"/>
      </g>
     </g>
    </g>
    <g id="ytick_15">
     <g id="line2d_50">
      <path d="M 399.79 219.774852 
L 550 219.774852 
" clip-path="url(#pc704beb5d7)" style="fill: none; stroke: #b0b0b0; stroke-width: 0.8; stroke-linecap: square"/>
     </g>
     <g id="line2d_51">
      <g>
       <use xlink:href="#mf257dec722" x="399.79" y="219.774852" style="stroke: #000000; stroke-width: 0.8"/>
      </g>
     </g>
    </g>
    <g id="ytick_16">
     <g id="line2d_52">
      <path d="M 399.79 183.211145 
L 550 183.211145 
" clip-path="url(#pc704beb5d7)" style="fill: none; stroke: #b0b0b0; stroke-width: 0.8; stroke-linecap: square"/>
     </g>
     <g id="line2d_53">
      <g>
       <use xlink:href="#mf257dec722" x="399.79" y="183.211145" style="stroke: #000000; stroke-width: 0.8"/>
      </g>
     </g>
    </g>
    <g id="ytick_17">
     <g id="line2d_54">
      <path d="M 399.79 146.647437 
L 550 146.647437 
" clip-path="url(#pc704beb5d7)" style="fill: none; stroke: #b0b0b0; stroke-width: 0.8; stroke-linecap: square"/>
     </g>
     <g id="line2d_55">
      <g>
       <use xlink:href="#mf257dec722" x="399.79" y="146.647437" style="stroke: #000000; stroke-width: 0.8"/>
      </g>
     </g>
    </g>
    <g id="ytick_18">
     <g id="line2d_56">
      <path d="M 399.79 110.08373 
L 550 110.08373 
" clip-path="url(#pc704beb5d7)" style="fill: none; stroke: #b0b0b0; stroke-width: 0.8; stroke-linecap: square"/>
     </g>
     <g id="line2d_57">
      <g>
       <use xlink:href="#mf257dec722" x="399.79" y="110.08373" style="stroke: #000000; stroke-width: 0.8"/>
      </g>
     </g>
    </g>
   </g>
   <g id="line2d_58">
    <path d="M 406.617727 292.679537 
L 406.617735 292.679534 
L 406.617744 292.679538 
L 406.617752 292.679529 
L 406.61776 292.679534 
L 406.617768 292.679513 
L 406.617776 292.679537 
L 406.617784 292.679532 
L 406.617792 292.679524 
L 406.617801 292.679539 
L 406.617809 292.679535 
L 406.617817 292.679539 
L 406.617825 292.679524 
L 406.617833 292.679529 
L 406.617841 292.679536 
L 406.617849 292.679519 
L 406.617858 292.679523 
L 406.617866 292.679384 
L 406.617874 292.679418 
L 406.617882 292.679457 
L 406.61789 292.679519 
L 406.617898 292.679523 
L 406.617906 292.679515 
L 406.617914 292.67921 
L 406.617923 292.662161 
L 406.617931 292.678451 
L 406.617939 292.678457 
L 406.617947 292.65301 
L 406.617955 292.653714 
L 406.617963 292.655073 
L 406.617971 292.650493 
L 406.61798 292.655032 
L 406.61824 292.655054 
L 406.618761 292.653247 
L 406.619803 292.647728 
L 406.621886 292.648069 
L 406.626054 292.655051 
L 406.634388 292.652759 
L 406.651058 292.653934 
L 406.684396 292.655052 
L 406.751073 292.650715 
L 406.884427 292.655068 
L 407.151135 292.650033 
L 407.684552 292.655076 
L 408.751384 292.65149 
L 410.885049 292.647766 
L 415.152379 292.65262 
L 423.687038 292.647749 
L 440.756358 292.64779 
L 474.894996 292.647728 
L 543.172273 292.679527 
" clip-path="url(#pc704beb5d7)" style="fill: none; stroke: #1f77b4; stroke-width: 1.5; stroke-linecap: square"/>
   </g>
   <g id="line2d_59">
    <path d="M 406.617727 292.284523 
L 406.617735 292.070153 
L 406.617744 292.061832 
L 406.617752 291.810877 
L 406.61776 291.723092 
L 406.617768 291.796293 
L 406.617776 291.609893 
L 406.617784 291.628732 
L 406.617792 291.597846 
L 406.617801 291.488789 
L 406.617809 291.758758 
L 406.617817 291.485475 
L 406.617825 291.424691 
L 406.617833 291.395424 
L 406.617841 291.405729 
L 406.617849 291.480849 
L 406.617858 291.33868 
L 406.617866 291.318457 
L 406.617874 291.29283 
L 406.617882 291.295647 
L 406.61789 291.289427 
L 406.617898 291.41555 
L 406.617906 291.255009 
L 406.617914 291.299431 
L 406.617923 291.228774 
L 406.617931 291.214337 
L 406.617939 291.208118 
L 406.617947 291.199241 
L 406.617955 291.189059 
L 406.617963 291.194862 
L 406.617971 291.466504 
L 406.61798 291.335803 
L 406.61824 289.902655 
L 406.618761 286.274245 
L 406.619803 285.235038 
L 406.621886 284.23683 
L 406.626054 279.984261 
L 406.634388 277.409945 
L 406.651058 274.57691 
L 406.684396 271.943139 
L 406.751073 267.196691 
L 406.884427 264.868696 
L 407.151135 259.825698 
L 407.684552 255.536586 
L 408.751384 249.699873 
L 410.885049 231.759168 
L 415.152379 199.001744 
L 423.687038 165.679316 
L 440.756358 153.616686 
L 474.894996 160.567698 
L 543.172273 152.031333 
" clip-path="url(#pc704beb5d7)" style="fill: none; stroke: #ff7f0e; stroke-width: 1.5; stroke-linecap: square"/>
   </g>
   <g id="line2d_60">
    <path d="M 406.617727 292.280293 
L 406.617735 292.16408 
L 406.617744 292.124773 
L 406.617752 291.690946 
L 406.61776 291.600555 
L 406.617768 291.847242 
L 406.617776 291.390578 
L 406.617784 291.471129 
L 406.617792 291.435688 
L 406.617801 291.276768 
L 406.617809 291.926535 
L 406.617817 291.335311 
L 406.617825 291.273438 
L 406.617833 291.252794 
L 406.617841 291.214561 
L 406.617849 291.506201 
L 406.617858 291.377368 
L 406.617866 291.3991 
L 406.617874 291.333054 
L 406.617882 291.346112 
L 406.61789 291.358571 
L 406.617898 291.621267 
L 406.617906 291.314543 
L 406.617914 291.368126 
L 406.617923 291.310918 
L 406.617931 291.302541 
L 406.617939 291.288881 
L 406.617947 291.30167 
L 406.617955 291.278395 
L 406.617963 291.294025 
L 406.617971 291.925111 
L 406.61798 291.51689 
L 406.61824 291.174812 
L 406.618761 287.275944 
L 406.619803 285.537959 
L 406.621886 281.523146 
L 406.626054 277.505634 
L 406.634388 274.44561 
L 406.651058 271.19325 
L 406.684396 266.548743 
L 406.751073 260.830295 
L 406.884427 254.320955 
L 407.151135 245.275721 
L 407.684552 240.525026 
L 408.751384 200.609889 
L 410.885049 186.230068 
L 415.152379 126.141841 
L 423.687038 123.621756 
L 440.756358 119.857423 
L 474.894996 91.809091 
L 543.172273 98.203501 
" clip-path="url(#pc704beb5d7)" style="fill: none; stroke: #2ca02c; stroke-width: 1.5; stroke-linecap: square"/>
   </g>
   <g id="line2d_61">
    <path d="M 406.617727 292.679519 
L 406.617735 292.679512 
L 406.617744 292.679512 
L 406.617752 292.679527 
L 406.61776 292.678539 
L 406.617768 292.679516 
L 406.617776 292.679513 
L 406.617784 292.679524 
L 406.617792 292.679518 
L 406.617801 292.679515 
L 406.617809 292.679528 
L 406.617817 292.679525 
L 406.617825 292.679515 
L 406.617833 292.679523 
L 406.617841 292.679527 
L 406.617849 292.679534 
L 406.617858 292.67954 
L 406.617866 292.679535 
L 406.617874 292.679533 
L 406.617882 292.679553 
L 406.61789 292.679552 
L 406.617898 292.679533 
L 406.617906 292.678464 
L 406.617914 292.667626 
L 406.617923 292.653273 
L 406.617931 292.671136 
L 406.617939 292.667459 
L 406.617947 292.663844 
L 406.617955 292.678417 
L 406.617963 292.678435 
L 406.617971 292.678245 
L 406.61798 292.666892 
L 406.61824 292.679533 
L 406.618761 292.679513 
L 406.619803 292.679523 
L 406.621886 292.679528 
L 406.626054 292.679473 
L 406.634388 292.679517 
L 406.651058 292.679477 
L 406.684396 292.679516 
L 406.751073 292.679506 
L 406.884427 292.679523 
L 407.151135 292.679487 
L 407.684552 292.679493 
L 408.751384 292.679475 
L 410.885049 292.679512 
L 415.152379 292.679504 
L 423.687038 292.679492 
L 440.756358 292.67952 
L 474.894996 292.679525 
L 543.172273 292.679506 
" clip-path="url(#pc704beb5d7)" style="fill: none; stroke: #d62728; stroke-width: 1.5; stroke-linecap: square"/>
   </g>
   <g id="patch_14">
    <path d="M 399.79 302.84 
L 399.79 81.76 
" style="fill: none; stroke: #000000; stroke-width: 0.8; stroke-linejoin: miter; stroke-linecap: square"/>
   </g>
   <g id="patch_15">
    <path d="M 550 302.84 
L 550 81.76 
" style="fill: none; stroke: #000000; stroke-width: 0.8; stroke-linejoin: miter; stroke-linecap: square"/>
   </g>
   <g id="patch_16">
    <path d="M 399.79 302.84 
L 550 302.84 
" style="fill: none; stroke: #000000; stroke-width: 0.8; stroke-linejoin: miter; stroke-linecap: square"/>
   </g>
   <g id="patch_17">
    <path d="M 399.79 81.76 
L 550 81.76 
" style="fill: none; stroke: #000000; stroke-width: 0.8; stroke-linejoin: miter; stroke-linecap: square"/>
   </g>
   <g id="text_29">
    <!-- RandomAccess -->
    <g transform="translate(429.51625 75.76) scale(0.12 -0.12)">
     <defs>
      <path id="DejaVuSans-52" d="M 2841 2188 
Q 3044 2119 3236 1894 
Q 3428 1669 3622 1275 
L 4263 0 
L 3584 0 
L 2988 1197 
Q 2756 1666 2539 1819 
Q 2322 1972 1947 1972 
L 1259 1972 
L 1259 0 
L 628 0 
L 628 4666 
L 2053 4666 
Q 2853 4666 3247 4331 
Q 3641 3997 3641 3322 
Q 3641 2881 3436 2590 
Q 3231 2300 2841 2188 
z
M 1259 4147 
L 1259 2491 
L 2053 2491 
Q 2509 2491 2742 2702 
Q 2975 2913 2975 3322 
Q 2975 3731 2742 3939 
Q 2509 4147 2053 4147 
L 1259 4147 
z
" transform="scale(0.015625)"/>
     </defs>
     <use xlink:href="#DejaVuSans-52"/>
     <use xlink:href="#DejaVuSans-61" transform="translate(67.232422 0)"/>
     <use xlink:href="#DejaVuSans-6e" transform="translate(128.511719 0)"/>
     <use xlink:href="#DejaVuSans-64" transform="translate(191.890625 0)"/>
     <use xlink:href="#DejaVuSans-6f" transform="translate(255.367188 0)"/>
     <use xlink:href="#DejaVuSans-6d" transform="translate(316.548828 0)"/>
     <use xlink:href="#DejaVuSans-41" transform="translate(413.960938 0)"/>
     <use xlink:href="#DejaVuSans-63" transform="translate(480.619141 0)"/>
     <use xlink:href="#DejaVuSans-63" transform="translate(535.599609 0)"/>
     <use xlink:href="#DejaVuSans-65" transform="translate(590.580078 0)"/>
     <use xlink:href="#DejaVuSans-73" transform="translate(652.103516 0)"/>
     <use xlink:href="#DejaVuSans-73" transform="translate(704.203125 0)"/>
    </g>
   </g>
  </g>
  <g id="text_30">
   <!-- Data Struct access time -->
   <g transform="translate(191.187 18.14175) scale(0.144 -0.144)">
    <defs>
     <path id="DejaVuSans-Bold-44" d="M 1791 3756 
L 1791 909 
L 2222 909 
Q 2959 909 3348 1275 
Q 3738 1641 3738 2338 
Q 3738 3031 3350 3393 
Q 2963 3756 2222 3756 
L 1791 3756 
z
M 588 4666 
L 1856 4666 
Q 2919 4666 3439 4514 
Q 3959 4363 4331 4000 
Q 4659 3684 4818 3271 
Q 4978 2859 4978 2338 
Q 4978 1809 4818 1395 
Q 4659 981 4331 666 
Q 3956 303 3431 151 
Q 2906 0 1856 0 
L 588 0 
L 588 4666 
z
" transform="scale(0.015625)"/>
     <path id="DejaVuSans-Bold-61" d="M 2106 1575 
Q 1756 1575 1579 1456 
Q 1403 1338 1403 1106 
Q 1403 894 1545 773 
Q 1688 653 1941 653 
Q 2256 653 2472 879 
Q 2688 1106 2688 1447 
L 2688 1575 
L 2106 1575 
z
M 3816 1997 
L 3816 0 
L 2688 0 
L 2688 519 
Q 2463 200 2181 54 
Q 1900 -91 1497 -91 
Q 953 -91 614 226 
Q 275 544 275 1050 
Q 275 1666 698 1953 
Q 1122 2241 2028 2241 
L 2688 2241 
L 2688 2328 
Q 2688 2594 2478 2717 
Q 2269 2841 1825 2841 
Q 1466 2841 1156 2769 
Q 847 2697 581 2553 
L 581 3406 
Q 941 3494 1303 3539 
Q 1666 3584 2028 3584 
Q 2975 3584 3395 3211 
Q 3816 2838 3816 1997 
z
" transform="scale(0.015625)"/>
     <path id="DejaVuSans-Bold-74" d="M 1759 4494 
L 1759 3500 
L 2913 3500 
L 2913 2700 
L 1759 2700 
L 1759 1216 
Q 1759 972 1856 886 
Q 1953 800 2241 800 
L 2816 800 
L 2816 0 
L 1856 0 
Q 1194 0 917 276 
Q 641 553 641 1216 
L 641 2700 
L 84 2700 
L 84 3500 
L 641 3500 
L 641 4494 
L 1759 4494 
z
" transform="scale(0.015625)"/>
     <path id="DejaVuSans-Bold-20" transform="scale(0.015625)"/>
     <path id="DejaVuSans-Bold-53" d="M 3834 4519 
L 3834 3531 
Q 3450 3703 3084 3790 
Q 2719 3878 2394 3878 
Q 1963 3878 1756 3759 
Q 1550 3641 1550 3391 
Q 1550 3203 1689 3098 
Q 1828 2994 2194 2919 
L 2706 2816 
Q 3484 2659 3812 2340 
Q 4141 2022 4141 1434 
Q 4141 663 3683 286 
Q 3225 -91 2284 -91 
Q 1841 -91 1394 -6 
Q 947 78 500 244 
L 500 1259 
Q 947 1022 1364 901 
Q 1781 781 2169 781 
Q 2563 781 2772 912 
Q 2981 1044 2981 1288 
Q 2981 1506 2839 1625 
Q 2697 1744 2272 1838 
L 1806 1941 
Q 1106 2091 782 2419 
Q 459 2747 459 3303 
Q 459 4000 909 4375 
Q 1359 4750 2203 4750 
Q 2588 4750 2994 4692 
Q 3400 4634 3834 4519 
z
" transform="scale(0.015625)"/>
     <path id="DejaVuSans-Bold-72" d="M 3138 2547 
Q 2991 2616 2845 2648 
Q 2700 2681 2553 2681 
Q 2122 2681 1889 2404 
Q 1656 2128 1656 1613 
L 1656 0 
L 538 0 
L 538 3500 
L 1656 3500 
L 1656 2925 
Q 1872 3269 2151 3426 
Q 2431 3584 2822 3584 
Q 2878 3584 2943 3579 
Q 3009 3575 3134 3559 
L 3138 2547 
z
" transform="scale(0.015625)"/>
     <path id="DejaVuSans-Bold-75" d="M 500 1363 
L 500 3500 
L 1625 3500 
L 1625 3150 
Q 1625 2866 1622 2436 
Q 1619 2006 1619 1863 
Q 1619 1441 1641 1255 
Q 1663 1069 1716 984 
Q 1784 875 1895 815 
Q 2006 756 2150 756 
Q 2500 756 2700 1025 
Q 2900 1294 2900 1772 
L 2900 3500 
L 4019 3500 
L 4019 0 
L 2900 0 
L 2900 506 
Q 2647 200 2364 54 
Q 2081 -91 1741 -91 
Q 1134 -91 817 281 
Q 500 653 500 1363 
z
" transform="scale(0.015625)"/>
     <path id="DejaVuSans-Bold-63" d="M 3366 3391 
L 3366 2478 
Q 3138 2634 2908 2709 
Q 2678 2784 2431 2784 
Q 1963 2784 1702 2511 
Q 1441 2238 1441 1747 
Q 1441 1256 1702 982 
Q 1963 709 2431 709 
Q 2694 709 2930 787 
Q 3166 866 3366 1019 
L 3366 103 
Q 3103 6 2833 -42 
Q 2563 -91 2291 -91 
Q 1344 -91 809 395 
Q 275 881 275 1747 
Q 275 2613 809 3098 
Q 1344 3584 2291 3584 
Q 2566 3584 2833 3536 
Q 3100 3488 3366 3391 
z
" transform="scale(0.015625)"/>
     <path id="DejaVuSans-Bold-65" d="M 4031 1759 
L 4031 1441 
L 1416 1441 
Q 1456 1047 1700 850 
Q 1944 653 2381 653 
Q 2734 653 3104 758 
Q 3475 863 3866 1075 
L 3866 213 
Q 3469 63 3072 -14 
Q 2675 -91 2278 -91 
Q 1328 -91 801 392 
Q 275 875 275 1747 
Q 275 2603 792 3093 
Q 1309 3584 2216 3584 
Q 3041 3584 3536 3087 
Q 4031 2591 4031 1759 
z
M 2881 2131 
Q 2881 2450 2695 2645 
Q 2509 2841 2209 2841 
Q 1884 2841 1681 2658 
Q 1478 2475 1428 2131 
L 2881 2131 
z
" transform="scale(0.015625)"/>
     <path id="DejaVuSans-Bold-73" d="M 3272 3391 
L 3272 2541 
Q 2913 2691 2578 2766 
Q 2244 2841 1947 2841 
Q 1628 2841 1473 2761 
Q 1319 2681 1319 2516 
Q 1319 2381 1436 2309 
Q 1553 2238 1856 2203 
L 2053 2175 
Q 2913 2066 3209 1816 
Q 3506 1566 3506 1031 
Q 3506 472 3093 190 
Q 2681 -91 1863 -91 
Q 1516 -91 1145 -36 
Q 775 19 384 128 
L 384 978 
Q 719 816 1070 734 
Q 1422 653 1784 653 
Q 2113 653 2278 743 
Q 2444 834 2444 1013 
Q 2444 1163 2330 1236 
Q 2216 1309 1875 1350 
L 1678 1375 
Q 931 1469 631 1722 
Q 331 1975 331 2491 
Q 331 3047 712 3315 
Q 1094 3584 1881 3584 
Q 2191 3584 2531 3537 
Q 2872 3491 3272 3391 
z
" transform="scale(0.015625)"/>
     <path id="DejaVuSans-Bold-69" d="M 538 3500 
L 1656 3500 
L 1656 0 
L 538 0 
L 538 3500 
z
M 538 4863 
L 1656 4863 
L 1656 3950 
L 538 3950 
L 538 4863 
z
" transform="scale(0.015625)"/>
     <path id="DejaVuSans-Bold-6d" d="M 3781 2919 
Q 3994 3244 4286 3414 
Q 4578 3584 4928 3584 
Q 5531 3584 5847 3212 
Q 6163 2841 6163 2131 
L 6163 0 
L 5038 0 
L 5038 1825 
Q 5041 1866 5042 1909 
Q 5044 1953 5044 2034 
Q 5044 2406 4934 2573 
Q 4825 2741 4581 2741 
Q 4263 2741 4089 2478 
Q 3916 2216 3909 1719 
L 3909 0 
L 2784 0 
L 2784 1825 
Q 2784 2406 2684 2573 
Q 2584 2741 2328 2741 
Q 2006 2741 1831 2477 
Q 1656 2213 1656 1722 
L 1656 0 
L 531 0 
L 531 3500 
L 1656 3500 
L 1656 2988 
Q 1863 3284 2130 3434 
Q 2397 3584 2719 3584 
Q 3081 3584 3359 3409 
Q 3638 3234 3781 2919 
z
" transform="scale(0.015625)"/>
    </defs>
    <use xlink:href="#DejaVuSans-Bold-44"/>
    <use xlink:href="#DejaVuSans-Bold-61" transform="translate(83.007812 0)"/>
    <use xlink:href="#DejaVuSans-Bold-74" transform="translate(150.488281 0)"/>
    <use xlink:href="#DejaVuSans-Bold-61" transform="translate(198.291016 0)"/>
    <use xlink:href="#DejaVuSans-Bold-20" transform="translate(265.771484 0)"/>
    <use xlink:href="#DejaVuSans-Bold-53" transform="translate(300.585938 0)"/>
    <use xlink:href="#DejaVuSans-Bold-74" transform="translate(372.607422 0)"/>
    <use xlink:href="#DejaVuSans-Bold-72" transform="translate(420.410156 0)"/>
    <use xlink:href="#DejaVuSans-Bold-75" transform="translate(469.726562 0)"/>
    <use xlink:href="#DejaVuSans-Bold-63" transform="translate(540.917969 0)"/>
    <use xlink:href="#DejaVuSans-Bold-74" transform="translate(600.195312 0)"/>
    <use xlink:href="#DejaVuSans-Bold-20" transform="translate(647.998047 0)"/>
    <use xlink:href="#DejaVuSans-Bold-61" transform="translate(682.8125 0)"/>
    <use xlink:href="#DejaVuSans-Bold-63" transform="translate(750.292969 0)"/>
    <use xlink:href="#DejaVuSans-Bold-63" transform="translate(809.570312 0)"/>
    <use xlink:href="#DejaVuSans-Bold-65" transform="translate(868.847656 0)"/>
    <use xlink:href="#DejaVuSans-Bold-73" transform="translate(936.669922 0)"/>
    <use xlink:href="#DejaVuSans-Bold-73" transform="translate(996.191406 0)"/>
    <use xlink:href="#DejaVuSans-Bold-20" transform="translate(1055.712891 0)"/>
    <use xlink:href="#DejaVuSans-Bold-74" transform="translate(1090.527344 0)"/>
    <use xlink:href="#DejaVuSans-Bold-69" transform="translate(1138.330078 0)"/>
    <use xlink:href="#DejaVuSans-Bold-6d" transform="translate(1172.607422 0)"/>
    <use xlink:href="#DejaVuSans-Bold-65" transform="translate(1276.806641 0)"/>
   </g>
  </g>
  <g id="text_31">
   <!-- Time - linear scale -->
   <g style="fill: #808080" transform="translate(223.83625 35.837812) scale(0.14 -0.14)">
    <defs>
     <path id="DejaVuSans-2d" d="M 313 2009 
L 1997 2009 
L 1997 1497 
L 313 1497 
L 313 2009 
z
" transform="scale(0.015625)"/>
     <path id="DejaVuSans-6c" d="M 603 4863 
L 1178 4863 
L 1178 0 
L 603 0 
L 603 4863 
z
" transform="scale(0.015625)"/>
    </defs>
    <use xlink:href="#DejaVuSans-54"/>
    <use xlink:href="#DejaVuSans-69" transform="translate(57.958984 0)"/>
    <use xlink:href="#DejaVuSans-6d" transform="translate(85.742188 0)"/>
    <use xlink:href="#DejaVuSans-65" transform="translate(183.154297 0)"/>
    <use xlink:href="#DejaVuSans-20" transform="translate(244.677734 0)"/>
    <use xlink:href="#DejaVuSans-2d" transform="translate(276.464844 0)"/>
    <use xlink:href="#DejaVuSans-20" transform="translate(312.548828 0)"/>
    <use xlink:href="#DejaVuSans-6c" transform="translate(344.335938 0)"/>
    <use xlink:href="#DejaVuSans-69" transform="translate(372.119141 0)"/>
    <use xlink:href="#DejaVuSans-6e" transform="translate(399.902344 0)"/>
    <use xlink:href="#DejaVuSans-65" transform="translate(463.28125 0)"/>
    <use xlink:href="#DejaVuSans-61" transform="translate(524.804688 0)"/>
    <use xlink:href="#DejaVuSans-72" transform="translate(586.083984 0)"/>
    <use xlink:href="#DejaVuSans-20" transform="translate(627.197266 0)"/>
    <use xlink:href="#DejaVuSans-73" transform="translate(658.984375 0)"/>
    <use xlink:href="#DejaVuSans-63" transform="translate(711.083984 0)"/>
    <use xlink:href="#DejaVuSans-61" transform="translate(766.064453 0)"/>
    <use xlink:href="#DejaVuSans-6c" transform="translate(827.34375 0)"/>
    <use xlink:href="#DejaVuSans-65" transform="translate(855.126953 0)"/>
   </g>
  </g>
 </g>
 <defs>
  <clipPath id="pdfa96b332d">
   <rect x="72.37" y="81.76" width="150.21" height="221.08"/>
  </clipPath>
  <clipPath id="pe7171fcc88">
   <rect x="236.08" y="81.76" width="150.21" height="221.08"/>
  </clipPath>
  <clipPath id="pc704beb5d7">
   <rect x="399.79" y="81.76" width="150.21" height="221.08"/>
  </clipPath>
 </defs>
</svg>
